G75*
%MOIN*%
%OFA0B0*%
%FSLAX25Y25*%
%IPPOS*%
%LPD*%
%AMOC8*
5,1,8,0,0,1.08239X$1,22.5*
%
%ADD10R,0.05118X0.04724*%
%ADD11R,0.05906X0.05118*%
%ADD12R,0.05118X0.05906*%
%ADD13R,0.03346X0.03937*%
%ADD14C,0.07400*%
%ADD15C,0.04165*%
%ADD16C,0.04362*%
%ADD17C,0.01200*%
D10*
X0031098Y0065104D03*
X0031098Y0078096D03*
X0031098Y0090104D03*
X0031098Y0103096D03*
X0031098Y0115104D03*
X0031098Y0128096D03*
X0031098Y0140104D03*
X0031098Y0153096D03*
X0049602Y0153096D03*
X0049602Y0140104D03*
X0049602Y0128096D03*
X0049602Y0115104D03*
X0049602Y0103096D03*
X0049602Y0090104D03*
X0049602Y0078096D03*
X0049602Y0065104D03*
X0056098Y0053096D03*
X0056098Y0040104D03*
X0074602Y0040104D03*
X0082348Y0040104D03*
X0082348Y0053096D03*
X0074602Y0053096D03*
X0100852Y0053096D03*
X0108598Y0053096D03*
X0108598Y0040104D03*
X0100852Y0040104D03*
X0127102Y0040104D03*
X0127102Y0053096D03*
X0134848Y0053096D03*
X0134848Y0040104D03*
X0153352Y0040104D03*
X0153352Y0053096D03*
X0159848Y0065104D03*
X0159848Y0078096D03*
X0159848Y0090104D03*
X0159848Y0103096D03*
X0159848Y0115104D03*
X0159848Y0128096D03*
X0159848Y0140104D03*
X0159848Y0153096D03*
X0153352Y0165104D03*
X0153352Y0178096D03*
X0159848Y0190104D03*
X0159848Y0203096D03*
X0159848Y0215104D03*
X0159848Y0228096D03*
X0159848Y0240104D03*
X0159848Y0253096D03*
X0159848Y0265104D03*
X0159848Y0278096D03*
X0153452Y0290104D03*
X0153452Y0303096D03*
X0134948Y0303096D03*
X0134948Y0290104D03*
X0127102Y0290104D03*
X0127102Y0303096D03*
X0108598Y0303096D03*
X0100852Y0303096D03*
X0100852Y0290104D03*
X0108598Y0290104D03*
X0082348Y0290104D03*
X0074602Y0290104D03*
X0074602Y0303096D03*
X0082348Y0303096D03*
X0056098Y0303096D03*
X0056098Y0290104D03*
X0049602Y0278096D03*
X0049602Y0265104D03*
X0049602Y0253096D03*
X0049602Y0240104D03*
X0049602Y0228096D03*
X0049602Y0215104D03*
X0049602Y0203096D03*
X0049602Y0190104D03*
X0056098Y0177996D03*
X0056098Y0165004D03*
X0074602Y0165004D03*
X0082348Y0165204D03*
X0082348Y0178196D03*
X0074602Y0177996D03*
X0100852Y0178196D03*
X0108598Y0178096D03*
X0108598Y0165104D03*
X0100852Y0165204D03*
X0127102Y0165104D03*
X0134848Y0165104D03*
X0134848Y0178096D03*
X0127102Y0178096D03*
X0178352Y0190104D03*
X0178352Y0203096D03*
X0178352Y0215104D03*
X0178352Y0228096D03*
X0178352Y0240104D03*
X0178352Y0253096D03*
X0178352Y0265104D03*
X0178352Y0278096D03*
X0178352Y0153096D03*
X0178352Y0140104D03*
X0178352Y0128096D03*
X0178352Y0115104D03*
X0178352Y0103096D03*
X0178352Y0090104D03*
X0178352Y0078096D03*
X0178352Y0065104D03*
X0031098Y0190104D03*
X0031098Y0203096D03*
X0031098Y0215104D03*
X0031098Y0228096D03*
X0031098Y0240104D03*
X0031098Y0253096D03*
X0031098Y0265104D03*
X0031098Y0278096D03*
D11*
X0047850Y0290360D03*
X0047850Y0297840D03*
X0187850Y0265340D03*
X0187850Y0257860D03*
X0187850Y0240340D03*
X0187850Y0232860D03*
X0187850Y0215340D03*
X0187850Y0207860D03*
X0187850Y0140340D03*
X0187850Y0132860D03*
X0187850Y0115340D03*
X0187850Y0107860D03*
X0187850Y0090340D03*
X0187850Y0082860D03*
D12*
X0134090Y0029100D03*
X0126610Y0029100D03*
X0107840Y0029100D03*
X0100360Y0029100D03*
X0081590Y0029100D03*
X0074110Y0029100D03*
D13*
X0181905Y0039710D03*
X0188795Y0039710D03*
X0188795Y0053490D03*
X0181905Y0053490D03*
D14*
X0182800Y0289100D02*
X0175400Y0289100D01*
X0175400Y0299100D02*
X0182800Y0299100D01*
X0182800Y0309100D02*
X0175400Y0309100D01*
X0037800Y0309100D02*
X0030400Y0309100D01*
X0030400Y0299100D02*
X0037800Y0299100D01*
X0037800Y0289100D02*
X0030400Y0289100D01*
D15*
X0061600Y0276600D03*
X0056600Y0186600D03*
X0031600Y0181600D03*
X0061600Y0066600D03*
X0049602Y0059100D03*
X0049800Y0034400D03*
X0151600Y0066600D03*
X0171600Y0049100D03*
X0171295Y0040045D03*
X0186600Y0031600D03*
X0189100Y0062850D03*
X0160300Y0170600D03*
X0171600Y0181600D03*
X0151600Y0186600D03*
X0161600Y0289100D03*
D16*
X0150350Y0155350D03*
X0026600Y0031600D03*
D17*
X0027511Y0023800D02*
X0018800Y0032511D01*
X0018800Y0160689D01*
X0028800Y0170689D01*
X0028800Y0172511D01*
X0027511Y0173800D01*
X0018800Y0182511D01*
X0018800Y0305689D01*
X0027511Y0314400D01*
X0185689Y0314400D01*
X0194400Y0305689D01*
X0194400Y0182511D01*
X0184400Y0172511D01*
X0184400Y0170689D01*
X0185689Y0169400D01*
X0194400Y0160689D01*
X0194400Y0032511D01*
X0185689Y0023800D01*
X0027511Y0023800D01*
X0027294Y0024017D02*
X0185906Y0024017D01*
X0187104Y0025215D02*
X0137959Y0025215D01*
X0137930Y0025165D02*
X0138140Y0025530D01*
X0138249Y0025937D01*
X0138249Y0028500D01*
X0134690Y0028500D01*
X0134690Y0024547D01*
X0136860Y0024547D01*
X0137267Y0024656D01*
X0137632Y0024867D01*
X0137930Y0025165D01*
X0138249Y0026414D02*
X0188303Y0026414D01*
X0189501Y0027612D02*
X0138249Y0027612D01*
X0138249Y0029700D02*
X0138249Y0032263D01*
X0138140Y0032670D01*
X0137930Y0033035D01*
X0137632Y0033333D01*
X0137267Y0033544D01*
X0136860Y0033653D01*
X0134690Y0033653D01*
X0134690Y0029700D01*
X0133490Y0029700D01*
X0133490Y0033653D01*
X0131320Y0033653D01*
X0130914Y0033544D01*
X0130549Y0033333D01*
X0130251Y0033035D01*
X0130220Y0032982D01*
X0129749Y0033453D01*
X0129102Y0033453D01*
X0129102Y0036120D01*
X0130881Y0034342D01*
X0138815Y0034342D01*
X0142578Y0038104D01*
X0149393Y0038104D01*
X0149393Y0037162D01*
X0150213Y0036342D01*
X0154286Y0036342D01*
X0156106Y0034522D01*
X0157277Y0033350D01*
X0185263Y0033350D01*
X0186435Y0034522D01*
X0188255Y0036342D01*
X0191048Y0036342D01*
X0191868Y0037162D01*
X0191868Y0042259D01*
X0191048Y0043079D01*
X0186542Y0043079D01*
X0185722Y0042259D01*
X0185722Y0039465D01*
X0184978Y0038722D01*
X0184978Y0042259D01*
X0184158Y0043079D01*
X0179652Y0043079D01*
X0178832Y0042259D01*
X0178832Y0042045D01*
X0174220Y0042045D01*
X0173268Y0042997D01*
X0171988Y0043528D01*
X0170602Y0043528D01*
X0169322Y0042997D01*
X0168342Y0042018D01*
X0167812Y0040738D01*
X0167812Y0039352D01*
X0168342Y0038072D01*
X0169065Y0037350D01*
X0158934Y0037350D01*
X0157311Y0038973D01*
X0157311Y0041235D01*
X0177418Y0061342D01*
X0181491Y0061342D01*
X0182311Y0062162D01*
X0182311Y0068046D01*
X0181491Y0068866D01*
X0180352Y0068866D01*
X0180352Y0070366D01*
X0184311Y0074326D01*
X0184311Y0078801D01*
X0184687Y0078701D01*
X0187250Y0078701D01*
X0187250Y0082260D01*
X0183918Y0082260D01*
X0180352Y0085826D01*
X0180352Y0086342D01*
X0181491Y0086342D01*
X0182311Y0087162D01*
X0182311Y0088104D01*
X0183497Y0088104D01*
X0183497Y0087201D01*
X0183968Y0086730D01*
X0183915Y0086699D01*
X0183617Y0086401D01*
X0183406Y0086036D01*
X0183297Y0085630D01*
X0183297Y0083460D01*
X0187250Y0083460D01*
X0187250Y0082260D01*
X0188450Y0082260D01*
X0188450Y0083460D01*
X0192403Y0083460D01*
X0192403Y0085630D01*
X0192294Y0086036D01*
X0192083Y0086401D01*
X0191785Y0086699D01*
X0191732Y0086730D01*
X0192203Y0087201D01*
X0192203Y0093479D01*
X0191383Y0094299D01*
X0184317Y0094299D01*
X0183497Y0093479D01*
X0183497Y0092104D01*
X0182311Y0092104D01*
X0182311Y0093046D01*
X0181491Y0093866D01*
X0180352Y0093866D01*
X0180352Y0095366D01*
X0184311Y0099326D01*
X0184311Y0103801D01*
X0184687Y0103701D01*
X0187250Y0103701D01*
X0187250Y0107260D01*
X0183918Y0107260D01*
X0180352Y0110826D01*
X0180352Y0111342D01*
X0181491Y0111342D01*
X0182311Y0112162D01*
X0182311Y0113104D01*
X0183497Y0113104D01*
X0183497Y0112201D01*
X0183968Y0111730D01*
X0183915Y0111699D01*
X0183617Y0111401D01*
X0183406Y0111036D01*
X0183297Y0110630D01*
X0183297Y0108460D01*
X0187250Y0108460D01*
X0187250Y0107260D01*
X0188450Y0107260D01*
X0188450Y0108460D01*
X0192403Y0108460D01*
X0192403Y0110630D01*
X0192294Y0111036D01*
X0192083Y0111401D01*
X0191785Y0111699D01*
X0191732Y0111730D01*
X0192203Y0112201D01*
X0192203Y0118479D01*
X0191383Y0119299D01*
X0184317Y0119299D01*
X0183497Y0118479D01*
X0183497Y0117104D01*
X0182311Y0117104D01*
X0182311Y0118046D01*
X0181491Y0118866D01*
X0180352Y0118866D01*
X0180352Y0120366D01*
X0184311Y0124326D01*
X0184311Y0128801D01*
X0184687Y0128701D01*
X0187250Y0128701D01*
X0187250Y0132260D01*
X0183918Y0132260D01*
X0180352Y0135826D01*
X0180352Y0136342D01*
X0181491Y0136342D01*
X0182311Y0137162D01*
X0182311Y0138104D01*
X0183497Y0138104D01*
X0183497Y0137201D01*
X0183968Y0136730D01*
X0183915Y0136699D01*
X0183617Y0136401D01*
X0183406Y0136036D01*
X0183297Y0135630D01*
X0183297Y0133460D01*
X0187250Y0133460D01*
X0187250Y0132260D01*
X0188450Y0132260D01*
X0188450Y0133460D01*
X0192403Y0133460D01*
X0192403Y0135630D01*
X0192294Y0136036D01*
X0192083Y0136401D01*
X0191785Y0136699D01*
X0191732Y0136730D01*
X0192203Y0137201D01*
X0192203Y0143479D01*
X0191383Y0144299D01*
X0184317Y0144299D01*
X0183497Y0143479D01*
X0183497Y0142104D01*
X0182311Y0142104D01*
X0182311Y0143046D01*
X0181491Y0143866D01*
X0175213Y0143866D01*
X0174393Y0143046D01*
X0174393Y0137162D01*
X0175213Y0136342D01*
X0176352Y0136342D01*
X0176352Y0134169D01*
X0178663Y0131858D01*
X0175213Y0131858D01*
X0174393Y0131038D01*
X0174393Y0126965D01*
X0168600Y0121172D01*
X0168600Y0140516D01*
X0177418Y0149334D01*
X0181491Y0149334D01*
X0182311Y0150154D01*
X0182311Y0156038D01*
X0181491Y0156858D01*
X0175213Y0156858D01*
X0174393Y0156038D01*
X0174393Y0151965D01*
X0165772Y0143344D01*
X0164600Y0142173D01*
X0164600Y0122684D01*
X0160782Y0118866D01*
X0156709Y0118866D01*
X0155889Y0118046D01*
X0155889Y0112162D01*
X0156709Y0111342D01*
X0162987Y0111342D01*
X0163807Y0112162D01*
X0163807Y0116235D01*
X0164600Y0117027D01*
X0164600Y0097684D01*
X0160782Y0093866D01*
X0156709Y0093866D01*
X0155889Y0093046D01*
X0155889Y0087162D01*
X0156709Y0086342D01*
X0162987Y0086342D01*
X0163807Y0087162D01*
X0163807Y0091235D01*
X0164600Y0092027D01*
X0164600Y0072684D01*
X0160782Y0068866D01*
X0156709Y0068866D01*
X0155889Y0068046D01*
X0155889Y0062162D01*
X0156709Y0061342D01*
X0162987Y0061342D01*
X0163807Y0062162D01*
X0163807Y0066235D01*
X0164600Y0067027D01*
X0164600Y0059928D01*
X0157311Y0052639D01*
X0157311Y0056038D01*
X0156491Y0056858D01*
X0150213Y0056858D01*
X0149393Y0056038D01*
X0149393Y0051965D01*
X0146027Y0048600D01*
X0114266Y0048600D01*
X0113094Y0047428D01*
X0109532Y0043866D01*
X0105459Y0043866D01*
X0104725Y0043132D01*
X0103991Y0043866D01*
X0097713Y0043866D01*
X0096893Y0043046D01*
X0096893Y0042104D01*
X0088421Y0042104D01*
X0086307Y0039990D01*
X0086307Y0041235D01*
X0089673Y0044600D01*
X0109928Y0044600D01*
X0111100Y0045772D01*
X0116424Y0051096D01*
X0123143Y0051096D01*
X0123143Y0050154D01*
X0123963Y0049334D01*
X0130241Y0049334D01*
X0130880Y0049973D01*
X0131009Y0049751D01*
X0131307Y0049454D01*
X0131671Y0049243D01*
X0132078Y0049134D01*
X0134267Y0049134D01*
X0134267Y0052515D01*
X0135429Y0052515D01*
X0135429Y0049134D01*
X0137618Y0049134D01*
X0138025Y0049243D01*
X0138390Y0049454D01*
X0138687Y0049751D01*
X0138898Y0050116D01*
X0139007Y0050523D01*
X0139007Y0052515D01*
X0135429Y0052515D01*
X0135429Y0053677D01*
X0134267Y0053677D01*
X0134267Y0057058D01*
X0132078Y0057058D01*
X0131671Y0056949D01*
X0131307Y0056739D01*
X0131009Y0056441D01*
X0130880Y0056219D01*
X0130241Y0056858D01*
X0123963Y0056858D01*
X0123143Y0056038D01*
X0123143Y0055096D01*
X0114768Y0055096D01*
X0112187Y0052515D01*
X0109179Y0052515D01*
X0109179Y0049508D01*
X0108272Y0048600D01*
X0088928Y0048600D01*
X0091424Y0051096D01*
X0096893Y0051096D01*
X0096893Y0050154D01*
X0097713Y0049334D01*
X0103991Y0049334D01*
X0104630Y0049973D01*
X0104759Y0049751D01*
X0105057Y0049454D01*
X0105421Y0049243D01*
X0105828Y0049134D01*
X0108017Y0049134D01*
X0108017Y0052515D01*
X0109179Y0052515D01*
X0109179Y0053677D01*
X0108017Y0053677D01*
X0108017Y0057058D01*
X0105828Y0057058D01*
X0105421Y0056949D01*
X0105057Y0056739D01*
X0104759Y0056441D01*
X0104630Y0056219D01*
X0103991Y0056858D01*
X0097713Y0056858D01*
X0096893Y0056038D01*
X0096893Y0055096D01*
X0089768Y0055096D01*
X0086507Y0051835D01*
X0086507Y0052515D01*
X0082929Y0052515D01*
X0082929Y0049134D01*
X0083805Y0049134D01*
X0083272Y0048600D01*
X0063932Y0048600D01*
X0063929Y0048600D01*
X0066424Y0051096D01*
X0070643Y0051096D01*
X0070643Y0050154D01*
X0071463Y0049334D01*
X0077741Y0049334D01*
X0078380Y0049973D01*
X0078509Y0049751D01*
X0078807Y0049454D01*
X0079171Y0049243D01*
X0079578Y0049134D01*
X0081767Y0049134D01*
X0081767Y0052515D01*
X0082929Y0052515D01*
X0082929Y0053677D01*
X0081767Y0053677D01*
X0081767Y0057058D01*
X0079578Y0057058D01*
X0079171Y0056949D01*
X0078807Y0056739D01*
X0078509Y0056441D01*
X0078380Y0056219D01*
X0077741Y0056858D01*
X0071463Y0056858D01*
X0070643Y0056038D01*
X0070643Y0055096D01*
X0064768Y0055096D01*
X0060257Y0050585D01*
X0060257Y0052515D01*
X0056679Y0052515D01*
X0056679Y0049134D01*
X0058805Y0049134D01*
X0058272Y0048600D01*
X0044928Y0048600D01*
X0033600Y0059928D01*
X0033600Y0061342D01*
X0034237Y0061342D01*
X0035057Y0062162D01*
X0035057Y0068046D01*
X0034237Y0068866D01*
X0027959Y0068866D01*
X0027139Y0068046D01*
X0027139Y0062162D01*
X0027959Y0061342D01*
X0029600Y0061342D01*
X0029600Y0058272D01*
X0042100Y0045772D01*
X0043272Y0044600D01*
X0058347Y0044600D01*
X0057472Y0043866D01*
X0052959Y0043866D01*
X0052139Y0043046D01*
X0052139Y0037162D01*
X0052901Y0036400D01*
X0052725Y0036400D01*
X0051773Y0037352D01*
X0050493Y0037883D01*
X0049107Y0037883D01*
X0047827Y0037352D01*
X0046848Y0036373D01*
X0046317Y0035093D01*
X0046317Y0033707D01*
X0046848Y0032427D01*
X0047827Y0031448D01*
X0049107Y0030917D01*
X0050493Y0030917D01*
X0051773Y0031448D01*
X0052725Y0032400D01*
X0064224Y0032400D01*
X0065396Y0033572D01*
X0069928Y0038104D01*
X0070643Y0038104D01*
X0070643Y0037162D01*
X0071463Y0036342D01*
X0072602Y0036342D01*
X0072602Y0033453D01*
X0070971Y0033453D01*
X0070151Y0032633D01*
X0070151Y0025567D01*
X0070971Y0024747D01*
X0077249Y0024747D01*
X0077720Y0025218D01*
X0077751Y0025165D01*
X0078049Y0024867D01*
X0078414Y0024656D01*
X0078820Y0024547D01*
X0080990Y0024547D01*
X0080990Y0028500D01*
X0082190Y0028500D01*
X0082190Y0024547D01*
X0084360Y0024547D01*
X0084767Y0024656D01*
X0085132Y0024867D01*
X0085430Y0025165D01*
X0085640Y0025530D01*
X0085749Y0025937D01*
X0085749Y0028500D01*
X0082190Y0028500D01*
X0082190Y0029700D01*
X0080990Y0029700D01*
X0080990Y0033653D01*
X0078820Y0033653D01*
X0078414Y0033544D01*
X0078049Y0033333D01*
X0077751Y0033035D01*
X0077720Y0032982D01*
X0077249Y0033453D01*
X0076602Y0033453D01*
X0076602Y0036120D01*
X0077209Y0035513D01*
X0078381Y0034342D01*
X0086315Y0034342D01*
X0087487Y0035513D01*
X0087487Y0035513D01*
X0090078Y0038104D01*
X0096893Y0038104D01*
X0096893Y0037162D01*
X0097713Y0036342D01*
X0098852Y0036342D01*
X0098852Y0033453D01*
X0097221Y0033453D01*
X0096401Y0032633D01*
X0096401Y0025567D01*
X0097221Y0024747D01*
X0103499Y0024747D01*
X0103970Y0025218D01*
X0104001Y0025165D01*
X0104299Y0024867D01*
X0104664Y0024656D01*
X0105070Y0024547D01*
X0107240Y0024547D01*
X0107240Y0028500D01*
X0108440Y0028500D01*
X0108440Y0024547D01*
X0110610Y0024547D01*
X0111017Y0024656D01*
X0111382Y0024867D01*
X0111680Y0025165D01*
X0111890Y0025530D01*
X0111999Y0025937D01*
X0111999Y0028500D01*
X0108440Y0028500D01*
X0108440Y0029700D01*
X0107240Y0029700D01*
X0107240Y0033653D01*
X0105070Y0033653D01*
X0104664Y0033544D01*
X0104299Y0033333D01*
X0104001Y0033035D01*
X0103970Y0032982D01*
X0103499Y0033453D01*
X0102852Y0033453D01*
X0102852Y0036120D01*
X0104631Y0034342D01*
X0112565Y0034342D01*
X0116328Y0038104D01*
X0123143Y0038104D01*
X0123143Y0037162D01*
X0123963Y0036342D01*
X0125102Y0036342D01*
X0125102Y0033453D01*
X0123471Y0033453D01*
X0122651Y0032633D01*
X0122651Y0025567D01*
X0123471Y0024747D01*
X0129749Y0024747D01*
X0130220Y0025218D01*
X0130251Y0025165D01*
X0130549Y0024867D01*
X0130914Y0024656D01*
X0131320Y0024547D01*
X0133490Y0024547D01*
X0133490Y0028500D01*
X0134690Y0028500D01*
X0134690Y0029700D01*
X0138249Y0029700D01*
X0138249Y0030009D02*
X0191898Y0030009D01*
X0190700Y0028811D02*
X0134690Y0028811D01*
X0134690Y0030009D02*
X0133490Y0030009D01*
X0133490Y0031208D02*
X0134690Y0031208D01*
X0134690Y0032406D02*
X0133490Y0032406D01*
X0133490Y0033605D02*
X0134690Y0033605D01*
X0137038Y0033605D02*
X0157022Y0033605D01*
X0155824Y0034803D02*
X0139277Y0034803D01*
X0140476Y0036002D02*
X0154625Y0036002D01*
X0158106Y0035350D02*
X0184435Y0035350D01*
X0188795Y0039710D01*
X0191868Y0039598D02*
X0194400Y0039598D01*
X0194400Y0040796D02*
X0191868Y0040796D01*
X0191868Y0041995D02*
X0194400Y0041995D01*
X0194400Y0043193D02*
X0172795Y0043193D01*
X0169795Y0043193D02*
X0159270Y0043193D01*
X0160468Y0044392D02*
X0194400Y0044392D01*
X0194400Y0045590D02*
X0161667Y0045590D01*
X0162865Y0046789D02*
X0194400Y0046789D01*
X0194400Y0047987D02*
X0164064Y0047987D01*
X0165262Y0049186D02*
X0194400Y0049186D01*
X0194400Y0050384D02*
X0191311Y0050384D01*
X0191048Y0050121D02*
X0191868Y0050941D01*
X0191868Y0056038D01*
X0191100Y0056806D01*
X0191100Y0059925D01*
X0192052Y0060877D01*
X0192583Y0062157D01*
X0192583Y0063543D01*
X0192052Y0064823D01*
X0191073Y0065802D01*
X0189793Y0066333D01*
X0188407Y0066333D01*
X0187127Y0065802D01*
X0186148Y0064823D01*
X0185617Y0063543D01*
X0185617Y0062157D01*
X0186148Y0060877D01*
X0187100Y0059925D01*
X0187100Y0056858D01*
X0186542Y0056858D01*
X0185722Y0056038D01*
X0185722Y0050941D01*
X0186542Y0050121D01*
X0191048Y0050121D01*
X0191868Y0051583D02*
X0194400Y0051583D01*
X0194400Y0052781D02*
X0191868Y0052781D01*
X0191868Y0053980D02*
X0194400Y0053980D01*
X0194400Y0055178D02*
X0191868Y0055178D01*
X0191530Y0056377D02*
X0194400Y0056377D01*
X0194400Y0057575D02*
X0191100Y0057575D01*
X0191100Y0058774D02*
X0194400Y0058774D01*
X0194400Y0059972D02*
X0191147Y0059972D01*
X0192174Y0061171D02*
X0194400Y0061171D01*
X0194400Y0062369D02*
X0192583Y0062369D01*
X0192572Y0063568D02*
X0194400Y0063568D01*
X0194400Y0064766D02*
X0192076Y0064766D01*
X0190681Y0065965D02*
X0194400Y0065965D01*
X0194400Y0067163D02*
X0182311Y0067163D01*
X0182311Y0065965D02*
X0187519Y0065965D01*
X0186124Y0064766D02*
X0182311Y0064766D01*
X0182311Y0063568D02*
X0185628Y0063568D01*
X0185617Y0062369D02*
X0182311Y0062369D01*
X0182142Y0057058D02*
X0182142Y0053726D01*
X0185178Y0053726D01*
X0185178Y0055669D01*
X0185069Y0056076D01*
X0184859Y0056441D01*
X0184561Y0056739D01*
X0184196Y0056949D01*
X0183789Y0057058D01*
X0182142Y0057058D01*
X0181668Y0057058D02*
X0180021Y0057058D01*
X0179614Y0056949D01*
X0179249Y0056739D01*
X0178952Y0056441D01*
X0178741Y0056076D01*
X0178632Y0055669D01*
X0178632Y0053726D01*
X0181668Y0053726D01*
X0181668Y0053253D01*
X0178632Y0053253D01*
X0178632Y0051311D01*
X0178741Y0050904D01*
X0178952Y0050539D01*
X0179249Y0050241D01*
X0179614Y0050030D01*
X0180021Y0049921D01*
X0181668Y0049921D01*
X0181668Y0053253D01*
X0182142Y0053253D01*
X0182142Y0053726D01*
X0181668Y0053726D01*
X0181668Y0057058D01*
X0181668Y0056377D02*
X0182142Y0056377D01*
X0182142Y0055178D02*
X0181668Y0055178D01*
X0181668Y0053980D02*
X0182142Y0053980D01*
X0182142Y0053253D02*
X0185178Y0053253D01*
X0185178Y0051311D01*
X0185069Y0050904D01*
X0184859Y0050539D01*
X0184561Y0050241D01*
X0184196Y0050030D01*
X0183789Y0049921D01*
X0182142Y0049921D01*
X0182142Y0053253D01*
X0182142Y0052781D02*
X0181668Y0052781D01*
X0181668Y0051583D02*
X0182142Y0051583D01*
X0182142Y0050384D02*
X0181668Y0050384D01*
X0179106Y0050384D02*
X0166461Y0050384D01*
X0167659Y0051583D02*
X0178632Y0051583D01*
X0178632Y0052781D02*
X0168858Y0052781D01*
X0170056Y0053980D02*
X0178632Y0053980D01*
X0178632Y0055178D02*
X0171255Y0055178D01*
X0172453Y0056377D02*
X0178915Y0056377D01*
X0176049Y0059972D02*
X0187053Y0059972D01*
X0187100Y0058774D02*
X0174850Y0058774D01*
X0173652Y0057575D02*
X0187100Y0057575D01*
X0186060Y0056377D02*
X0184896Y0056377D01*
X0185178Y0055178D02*
X0185722Y0055178D01*
X0185722Y0053980D02*
X0185178Y0053980D01*
X0185178Y0052781D02*
X0185722Y0052781D01*
X0185722Y0051583D02*
X0185178Y0051583D01*
X0184704Y0050384D02*
X0186279Y0050384D01*
X0188795Y0053490D02*
X0189100Y0053795D01*
X0189100Y0062850D01*
X0186026Y0061171D02*
X0177247Y0061171D01*
X0178352Y0065104D02*
X0153352Y0040104D01*
X0158106Y0035350D01*
X0157885Y0038399D02*
X0168207Y0038399D01*
X0167812Y0039598D02*
X0157311Y0039598D01*
X0157311Y0040796D02*
X0167836Y0040796D01*
X0168333Y0041995D02*
X0158071Y0041995D01*
X0153352Y0040104D02*
X0141749Y0040104D01*
X0137987Y0036342D01*
X0131709Y0036342D01*
X0127947Y0040104D01*
X0127102Y0040104D01*
X0127102Y0029592D01*
X0126610Y0029100D01*
X0123003Y0025215D02*
X0111709Y0025215D01*
X0111999Y0026414D02*
X0122651Y0026414D01*
X0122651Y0027612D02*
X0111999Y0027612D01*
X0111999Y0029700D02*
X0111999Y0032263D01*
X0111890Y0032670D01*
X0111680Y0033035D01*
X0111382Y0033333D01*
X0111017Y0033544D01*
X0110610Y0033653D01*
X0108440Y0033653D01*
X0108440Y0029700D01*
X0111999Y0029700D01*
X0111999Y0030009D02*
X0122651Y0030009D01*
X0122651Y0028811D02*
X0108440Y0028811D01*
X0108440Y0030009D02*
X0107240Y0030009D01*
X0107240Y0031208D02*
X0108440Y0031208D01*
X0108440Y0032406D02*
X0107240Y0032406D01*
X0107240Y0033605D02*
X0108440Y0033605D01*
X0110788Y0033605D02*
X0125102Y0033605D01*
X0125102Y0034803D02*
X0113027Y0034803D01*
X0114226Y0036002D02*
X0125102Y0036002D01*
X0123143Y0037201D02*
X0115424Y0037201D01*
X0115499Y0040104D02*
X0111737Y0036342D01*
X0105459Y0036342D01*
X0101697Y0040104D01*
X0100852Y0040104D01*
X0100852Y0029592D01*
X0100360Y0029100D01*
X0096401Y0028811D02*
X0082190Y0028811D01*
X0082190Y0029700D02*
X0085749Y0029700D01*
X0085749Y0032263D01*
X0085640Y0032670D01*
X0085430Y0033035D01*
X0085132Y0033333D01*
X0084767Y0033544D01*
X0084360Y0033653D01*
X0082190Y0033653D01*
X0082190Y0029700D01*
X0082190Y0030009D02*
X0080990Y0030009D01*
X0080990Y0031208D02*
X0082190Y0031208D01*
X0082190Y0032406D02*
X0080990Y0032406D01*
X0080990Y0033605D02*
X0082190Y0033605D01*
X0084538Y0033605D02*
X0098852Y0033605D01*
X0098852Y0034803D02*
X0086777Y0034803D01*
X0087976Y0036002D02*
X0098852Y0036002D01*
X0096893Y0037201D02*
X0089174Y0037201D01*
X0089249Y0040104D02*
X0085487Y0036342D01*
X0079209Y0036342D01*
X0075447Y0040104D01*
X0074602Y0040104D01*
X0074602Y0029592D01*
X0074110Y0029100D01*
X0077717Y0025215D02*
X0077722Y0025215D01*
X0080990Y0025215D02*
X0082190Y0025215D01*
X0082190Y0026414D02*
X0080990Y0026414D01*
X0080990Y0027612D02*
X0082190Y0027612D01*
X0085749Y0027612D02*
X0096401Y0027612D01*
X0096401Y0026414D02*
X0085749Y0026414D01*
X0085459Y0025215D02*
X0096753Y0025215D01*
X0096401Y0030009D02*
X0085749Y0030009D01*
X0085749Y0031208D02*
X0096401Y0031208D01*
X0096401Y0032406D02*
X0085711Y0032406D01*
X0078642Y0033605D02*
X0076602Y0033605D01*
X0076602Y0034803D02*
X0077919Y0034803D01*
X0077209Y0035513D02*
X0077209Y0035513D01*
X0076720Y0036002D02*
X0076602Y0036002D01*
X0072602Y0036002D02*
X0067826Y0036002D01*
X0066628Y0034803D02*
X0072602Y0034803D01*
X0072602Y0033605D02*
X0065429Y0033605D01*
X0064231Y0032406D02*
X0070151Y0032406D01*
X0070151Y0031208D02*
X0051194Y0031208D01*
X0048406Y0031208D02*
X0020103Y0031208D01*
X0018905Y0032406D02*
X0046868Y0032406D01*
X0046360Y0033605D02*
X0018800Y0033605D01*
X0018800Y0034803D02*
X0046317Y0034803D01*
X0046694Y0036002D02*
X0018800Y0036002D01*
X0018800Y0037201D02*
X0047675Y0037201D01*
X0049800Y0034400D02*
X0063396Y0034400D01*
X0069100Y0040104D01*
X0074602Y0040104D01*
X0070643Y0037201D02*
X0069025Y0037201D01*
X0070151Y0030009D02*
X0021302Y0030009D01*
X0022500Y0028811D02*
X0070151Y0028811D01*
X0070151Y0027612D02*
X0023699Y0027612D01*
X0024897Y0026414D02*
X0070151Y0026414D01*
X0070503Y0025215D02*
X0026096Y0025215D01*
X0018800Y0038399D02*
X0052139Y0038399D01*
X0052139Y0037201D02*
X0051925Y0037201D01*
X0052139Y0039598D02*
X0018800Y0039598D01*
X0018800Y0040796D02*
X0052139Y0040796D01*
X0052139Y0041995D02*
X0018800Y0041995D01*
X0018800Y0043193D02*
X0052286Y0043193D01*
X0056098Y0040104D02*
X0063844Y0046600D01*
X0084100Y0046600D01*
X0090596Y0053096D01*
X0100852Y0053096D01*
X0104472Y0056377D02*
X0104722Y0056377D01*
X0108017Y0056377D02*
X0109179Y0056377D01*
X0109179Y0057058D02*
X0109179Y0053677D01*
X0112757Y0053677D01*
X0112757Y0055669D01*
X0112648Y0056076D01*
X0112437Y0056441D01*
X0112140Y0056739D01*
X0111775Y0056949D01*
X0111368Y0057058D01*
X0109179Y0057058D01*
X0109179Y0055178D02*
X0108017Y0055178D01*
X0108017Y0053980D02*
X0109179Y0053980D01*
X0109179Y0052781D02*
X0112453Y0052781D01*
X0112757Y0053980D02*
X0113651Y0053980D01*
X0112757Y0055178D02*
X0123143Y0055178D01*
X0123481Y0056377D02*
X0112474Y0056377D01*
X0115596Y0053096D02*
X0109100Y0046600D01*
X0088844Y0046600D01*
X0082348Y0040104D01*
X0086307Y0040796D02*
X0087113Y0040796D01*
X0087067Y0041995D02*
X0088311Y0041995D01*
X0088266Y0043193D02*
X0097040Y0043193D01*
X0100852Y0040104D02*
X0089249Y0040104D01*
X0089464Y0044392D02*
X0110057Y0044392D01*
X0110919Y0045590D02*
X0111256Y0045590D01*
X0112117Y0046789D02*
X0112454Y0046789D01*
X0113316Y0047987D02*
X0113653Y0047987D01*
X0114514Y0049186D02*
X0131885Y0049186D01*
X0134267Y0049186D02*
X0135429Y0049186D01*
X0135429Y0050384D02*
X0134267Y0050384D01*
X0134267Y0051583D02*
X0135429Y0051583D01*
X0135429Y0052781D02*
X0149393Y0052781D01*
X0149393Y0053980D02*
X0139007Y0053980D01*
X0139007Y0053677D02*
X0139007Y0055669D01*
X0138898Y0056076D01*
X0138687Y0056441D01*
X0138390Y0056739D01*
X0138025Y0056949D01*
X0137618Y0057058D01*
X0135429Y0057058D01*
X0135429Y0053677D01*
X0139007Y0053677D01*
X0139007Y0055178D02*
X0149393Y0055178D01*
X0149731Y0056377D02*
X0138724Y0056377D01*
X0139007Y0051583D02*
X0149010Y0051583D01*
X0147812Y0050384D02*
X0138970Y0050384D01*
X0137811Y0049186D02*
X0146613Y0049186D01*
X0146856Y0046600D02*
X0115094Y0046600D01*
X0108598Y0040104D01*
X0104786Y0043193D02*
X0104664Y0043193D01*
X0105635Y0049186D02*
X0089514Y0049186D01*
X0090713Y0050384D02*
X0096893Y0050384D01*
X0096893Y0055178D02*
X0086507Y0055178D01*
X0086507Y0055669D02*
X0086398Y0056076D01*
X0086187Y0056441D01*
X0085890Y0056739D01*
X0085525Y0056949D01*
X0085118Y0057058D01*
X0082929Y0057058D01*
X0082929Y0053677D01*
X0086507Y0053677D01*
X0086507Y0055669D01*
X0086224Y0056377D02*
X0097231Y0056377D01*
X0088651Y0053980D02*
X0086507Y0053980D01*
X0087453Y0052781D02*
X0082929Y0052781D01*
X0082929Y0051583D02*
X0081767Y0051583D01*
X0081767Y0050384D02*
X0082929Y0050384D01*
X0082929Y0049186D02*
X0081767Y0049186D01*
X0079385Y0049186D02*
X0064514Y0049186D01*
X0065713Y0050384D02*
X0070643Y0050384D01*
X0070643Y0055178D02*
X0060257Y0055178D01*
X0060257Y0055669D02*
X0060148Y0056076D01*
X0059937Y0056441D01*
X0059640Y0056739D01*
X0059275Y0056949D01*
X0058868Y0057058D01*
X0056679Y0057058D01*
X0056679Y0053677D01*
X0055517Y0053677D01*
X0055517Y0052515D01*
X0056679Y0052515D01*
X0056679Y0053677D01*
X0060257Y0053677D01*
X0060257Y0055669D01*
X0059974Y0056377D02*
X0070981Y0056377D01*
X0074602Y0053096D02*
X0065596Y0053096D01*
X0059100Y0046600D01*
X0044100Y0046600D01*
X0031600Y0059100D01*
X0031600Y0064602D01*
X0031098Y0065104D01*
X0027139Y0064766D02*
X0018800Y0064766D01*
X0018800Y0063568D02*
X0027139Y0063568D01*
X0027139Y0062369D02*
X0018800Y0062369D01*
X0018800Y0061171D02*
X0029600Y0061171D01*
X0029600Y0059972D02*
X0018800Y0059972D01*
X0018800Y0058774D02*
X0029600Y0058774D01*
X0030296Y0057575D02*
X0018800Y0057575D01*
X0018800Y0056377D02*
X0031495Y0056377D01*
X0032693Y0055178D02*
X0018800Y0055178D01*
X0018800Y0053980D02*
X0033892Y0053980D01*
X0035090Y0052781D02*
X0018800Y0052781D01*
X0018800Y0051583D02*
X0036289Y0051583D01*
X0037487Y0050384D02*
X0018800Y0050384D01*
X0018800Y0049186D02*
X0038686Y0049186D01*
X0039884Y0047987D02*
X0018800Y0047987D01*
X0018800Y0046789D02*
X0041083Y0046789D01*
X0042281Y0045590D02*
X0018800Y0045590D01*
X0018800Y0044392D02*
X0058098Y0044392D01*
X0056679Y0049186D02*
X0055517Y0049186D01*
X0055517Y0049134D02*
X0053328Y0049134D01*
X0052921Y0049243D01*
X0052557Y0049454D01*
X0052259Y0049751D01*
X0052048Y0050116D01*
X0051939Y0050523D01*
X0051939Y0052515D01*
X0055517Y0052515D01*
X0055517Y0049134D01*
X0055517Y0050384D02*
X0056679Y0050384D01*
X0056679Y0051583D02*
X0055517Y0051583D01*
X0055517Y0052781D02*
X0040747Y0052781D01*
X0039549Y0053980D02*
X0051939Y0053980D01*
X0051939Y0053677D02*
X0055517Y0053677D01*
X0055517Y0057058D01*
X0053328Y0057058D01*
X0052921Y0056949D01*
X0052557Y0056739D01*
X0052259Y0056441D01*
X0052048Y0056076D01*
X0051939Y0055669D01*
X0051939Y0053677D01*
X0051939Y0055178D02*
X0038350Y0055178D01*
X0037152Y0056377D02*
X0047400Y0056377D01*
X0047629Y0056148D02*
X0048909Y0055617D01*
X0050295Y0055617D01*
X0051575Y0056148D01*
X0052554Y0057127D01*
X0053085Y0058407D01*
X0053085Y0059793D01*
X0052554Y0061073D01*
X0052285Y0061342D01*
X0052741Y0061342D01*
X0053561Y0062162D01*
X0053561Y0068046D01*
X0052741Y0068866D01*
X0051602Y0068866D01*
X0051602Y0070366D01*
X0055561Y0074326D01*
X0055561Y0081867D01*
X0051602Y0085826D01*
X0051602Y0086342D01*
X0052741Y0086342D01*
X0053561Y0087162D01*
X0053561Y0093046D01*
X0052741Y0093866D01*
X0051602Y0093866D01*
X0051602Y0095366D01*
X0054389Y0098154D01*
X0054389Y0098154D01*
X0055561Y0099326D01*
X0055561Y0106867D01*
X0054389Y0108038D01*
X0051602Y0110826D01*
X0051602Y0111342D01*
X0052741Y0111342D01*
X0053561Y0112162D01*
X0053561Y0118046D01*
X0052741Y0118866D01*
X0051602Y0118866D01*
X0051602Y0120366D01*
X0055561Y0124326D01*
X0055561Y0131867D01*
X0051602Y0135826D01*
X0051602Y0136342D01*
X0052741Y0136342D01*
X0053561Y0137162D01*
X0053561Y0143046D01*
X0052741Y0143866D01*
X0051602Y0143866D01*
X0051602Y0145366D01*
X0055561Y0149326D01*
X0055561Y0154038D01*
X0065927Y0154038D01*
X0060689Y0148800D01*
X0059400Y0147511D01*
X0059400Y0075689D01*
X0069400Y0065689D01*
X0070689Y0064400D01*
X0142511Y0064400D01*
X0152511Y0074400D01*
X0153800Y0075689D01*
X0153800Y0147511D01*
X0143800Y0157511D01*
X0142511Y0158800D01*
X0071226Y0158800D01*
X0073668Y0161242D01*
X0076581Y0161242D01*
X0078381Y0159442D01*
X0087428Y0159442D01*
X0091191Y0163204D01*
X0096893Y0163204D01*
X0096893Y0162262D01*
X0097713Y0161442D01*
X0102531Y0161442D01*
X0104631Y0159342D01*
X0112565Y0159342D01*
X0116328Y0163104D01*
X0123143Y0163104D01*
X0123143Y0162162D01*
X0123963Y0161342D01*
X0128881Y0161342D01*
X0130881Y0159342D01*
X0138815Y0159342D01*
X0142578Y0163104D01*
X0149393Y0163104D01*
X0149393Y0162162D01*
X0150213Y0161342D01*
X0156491Y0161342D01*
X0157311Y0162162D01*
X0157311Y0168046D01*
X0156491Y0168866D01*
X0150213Y0168866D01*
X0149393Y0168046D01*
X0149393Y0167104D01*
X0140921Y0167104D01*
X0139749Y0165932D01*
X0138807Y0164990D01*
X0138807Y0168046D01*
X0137987Y0168866D01*
X0136848Y0168866D01*
X0136848Y0171178D01*
X0135676Y0172350D01*
X0133893Y0174134D01*
X0134267Y0174134D01*
X0134267Y0177515D01*
X0135429Y0177515D01*
X0135429Y0174134D01*
X0137618Y0174134D01*
X0138025Y0174243D01*
X0138390Y0174454D01*
X0138687Y0174751D01*
X0138898Y0175116D01*
X0139007Y0175523D01*
X0139007Y0177515D01*
X0135429Y0177515D01*
X0135429Y0178677D01*
X0134267Y0178677D01*
X0134267Y0182058D01*
X0132078Y0182058D01*
X0131671Y0181949D01*
X0131307Y0181739D01*
X0131009Y0181441D01*
X0130880Y0181219D01*
X0130241Y0181858D01*
X0123963Y0181858D01*
X0123143Y0181038D01*
X0123143Y0175154D01*
X0123963Y0174334D01*
X0128036Y0174334D01*
X0132848Y0169522D01*
X0132848Y0168866D01*
X0131709Y0168866D01*
X0130975Y0168132D01*
X0130241Y0168866D01*
X0123963Y0168866D01*
X0123143Y0168046D01*
X0123143Y0167104D01*
X0114671Y0167104D01*
X0113499Y0165932D01*
X0112557Y0164990D01*
X0112557Y0168046D01*
X0111737Y0168866D01*
X0110598Y0168866D01*
X0110598Y0171278D01*
X0109426Y0172450D01*
X0107743Y0174134D01*
X0108017Y0174134D01*
X0108017Y0177515D01*
X0109179Y0177515D01*
X0109179Y0174134D01*
X0111368Y0174134D01*
X0111775Y0174243D01*
X0112140Y0174454D01*
X0112437Y0174751D01*
X0112648Y0175116D01*
X0112757Y0175523D01*
X0112757Y0177515D01*
X0109179Y0177515D01*
X0109179Y0178677D01*
X0108017Y0178677D01*
X0108017Y0182058D01*
X0105828Y0182058D01*
X0105421Y0181949D01*
X0105057Y0181739D01*
X0104759Y0181441D01*
X0104667Y0181282D01*
X0103991Y0181958D01*
X0097713Y0181958D01*
X0096893Y0181138D01*
X0096893Y0175254D01*
X0097713Y0174434D01*
X0101786Y0174434D01*
X0106598Y0169622D01*
X0106598Y0168866D01*
X0105459Y0168866D01*
X0104775Y0168182D01*
X0103991Y0168966D01*
X0097713Y0168966D01*
X0096893Y0168146D01*
X0096893Y0167204D01*
X0089534Y0167204D01*
X0088362Y0166032D01*
X0086307Y0163977D01*
X0086307Y0168146D01*
X0085487Y0168966D01*
X0084348Y0168966D01*
X0084348Y0171078D01*
X0083176Y0172250D01*
X0081193Y0174234D01*
X0081767Y0174234D01*
X0081767Y0177615D01*
X0082929Y0177615D01*
X0082929Y0174234D01*
X0085118Y0174234D01*
X0085525Y0174343D01*
X0085890Y0174554D01*
X0086187Y0174851D01*
X0086398Y0175216D01*
X0086507Y0175623D01*
X0086507Y0177615D01*
X0082929Y0177615D01*
X0082929Y0178777D01*
X0081767Y0178777D01*
X0081767Y0182158D01*
X0079578Y0182158D01*
X0079171Y0182049D01*
X0078807Y0181839D01*
X0078509Y0181541D01*
X0078307Y0181192D01*
X0077741Y0181758D01*
X0071463Y0181758D01*
X0070643Y0180938D01*
X0070643Y0175054D01*
X0071463Y0174234D01*
X0075536Y0174234D01*
X0080348Y0169422D01*
X0080348Y0168966D01*
X0079209Y0168966D01*
X0078389Y0168146D01*
X0078389Y0168118D01*
X0077741Y0168766D01*
X0071463Y0168766D01*
X0070643Y0167946D01*
X0070643Y0163873D01*
X0064808Y0158038D01*
X0054389Y0158038D01*
X0051602Y0160826D01*
X0051602Y0186342D01*
X0052741Y0186342D01*
X0053561Y0187162D01*
X0053561Y0193046D01*
X0052741Y0193866D01*
X0051602Y0193866D01*
X0051602Y0195366D01*
X0054600Y0198365D01*
X0054600Y0190772D01*
X0059600Y0185772D01*
X0059600Y0181661D01*
X0059275Y0181849D01*
X0058868Y0181958D01*
X0056679Y0181958D01*
X0056679Y0178577D01*
X0055517Y0178577D01*
X0055517Y0177415D01*
X0056679Y0177415D01*
X0056679Y0174034D01*
X0058868Y0174034D01*
X0059275Y0174143D01*
X0059600Y0174331D01*
X0059600Y0171195D01*
X0057100Y0168766D01*
X0052959Y0168766D01*
X0052139Y0167946D01*
X0052139Y0162062D01*
X0052959Y0161242D01*
X0059237Y0161242D01*
X0060057Y0162062D01*
X0060057Y0166062D01*
X0062412Y0168350D01*
X0062428Y0168350D01*
X0063004Y0168926D01*
X0063588Y0169493D01*
X0063588Y0169510D01*
X0063600Y0169522D01*
X0063600Y0170336D01*
X0063612Y0171150D01*
X0063600Y0171162D01*
X0063600Y0187428D01*
X0062428Y0188600D01*
X0058600Y0192428D01*
X0058600Y0270815D01*
X0058629Y0270846D01*
X0058600Y0271637D01*
X0058600Y0272428D01*
X0058569Y0272459D01*
X0058568Y0272502D01*
X0057988Y0273041D01*
X0057428Y0273600D01*
X0057385Y0273600D01*
X0053561Y0277150D01*
X0053561Y0281038D01*
X0052741Y0281858D01*
X0046463Y0281858D01*
X0045643Y0281038D01*
X0045643Y0275385D01*
X0043600Y0277428D01*
X0043600Y0282100D01*
X0061424Y0282100D01*
X0067428Y0288104D01*
X0070643Y0288104D01*
X0070643Y0287162D01*
X0071463Y0286342D01*
X0075536Y0286342D01*
X0077536Y0284342D01*
X0086315Y0284342D01*
X0090078Y0288104D01*
X0096893Y0288104D01*
X0096893Y0287162D01*
X0097713Y0286342D01*
X0102631Y0286342D01*
X0104631Y0284342D01*
X0112565Y0284342D01*
X0116328Y0288104D01*
X0123143Y0288104D01*
X0123143Y0287162D01*
X0123963Y0286342D01*
X0128981Y0286342D01*
X0130981Y0284342D01*
X0138915Y0284342D01*
X0142678Y0288104D01*
X0149493Y0288104D01*
X0149493Y0287162D01*
X0150313Y0286342D01*
X0156591Y0286342D01*
X0157411Y0287162D01*
X0157411Y0288104D01*
X0158243Y0288104D01*
X0158648Y0287127D01*
X0159627Y0286148D01*
X0160907Y0285617D01*
X0162293Y0285617D01*
X0163573Y0286148D01*
X0164552Y0287127D01*
X0164600Y0287242D01*
X0164600Y0272909D01*
X0160699Y0268866D01*
X0156709Y0268866D01*
X0155889Y0268046D01*
X0155889Y0262162D01*
X0156709Y0261342D01*
X0162987Y0261342D01*
X0163807Y0262162D01*
X0163807Y0266327D01*
X0164728Y0267281D01*
X0164728Y0247812D01*
X0160782Y0243866D01*
X0156709Y0243866D01*
X0155889Y0243046D01*
X0155889Y0237162D01*
X0156709Y0236342D01*
X0162987Y0236342D01*
X0163807Y0237162D01*
X0163807Y0241235D01*
X0164728Y0242155D01*
X0164728Y0222812D01*
X0160782Y0218866D01*
X0156709Y0218866D01*
X0155889Y0218046D01*
X0155889Y0212162D01*
X0156709Y0211342D01*
X0162987Y0211342D01*
X0163807Y0212162D01*
X0163807Y0216235D01*
X0164600Y0217027D01*
X0164600Y0197684D01*
X0160782Y0193866D01*
X0156709Y0193866D01*
X0155889Y0193046D01*
X0155889Y0187162D01*
X0156709Y0186342D01*
X0162987Y0186342D01*
X0163807Y0187162D01*
X0163807Y0191235D01*
X0164600Y0192027D01*
X0164600Y0149928D01*
X0158538Y0143866D01*
X0156709Y0143866D01*
X0155889Y0143046D01*
X0155889Y0141217D01*
X0155604Y0140932D01*
X0155604Y0139276D01*
X0155889Y0138990D01*
X0155889Y0137162D01*
X0156709Y0136342D01*
X0162987Y0136342D01*
X0163807Y0137162D01*
X0163807Y0143046D01*
X0163591Y0143262D01*
X0167428Y0147100D01*
X0168600Y0148272D01*
X0168600Y0190516D01*
X0177418Y0199334D01*
X0178663Y0199334D01*
X0176352Y0197023D01*
X0176352Y0193866D01*
X0175213Y0193866D01*
X0174393Y0193046D01*
X0174393Y0187162D01*
X0175213Y0186342D01*
X0181491Y0186342D01*
X0182311Y0187162D01*
X0182311Y0193046D01*
X0181491Y0193866D01*
X0180352Y0193866D01*
X0180352Y0195366D01*
X0184311Y0199326D01*
X0184311Y0203801D01*
X0184687Y0203701D01*
X0187250Y0203701D01*
X0187250Y0207260D01*
X0183918Y0207260D01*
X0180352Y0210826D01*
X0180352Y0211342D01*
X0181491Y0211342D01*
X0182311Y0212162D01*
X0182311Y0213104D01*
X0183497Y0213104D01*
X0183497Y0212201D01*
X0183968Y0211730D01*
X0183915Y0211699D01*
X0183617Y0211401D01*
X0183406Y0211036D01*
X0183297Y0210630D01*
X0183297Y0208460D01*
X0187250Y0208460D01*
X0187250Y0207260D01*
X0188450Y0207260D01*
X0188450Y0208460D01*
X0192403Y0208460D01*
X0192403Y0210630D01*
X0192294Y0211036D01*
X0192083Y0211401D01*
X0191785Y0211699D01*
X0191732Y0211730D01*
X0192203Y0212201D01*
X0192203Y0218479D01*
X0191383Y0219299D01*
X0184317Y0219299D01*
X0183497Y0218479D01*
X0183497Y0217104D01*
X0182311Y0217104D01*
X0182311Y0218046D01*
X0181491Y0218866D01*
X0180352Y0218866D01*
X0180352Y0220366D01*
X0184311Y0224326D01*
X0184311Y0228801D01*
X0184687Y0228701D01*
X0187250Y0228701D01*
X0187250Y0232260D01*
X0183918Y0232260D01*
X0180352Y0235826D01*
X0180352Y0236342D01*
X0181491Y0236342D01*
X0182311Y0237162D01*
X0182311Y0238104D01*
X0183497Y0238104D01*
X0183497Y0237201D01*
X0183968Y0236730D01*
X0183915Y0236699D01*
X0183617Y0236401D01*
X0183406Y0236036D01*
X0183297Y0235630D01*
X0183297Y0233460D01*
X0187250Y0233460D01*
X0187250Y0232260D01*
X0188450Y0232260D01*
X0188450Y0233460D01*
X0192403Y0233460D01*
X0192403Y0235630D01*
X0192294Y0236036D01*
X0192083Y0236401D01*
X0191785Y0236699D01*
X0191732Y0236730D01*
X0192203Y0237201D01*
X0192203Y0243479D01*
X0191383Y0244299D01*
X0184317Y0244299D01*
X0183497Y0243479D01*
X0183497Y0242104D01*
X0182311Y0242104D01*
X0182311Y0243046D01*
X0181491Y0243866D01*
X0180352Y0243866D01*
X0180352Y0245366D01*
X0184311Y0249326D01*
X0184311Y0253801D01*
X0184687Y0253701D01*
X0187250Y0253701D01*
X0187250Y0257260D01*
X0183918Y0257260D01*
X0180352Y0260826D01*
X0180352Y0261342D01*
X0181491Y0261342D01*
X0182311Y0262162D01*
X0182311Y0263104D01*
X0183497Y0263104D01*
X0183497Y0262201D01*
X0183968Y0261730D01*
X0183915Y0261699D01*
X0183617Y0261401D01*
X0183406Y0261036D01*
X0183297Y0260630D01*
X0183297Y0258460D01*
X0187250Y0258460D01*
X0187250Y0257260D01*
X0188450Y0257260D01*
X0188450Y0258460D01*
X0192403Y0258460D01*
X0192403Y0260630D01*
X0192294Y0261036D01*
X0192083Y0261401D01*
X0191785Y0261699D01*
X0191732Y0261730D01*
X0192203Y0262201D01*
X0192203Y0268479D01*
X0191383Y0269299D01*
X0184317Y0269299D01*
X0183497Y0268479D01*
X0183497Y0267104D01*
X0182311Y0267104D01*
X0182311Y0268046D01*
X0181491Y0268866D01*
X0180445Y0268866D01*
X0184928Y0273350D01*
X0186100Y0274522D01*
X0186100Y0284928D01*
X0185970Y0285058D01*
X0187124Y0286211D01*
X0187900Y0288086D01*
X0187900Y0290114D01*
X0187124Y0291989D01*
X0185689Y0293424D01*
X0184056Y0294100D01*
X0185689Y0294776D01*
X0187124Y0296211D01*
X0187900Y0298086D01*
X0187900Y0300114D01*
X0187124Y0301989D01*
X0185689Y0303424D01*
X0184279Y0304008D01*
X0184834Y0304188D01*
X0185578Y0304567D01*
X0186253Y0305057D01*
X0186843Y0305647D01*
X0187333Y0306322D01*
X0187712Y0307066D01*
X0187969Y0307859D01*
X0188087Y0308600D01*
X0179600Y0308600D01*
X0179600Y0309600D01*
X0178600Y0309600D01*
X0178600Y0314400D01*
X0174983Y0314400D01*
X0174159Y0314269D01*
X0173366Y0314012D01*
X0172622Y0313633D01*
X0171947Y0313143D01*
X0171357Y0312553D01*
X0170867Y0311878D01*
X0170488Y0311134D01*
X0170230Y0310341D01*
X0170113Y0309600D01*
X0178600Y0309600D01*
X0178600Y0308600D01*
X0170113Y0308600D01*
X0170230Y0307859D01*
X0170488Y0307066D01*
X0170867Y0306322D01*
X0171357Y0305647D01*
X0171947Y0305057D01*
X0172622Y0304567D01*
X0173366Y0304188D01*
X0173921Y0304008D01*
X0172511Y0303424D01*
X0171076Y0301989D01*
X0170300Y0300114D01*
X0170300Y0298086D01*
X0171076Y0296211D01*
X0172511Y0294776D01*
X0174144Y0294100D01*
X0172511Y0293424D01*
X0171076Y0291989D01*
X0170300Y0290114D01*
X0170300Y0288086D01*
X0171076Y0286211D01*
X0172511Y0284776D01*
X0174386Y0284000D01*
X0181372Y0284000D01*
X0182100Y0283272D01*
X0182100Y0281249D01*
X0181491Y0281858D01*
X0175213Y0281858D01*
X0174393Y0281038D01*
X0174393Y0276965D01*
X0165900Y0268472D01*
X0165254Y0267827D01*
X0168027Y0270701D01*
X0168600Y0271274D01*
X0168600Y0271294D01*
X0168614Y0271309D01*
X0168600Y0272120D01*
X0168600Y0296178D01*
X0167428Y0297350D01*
X0159682Y0305096D01*
X0157411Y0305096D01*
X0157411Y0306038D01*
X0156591Y0306858D01*
X0150313Y0306858D01*
X0149493Y0306038D01*
X0149493Y0300154D01*
X0150313Y0299334D01*
X0156591Y0299334D01*
X0157411Y0300154D01*
X0157411Y0301096D01*
X0158026Y0301096D01*
X0164600Y0294522D01*
X0164600Y0290958D01*
X0164552Y0291073D01*
X0163573Y0292052D01*
X0162293Y0292583D01*
X0160907Y0292583D01*
X0159751Y0292104D01*
X0157411Y0292104D01*
X0157411Y0293046D01*
X0156591Y0293866D01*
X0150313Y0293866D01*
X0149493Y0293046D01*
X0149493Y0292104D01*
X0141021Y0292104D01*
X0139849Y0290932D01*
X0138907Y0289990D01*
X0138907Y0293046D01*
X0138087Y0293866D01*
X0134514Y0293866D01*
X0134448Y0293949D01*
X0134448Y0294080D01*
X0133943Y0294585D01*
X0133499Y0295144D01*
X0133369Y0295159D01*
X0129195Y0299334D01*
X0130241Y0299334D01*
X0130944Y0300037D01*
X0131109Y0299751D01*
X0131407Y0299454D01*
X0131771Y0299243D01*
X0132178Y0299134D01*
X0134367Y0299134D01*
X0134367Y0302515D01*
X0135529Y0302515D01*
X0135529Y0299134D01*
X0137718Y0299134D01*
X0138125Y0299243D01*
X0138490Y0299454D01*
X0138787Y0299751D01*
X0138998Y0300116D01*
X0139107Y0300523D01*
X0139107Y0302515D01*
X0135529Y0302515D01*
X0135529Y0303677D01*
X0134367Y0303677D01*
X0134367Y0307058D01*
X0132178Y0307058D01*
X0131771Y0306949D01*
X0131407Y0306739D01*
X0131109Y0306441D01*
X0130944Y0306155D01*
X0130241Y0306858D01*
X0123963Y0306858D01*
X0123143Y0306038D01*
X0123143Y0300154D01*
X0123963Y0299334D01*
X0124600Y0299334D01*
X0124600Y0298272D01*
X0129005Y0293866D01*
X0123963Y0293866D01*
X0123143Y0293046D01*
X0123143Y0292104D01*
X0114671Y0292104D01*
X0113499Y0290932D01*
X0112557Y0289990D01*
X0112557Y0293046D01*
X0111737Y0293866D01*
X0109348Y0293866D01*
X0109348Y0294180D01*
X0109062Y0294466D01*
X0108917Y0294843D01*
X0108499Y0295029D01*
X0104093Y0299436D01*
X0104630Y0299973D01*
X0104759Y0299751D01*
X0105057Y0299454D01*
X0105421Y0299243D01*
X0105828Y0299134D01*
X0108017Y0299134D01*
X0108017Y0302515D01*
X0109179Y0302515D01*
X0109179Y0299134D01*
X0111368Y0299134D01*
X0111775Y0299243D01*
X0112140Y0299454D01*
X0112437Y0299751D01*
X0112648Y0300116D01*
X0112757Y0300523D01*
X0112757Y0302515D01*
X0109179Y0302515D01*
X0109179Y0303677D01*
X0108017Y0303677D01*
X0108017Y0307058D01*
X0105828Y0307058D01*
X0105421Y0306949D01*
X0105057Y0306739D01*
X0104759Y0306441D01*
X0104630Y0306219D01*
X0103991Y0306858D01*
X0097713Y0306858D01*
X0096893Y0306038D01*
X0096893Y0300154D01*
X0097713Y0299334D01*
X0099600Y0299334D01*
X0099600Y0298272D01*
X0104732Y0293139D01*
X0104725Y0293132D01*
X0103991Y0293866D01*
X0097713Y0293866D01*
X0096893Y0293046D01*
X0096893Y0292104D01*
X0088421Y0292104D01*
X0086307Y0289990D01*
X0086307Y0293046D01*
X0085487Y0293866D01*
X0084348Y0293866D01*
X0084348Y0294180D01*
X0079327Y0299201D01*
X0079578Y0299134D01*
X0081767Y0299134D01*
X0081767Y0302515D01*
X0082929Y0302515D01*
X0082929Y0299134D01*
X0085118Y0299134D01*
X0085525Y0299243D01*
X0085890Y0299454D01*
X0086187Y0299751D01*
X0086398Y0300116D01*
X0086507Y0300523D01*
X0086507Y0302515D01*
X0082929Y0302515D01*
X0082929Y0303677D01*
X0081767Y0303677D01*
X0081767Y0307058D01*
X0079578Y0307058D01*
X0079171Y0306949D01*
X0078807Y0306739D01*
X0078509Y0306441D01*
X0078380Y0306219D01*
X0077741Y0306858D01*
X0071463Y0306858D01*
X0070643Y0306038D01*
X0070643Y0300154D01*
X0071463Y0299334D01*
X0073852Y0299334D01*
X0073852Y0299020D01*
X0074138Y0298734D01*
X0074283Y0298357D01*
X0074700Y0298171D01*
X0079107Y0293764D01*
X0078475Y0293132D01*
X0077741Y0293866D01*
X0071463Y0293866D01*
X0070643Y0293046D01*
X0070643Y0292104D01*
X0065772Y0292104D01*
X0064600Y0290932D01*
X0059768Y0286100D01*
X0042012Y0286100D01*
X0042124Y0286211D01*
X0042900Y0288086D01*
X0042900Y0290114D01*
X0042124Y0291989D01*
X0040689Y0293424D01*
X0039056Y0294100D01*
X0040689Y0294776D01*
X0041753Y0295840D01*
X0043497Y0295840D01*
X0043497Y0294701D01*
X0044098Y0294100D01*
X0043497Y0293499D01*
X0043497Y0287221D01*
X0044317Y0286401D01*
X0051383Y0286401D01*
X0052141Y0287159D01*
X0052959Y0286342D01*
X0059237Y0286342D01*
X0060057Y0287162D01*
X0060057Y0293046D01*
X0059237Y0293866D01*
X0052959Y0293866D01*
X0052203Y0293110D01*
X0052203Y0293499D01*
X0051602Y0294100D01*
X0052203Y0294701D01*
X0052203Y0299848D01*
X0052259Y0299751D01*
X0052557Y0299454D01*
X0052921Y0299243D01*
X0053328Y0299134D01*
X0055517Y0299134D01*
X0055517Y0302515D01*
X0056679Y0302515D01*
X0056679Y0299134D01*
X0058868Y0299134D01*
X0059275Y0299243D01*
X0059640Y0299454D01*
X0059937Y0299751D01*
X0060148Y0300116D01*
X0060257Y0300523D01*
X0060257Y0302515D01*
X0056679Y0302515D01*
X0056679Y0303677D01*
X0055517Y0303677D01*
X0055517Y0302515D01*
X0051939Y0302515D01*
X0051939Y0301243D01*
X0051383Y0301799D01*
X0044317Y0301799D01*
X0043497Y0300979D01*
X0043497Y0299840D01*
X0042900Y0299840D01*
X0042900Y0300114D01*
X0042124Y0301989D01*
X0040689Y0303424D01*
X0039279Y0304008D01*
X0039834Y0304188D01*
X0040578Y0304567D01*
X0041253Y0305057D01*
X0041843Y0305647D01*
X0042333Y0306322D01*
X0042712Y0307066D01*
X0042969Y0307859D01*
X0043087Y0308600D01*
X0034600Y0308600D01*
X0034600Y0309600D01*
X0033600Y0309600D01*
X0033600Y0314400D01*
X0029983Y0314400D01*
X0029159Y0314269D01*
X0028366Y0314012D01*
X0027622Y0313633D01*
X0026947Y0313143D01*
X0026357Y0312553D01*
X0025867Y0311878D01*
X0025488Y0311134D01*
X0025230Y0310341D01*
X0025113Y0309600D01*
X0033600Y0309600D01*
X0033600Y0308600D01*
X0025113Y0308600D01*
X0025230Y0307859D01*
X0025488Y0307066D01*
X0025867Y0306322D01*
X0026357Y0305647D01*
X0026947Y0305057D01*
X0027622Y0304567D01*
X0028366Y0304188D01*
X0028921Y0304008D01*
X0027511Y0303424D01*
X0026076Y0301989D01*
X0025300Y0300114D01*
X0025300Y0298086D01*
X0026076Y0296211D01*
X0027511Y0294776D01*
X0029144Y0294100D01*
X0027511Y0293424D01*
X0026076Y0291989D01*
X0025300Y0290114D01*
X0025300Y0288086D01*
X0026076Y0286211D01*
X0027511Y0284776D01*
X0029386Y0284000D01*
X0036372Y0284000D01*
X0037100Y0283272D01*
X0037100Y0283272D01*
X0038272Y0282100D01*
X0039600Y0280772D01*
X0039600Y0275772D01*
X0046505Y0268866D01*
X0046463Y0268866D01*
X0045643Y0268046D01*
X0045643Y0262162D01*
X0046463Y0261342D01*
X0047602Y0261342D01*
X0047602Y0259169D01*
X0049913Y0256858D01*
X0046463Y0256858D01*
X0045643Y0256038D01*
X0045643Y0255096D01*
X0045127Y0255096D01*
X0035057Y0264217D01*
X0035057Y0268046D01*
X0034237Y0268866D01*
X0027959Y0268866D01*
X0027139Y0268046D01*
X0027139Y0262162D01*
X0027959Y0261342D01*
X0032273Y0261342D01*
X0042977Y0251647D01*
X0043527Y0251096D01*
X0043585Y0251096D01*
X0043627Y0251058D01*
X0044405Y0251096D01*
X0045643Y0251096D01*
X0045643Y0250154D01*
X0046463Y0249334D01*
X0049913Y0249334D01*
X0047602Y0247023D01*
X0047602Y0243866D01*
X0046463Y0243866D01*
X0045643Y0243046D01*
X0045643Y0237162D01*
X0046463Y0236342D01*
X0047602Y0236342D01*
X0047602Y0234169D01*
X0049913Y0231858D01*
X0046463Y0231858D01*
X0045643Y0231038D01*
X0045643Y0230096D01*
X0045127Y0230096D01*
X0035057Y0239217D01*
X0035057Y0243046D01*
X0034237Y0243866D01*
X0027959Y0243866D01*
X0027139Y0243046D01*
X0027139Y0237162D01*
X0027959Y0236342D01*
X0032273Y0236342D01*
X0042977Y0226647D01*
X0043527Y0226096D01*
X0043585Y0226096D01*
X0043627Y0226058D01*
X0044405Y0226096D01*
X0045643Y0226096D01*
X0045643Y0225154D01*
X0046463Y0224334D01*
X0049913Y0224334D01*
X0047602Y0222023D01*
X0047602Y0218866D01*
X0046463Y0218866D01*
X0045643Y0218046D01*
X0045643Y0212162D01*
X0046463Y0211342D01*
X0047602Y0211342D01*
X0047602Y0209169D01*
X0049913Y0206858D01*
X0046463Y0206858D01*
X0045643Y0206038D01*
X0045643Y0205096D01*
X0045127Y0205096D01*
X0035057Y0214217D01*
X0035057Y0218046D01*
X0034237Y0218866D01*
X0027959Y0218866D01*
X0027139Y0218046D01*
X0027139Y0212162D01*
X0027959Y0211342D01*
X0032273Y0211342D01*
X0042977Y0201647D01*
X0043527Y0201096D01*
X0043585Y0201096D01*
X0043627Y0201058D01*
X0044405Y0201096D01*
X0045643Y0201096D01*
X0045643Y0200154D01*
X0046463Y0199334D01*
X0049913Y0199334D01*
X0047602Y0197023D01*
X0047602Y0193866D01*
X0046463Y0193866D01*
X0045643Y0193046D01*
X0045643Y0187162D01*
X0046463Y0186342D01*
X0047602Y0186342D01*
X0047602Y0182176D01*
X0037674Y0192104D01*
X0035057Y0192104D01*
X0035057Y0193046D01*
X0034237Y0193866D01*
X0027959Y0193866D01*
X0027139Y0193046D01*
X0027139Y0187162D01*
X0027959Y0186342D01*
X0034237Y0186342D01*
X0035057Y0187162D01*
X0035057Y0188104D01*
X0036018Y0188104D01*
X0045602Y0178520D01*
X0045602Y0158340D01*
X0047084Y0156858D01*
X0046463Y0156858D01*
X0045643Y0156038D01*
X0045643Y0150154D01*
X0046463Y0149334D01*
X0049913Y0149334D01*
X0047602Y0147023D01*
X0047602Y0143866D01*
X0046463Y0143866D01*
X0045643Y0143046D01*
X0045643Y0137162D01*
X0046463Y0136342D01*
X0047602Y0136342D01*
X0047602Y0134169D01*
X0049913Y0131858D01*
X0046463Y0131858D01*
X0045643Y0131038D01*
X0045643Y0130096D01*
X0045127Y0130096D01*
X0035057Y0139217D01*
X0035057Y0143046D01*
X0034237Y0143866D01*
X0027959Y0143866D01*
X0027139Y0143046D01*
X0027139Y0137162D01*
X0027959Y0136342D01*
X0032273Y0136342D01*
X0042977Y0126647D01*
X0043527Y0126096D01*
X0043585Y0126096D01*
X0043627Y0126058D01*
X0044405Y0126096D01*
X0045643Y0126096D01*
X0045643Y0125154D01*
X0046463Y0124334D01*
X0049913Y0124334D01*
X0047602Y0122023D01*
X0047602Y0118866D01*
X0046463Y0118866D01*
X0045643Y0118046D01*
X0045643Y0112162D01*
X0046463Y0111342D01*
X0047602Y0111342D01*
X0047602Y0109169D01*
X0049913Y0106858D01*
X0046463Y0106858D01*
X0045643Y0106038D01*
X0045643Y0105096D01*
X0045127Y0105096D01*
X0035057Y0114217D01*
X0035057Y0118046D01*
X0034237Y0118866D01*
X0027959Y0118866D01*
X0027139Y0118046D01*
X0027139Y0112162D01*
X0027959Y0111342D01*
X0032273Y0111342D01*
X0042977Y0101647D01*
X0043527Y0101096D01*
X0043585Y0101096D01*
X0043627Y0101058D01*
X0044405Y0101096D01*
X0045643Y0101096D01*
X0045643Y0100154D01*
X0046463Y0099334D01*
X0049913Y0099334D01*
X0047602Y0097023D01*
X0047602Y0093866D01*
X0046463Y0093866D01*
X0045643Y0093046D01*
X0045643Y0087162D01*
X0046463Y0086342D01*
X0047602Y0086342D01*
X0047602Y0084169D01*
X0049913Y0081858D01*
X0046463Y0081858D01*
X0045643Y0081038D01*
X0045643Y0080096D01*
X0045127Y0080096D01*
X0035057Y0089217D01*
X0035057Y0093046D01*
X0034237Y0093866D01*
X0027959Y0093866D01*
X0027139Y0093046D01*
X0027139Y0087162D01*
X0027959Y0086342D01*
X0032273Y0086342D01*
X0042977Y0076647D01*
X0043527Y0076096D01*
X0043585Y0076096D01*
X0043627Y0076058D01*
X0044405Y0076096D01*
X0045643Y0076096D01*
X0045643Y0075154D01*
X0046463Y0074334D01*
X0049913Y0074334D01*
X0047602Y0072023D01*
X0047602Y0068866D01*
X0046463Y0068866D01*
X0045643Y0068046D01*
X0045643Y0062162D01*
X0046463Y0061342D01*
X0046918Y0061342D01*
X0046649Y0061073D01*
X0046119Y0059793D01*
X0046119Y0058407D01*
X0046649Y0057127D01*
X0047629Y0056148D01*
X0046464Y0057575D02*
X0035953Y0057575D01*
X0034755Y0058774D02*
X0046119Y0058774D01*
X0046194Y0059972D02*
X0033600Y0059972D01*
X0033600Y0061171D02*
X0046747Y0061171D01*
X0045643Y0062369D02*
X0035057Y0062369D01*
X0035057Y0063568D02*
X0045643Y0063568D01*
X0045643Y0064766D02*
X0035057Y0064766D01*
X0035057Y0065965D02*
X0045643Y0065965D01*
X0045643Y0067163D02*
X0035057Y0067163D01*
X0034741Y0068362D02*
X0045959Y0068362D01*
X0047602Y0069560D02*
X0018800Y0069560D01*
X0018800Y0068362D02*
X0027455Y0068362D01*
X0027139Y0067163D02*
X0018800Y0067163D01*
X0018800Y0065965D02*
X0027139Y0065965D01*
X0028328Y0074134D02*
X0030517Y0074134D01*
X0030517Y0077515D01*
X0031679Y0077515D01*
X0031679Y0074134D01*
X0033868Y0074134D01*
X0034275Y0074243D01*
X0034640Y0074454D01*
X0034937Y0074751D01*
X0035148Y0075116D01*
X0035257Y0075523D01*
X0035257Y0077515D01*
X0031679Y0077515D01*
X0031679Y0078677D01*
X0030517Y0078677D01*
X0030517Y0077515D01*
X0026939Y0077515D01*
X0026939Y0075523D01*
X0027048Y0075116D01*
X0027259Y0074751D01*
X0027557Y0074454D01*
X0027921Y0074243D01*
X0028328Y0074134D01*
X0027728Y0074354D02*
X0018800Y0074354D01*
X0018800Y0073156D02*
X0048735Y0073156D01*
X0047602Y0071957D02*
X0018800Y0071957D01*
X0018800Y0070759D02*
X0047602Y0070759D01*
X0049602Y0071195D02*
X0053561Y0075154D01*
X0053561Y0081038D01*
X0049602Y0084997D01*
X0049602Y0090104D01*
X0049602Y0096195D01*
X0053561Y0100154D01*
X0053561Y0106038D01*
X0049602Y0109997D01*
X0049602Y0115104D01*
X0049602Y0121195D01*
X0053561Y0125154D01*
X0053561Y0131038D01*
X0049602Y0134997D01*
X0049602Y0140104D01*
X0049602Y0146195D01*
X0053561Y0150154D01*
X0053561Y0156038D01*
X0065636Y0156038D01*
X0074602Y0165004D01*
X0075852Y0164799D01*
X0079209Y0161442D01*
X0086600Y0161442D01*
X0090362Y0165204D01*
X0100852Y0165204D01*
X0101597Y0165204D01*
X0105459Y0161342D01*
X0111737Y0161342D01*
X0115499Y0165104D01*
X0127102Y0165104D01*
X0127947Y0165104D01*
X0131709Y0161342D01*
X0137987Y0161342D01*
X0141749Y0165104D01*
X0153352Y0165104D01*
X0155104Y0165104D01*
X0157311Y0165441D02*
X0164600Y0165441D01*
X0164600Y0164243D02*
X0157311Y0164243D01*
X0157311Y0163044D02*
X0164600Y0163044D01*
X0164600Y0161846D02*
X0156995Y0161846D01*
X0157078Y0157058D02*
X0156671Y0156949D01*
X0156307Y0156739D01*
X0156009Y0156441D01*
X0155798Y0156076D01*
X0155689Y0155669D01*
X0155689Y0153677D01*
X0159267Y0153677D01*
X0159267Y0152515D01*
X0160429Y0152515D01*
X0160429Y0149134D01*
X0162618Y0149134D01*
X0163025Y0149243D01*
X0163390Y0149454D01*
X0163687Y0149751D01*
X0163898Y0150116D01*
X0164007Y0150523D01*
X0164007Y0152515D01*
X0160429Y0152515D01*
X0160429Y0153677D01*
X0159267Y0153677D01*
X0159267Y0157058D01*
X0157078Y0157058D01*
X0157054Y0157052D02*
X0144260Y0157052D01*
X0145458Y0155853D02*
X0155738Y0155853D01*
X0155689Y0154655D02*
X0146657Y0154655D01*
X0147855Y0153456D02*
X0159267Y0153456D01*
X0159267Y0152515D02*
X0155689Y0152515D01*
X0155689Y0150523D01*
X0155798Y0150116D01*
X0156009Y0149751D01*
X0156307Y0149454D01*
X0156671Y0149243D01*
X0157078Y0149134D01*
X0159267Y0149134D01*
X0159267Y0152515D01*
X0159267Y0152258D02*
X0160429Y0152258D01*
X0160429Y0153456D02*
X0164600Y0153456D01*
X0164007Y0153677D02*
X0164007Y0155669D01*
X0163898Y0156076D01*
X0163687Y0156441D01*
X0163390Y0156739D01*
X0163025Y0156949D01*
X0162618Y0157058D01*
X0160429Y0157058D01*
X0160429Y0153677D01*
X0164007Y0153677D01*
X0164007Y0154655D02*
X0164600Y0154655D01*
X0164600Y0155853D02*
X0163958Y0155853D01*
X0164600Y0157052D02*
X0162642Y0157052D01*
X0160429Y0157052D02*
X0159267Y0157052D01*
X0159267Y0155853D02*
X0160429Y0155853D01*
X0160429Y0154655D02*
X0159267Y0154655D01*
X0159267Y0151059D02*
X0160429Y0151059D01*
X0160429Y0149861D02*
X0159267Y0149861D01*
X0162135Y0147464D02*
X0153800Y0147464D01*
X0153800Y0146265D02*
X0160937Y0146265D01*
X0159738Y0145067D02*
X0153800Y0145067D01*
X0153800Y0143868D02*
X0158540Y0143868D01*
X0157604Y0140104D02*
X0159848Y0140104D01*
X0157604Y0140104D02*
X0166600Y0149100D01*
X0166600Y0191344D01*
X0178352Y0203096D01*
X0178328Y0199000D02*
X0177084Y0199000D01*
X0177130Y0197801D02*
X0175885Y0197801D01*
X0176352Y0196603D02*
X0174687Y0196603D01*
X0173488Y0195404D02*
X0176352Y0195404D01*
X0176352Y0194205D02*
X0172290Y0194205D01*
X0171091Y0193007D02*
X0174393Y0193007D01*
X0174393Y0191808D02*
X0169893Y0191808D01*
X0168694Y0190610D02*
X0174393Y0190610D01*
X0174393Y0189411D02*
X0168600Y0189411D01*
X0168600Y0188213D02*
X0174393Y0188213D01*
X0174540Y0187014D02*
X0168600Y0187014D01*
X0168600Y0185816D02*
X0194400Y0185816D01*
X0194400Y0187014D02*
X0182164Y0187014D01*
X0182311Y0188213D02*
X0194400Y0188213D01*
X0194400Y0189411D02*
X0182311Y0189411D01*
X0182311Y0190610D02*
X0194400Y0190610D01*
X0194400Y0191808D02*
X0182311Y0191808D01*
X0182311Y0193007D02*
X0194400Y0193007D01*
X0194400Y0194205D02*
X0180352Y0194205D01*
X0180389Y0195404D02*
X0194400Y0195404D01*
X0194400Y0196603D02*
X0181588Y0196603D01*
X0182787Y0197801D02*
X0194400Y0197801D01*
X0194400Y0199000D02*
X0183985Y0199000D01*
X0184311Y0200198D02*
X0194400Y0200198D01*
X0194400Y0201397D02*
X0184311Y0201397D01*
X0184311Y0202595D02*
X0194400Y0202595D01*
X0194400Y0203794D02*
X0191360Y0203794D01*
X0191420Y0203810D02*
X0191785Y0204020D01*
X0192083Y0204318D01*
X0192294Y0204683D01*
X0192403Y0205090D01*
X0192403Y0207260D01*
X0188450Y0207260D01*
X0188450Y0203701D01*
X0191013Y0203701D01*
X0191420Y0203810D01*
X0192376Y0204992D02*
X0194400Y0204992D01*
X0194400Y0206191D02*
X0192403Y0206191D01*
X0194400Y0207389D02*
X0188450Y0207389D01*
X0188450Y0206191D02*
X0187250Y0206191D01*
X0187250Y0207389D02*
X0183788Y0207389D01*
X0183297Y0208588D02*
X0182590Y0208588D01*
X0183297Y0209786D02*
X0181391Y0209786D01*
X0180352Y0210985D02*
X0183392Y0210985D01*
X0183515Y0212183D02*
X0182311Y0212183D01*
X0178352Y0209997D02*
X0182311Y0206038D01*
X0182311Y0200154D01*
X0178352Y0196195D01*
X0178352Y0190104D01*
X0168600Y0184617D02*
X0194400Y0184617D01*
X0194400Y0183419D02*
X0168600Y0183419D01*
X0168600Y0182220D02*
X0194109Y0182220D01*
X0192911Y0181022D02*
X0168600Y0181022D01*
X0168600Y0179823D02*
X0191712Y0179823D01*
X0190514Y0178625D02*
X0168600Y0178625D01*
X0168600Y0177426D02*
X0173419Y0177426D01*
X0172861Y0177195D02*
X0171005Y0175339D01*
X0170000Y0172913D01*
X0170000Y0170287D01*
X0171005Y0167861D01*
X0172861Y0166005D01*
X0175287Y0165000D01*
X0177913Y0165000D01*
X0180339Y0166005D01*
X0182195Y0167861D01*
X0183200Y0170287D01*
X0183200Y0172913D01*
X0182195Y0175339D01*
X0180339Y0177195D01*
X0177913Y0178200D01*
X0175287Y0178200D01*
X0172861Y0177195D01*
X0171894Y0176228D02*
X0168600Y0176228D01*
X0168600Y0175029D02*
X0170877Y0175029D01*
X0170380Y0173831D02*
X0168600Y0173831D01*
X0168600Y0172632D02*
X0170000Y0172632D01*
X0170000Y0171434D02*
X0168600Y0171434D01*
X0168600Y0170235D02*
X0170021Y0170235D01*
X0170518Y0169037D02*
X0168600Y0169037D01*
X0168600Y0167838D02*
X0171028Y0167838D01*
X0172226Y0166640D02*
X0168600Y0166640D01*
X0168600Y0165441D02*
X0174222Y0165441D01*
X0178978Y0165441D02*
X0189647Y0165441D01*
X0188449Y0166640D02*
X0180974Y0166640D01*
X0182172Y0167838D02*
X0187250Y0167838D01*
X0186052Y0169037D02*
X0182682Y0169037D01*
X0183178Y0170235D02*
X0184853Y0170235D01*
X0184400Y0171434D02*
X0183200Y0171434D01*
X0183200Y0172632D02*
X0184521Y0172632D01*
X0185720Y0173831D02*
X0182820Y0173831D01*
X0182323Y0175029D02*
X0186918Y0175029D01*
X0188117Y0176228D02*
X0181306Y0176228D01*
X0179781Y0177426D02*
X0189315Y0177426D01*
X0190846Y0164243D02*
X0168600Y0164243D01*
X0168600Y0163044D02*
X0192045Y0163044D01*
X0193243Y0161846D02*
X0168600Y0161846D01*
X0168600Y0160647D02*
X0194400Y0160647D01*
X0194400Y0159449D02*
X0168600Y0159449D01*
X0168600Y0158250D02*
X0194400Y0158250D01*
X0194400Y0157052D02*
X0168600Y0157052D01*
X0168600Y0155853D02*
X0174393Y0155853D01*
X0174393Y0154655D02*
X0168600Y0154655D01*
X0168600Y0153456D02*
X0174393Y0153456D01*
X0174393Y0152258D02*
X0168600Y0152258D01*
X0168600Y0151059D02*
X0173487Y0151059D01*
X0172288Y0149861D02*
X0168600Y0149861D01*
X0168600Y0148662D02*
X0171090Y0148662D01*
X0169891Y0147464D02*
X0167792Y0147464D01*
X0168693Y0146265D02*
X0166593Y0146265D01*
X0167494Y0145067D02*
X0165395Y0145067D01*
X0166296Y0143868D02*
X0164196Y0143868D01*
X0163807Y0142670D02*
X0165097Y0142670D01*
X0164600Y0141471D02*
X0163807Y0141471D01*
X0163807Y0140272D02*
X0164600Y0140272D01*
X0164600Y0139074D02*
X0163807Y0139074D01*
X0163807Y0137875D02*
X0164600Y0137875D01*
X0164600Y0136677D02*
X0163322Y0136677D01*
X0164600Y0135478D02*
X0153800Y0135478D01*
X0153800Y0134280D02*
X0164600Y0134280D01*
X0164600Y0133081D02*
X0153800Y0133081D01*
X0153800Y0131883D02*
X0156557Y0131883D01*
X0156671Y0131949D02*
X0156307Y0131739D01*
X0156009Y0131441D01*
X0155798Y0131076D01*
X0155689Y0130669D01*
X0155689Y0128677D01*
X0159267Y0128677D01*
X0159267Y0127515D01*
X0160429Y0127515D01*
X0160429Y0124134D01*
X0162618Y0124134D01*
X0163025Y0124243D01*
X0163390Y0124454D01*
X0163687Y0124751D01*
X0163898Y0125116D01*
X0164007Y0125523D01*
X0164007Y0127515D01*
X0160429Y0127515D01*
X0160429Y0128677D01*
X0159267Y0128677D01*
X0159267Y0132058D01*
X0157078Y0132058D01*
X0156671Y0131949D01*
X0155693Y0130684D02*
X0153800Y0130684D01*
X0153800Y0129486D02*
X0155689Y0129486D01*
X0155689Y0127515D02*
X0155689Y0125523D01*
X0155798Y0125116D01*
X0156009Y0124751D01*
X0156307Y0124454D01*
X0156671Y0124243D01*
X0157078Y0124134D01*
X0159267Y0124134D01*
X0159267Y0127515D01*
X0155689Y0127515D01*
X0155689Y0127089D02*
X0153800Y0127089D01*
X0153800Y0128287D02*
X0159267Y0128287D01*
X0160429Y0128287D02*
X0164600Y0128287D01*
X0164007Y0128677D02*
X0164007Y0130669D01*
X0163898Y0131076D01*
X0163687Y0131441D01*
X0163390Y0131739D01*
X0163025Y0131949D01*
X0162618Y0132058D01*
X0160429Y0132058D01*
X0160429Y0128677D01*
X0164007Y0128677D01*
X0164007Y0129486D02*
X0164600Y0129486D01*
X0164600Y0130684D02*
X0164003Y0130684D01*
X0164600Y0131883D02*
X0163140Y0131883D01*
X0164007Y0127089D02*
X0164600Y0127089D01*
X0164600Y0125890D02*
X0164007Y0125890D01*
X0163628Y0124692D02*
X0164600Y0124692D01*
X0164600Y0123493D02*
X0153800Y0123493D01*
X0153800Y0122295D02*
X0164210Y0122295D01*
X0163012Y0121096D02*
X0153800Y0121096D01*
X0153800Y0119898D02*
X0161813Y0119898D01*
X0163875Y0116302D02*
X0164600Y0116302D01*
X0164600Y0115104D02*
X0163807Y0115104D01*
X0163807Y0113905D02*
X0164600Y0113905D01*
X0164600Y0112707D02*
X0163807Y0112707D01*
X0163153Y0111508D02*
X0164600Y0111508D01*
X0164600Y0110310D02*
X0153800Y0110310D01*
X0153800Y0111508D02*
X0156543Y0111508D01*
X0155889Y0112707D02*
X0153800Y0112707D01*
X0153800Y0113905D02*
X0155889Y0113905D01*
X0155889Y0115104D02*
X0153800Y0115104D01*
X0153800Y0116302D02*
X0155889Y0116302D01*
X0155889Y0117501D02*
X0153800Y0117501D01*
X0153800Y0118699D02*
X0156542Y0118699D01*
X0159848Y0115104D02*
X0166600Y0121856D01*
X0166600Y0141344D01*
X0178352Y0153096D01*
X0176746Y0148662D02*
X0194400Y0148662D01*
X0194400Y0147464D02*
X0175548Y0147464D01*
X0174349Y0146265D02*
X0194400Y0146265D01*
X0194400Y0145067D02*
X0173151Y0145067D01*
X0171952Y0143868D02*
X0183886Y0143868D01*
X0183497Y0142670D02*
X0182311Y0142670D01*
X0182311Y0137875D02*
X0183497Y0137875D01*
X0183893Y0136677D02*
X0181826Y0136677D01*
X0180699Y0135478D02*
X0183297Y0135478D01*
X0183297Y0134280D02*
X0181898Y0134280D01*
X0183096Y0133081D02*
X0187250Y0133081D01*
X0187250Y0131883D02*
X0188450Y0131883D01*
X0188450Y0132260D02*
X0188450Y0128701D01*
X0191013Y0128701D01*
X0191420Y0128810D01*
X0191785Y0129020D01*
X0192083Y0129318D01*
X0192294Y0129683D01*
X0192403Y0130090D01*
X0192403Y0132260D01*
X0188450Y0132260D01*
X0188450Y0133081D02*
X0194400Y0133081D01*
X0194400Y0131883D02*
X0192403Y0131883D01*
X0192403Y0130684D02*
X0194400Y0130684D01*
X0194400Y0129486D02*
X0192180Y0129486D01*
X0194400Y0128287D02*
X0184311Y0128287D01*
X0184311Y0127089D02*
X0194400Y0127089D01*
X0194400Y0125890D02*
X0184311Y0125890D01*
X0184311Y0124692D02*
X0194400Y0124692D01*
X0194400Y0123493D02*
X0183479Y0123493D01*
X0182280Y0122295D02*
X0194400Y0122295D01*
X0194400Y0121096D02*
X0181082Y0121096D01*
X0180352Y0119898D02*
X0194400Y0119898D01*
X0194400Y0118699D02*
X0191983Y0118699D01*
X0192203Y0117501D02*
X0194400Y0117501D01*
X0194400Y0116302D02*
X0192203Y0116302D01*
X0192203Y0115104D02*
X0194400Y0115104D01*
X0194400Y0113905D02*
X0192203Y0113905D01*
X0192203Y0112707D02*
X0194400Y0112707D01*
X0194400Y0111508D02*
X0191976Y0111508D01*
X0192403Y0110310D02*
X0194400Y0110310D01*
X0194400Y0109111D02*
X0192403Y0109111D01*
X0192403Y0107260D02*
X0188450Y0107260D01*
X0188450Y0103701D01*
X0191013Y0103701D01*
X0191420Y0103810D01*
X0191785Y0104020D01*
X0192083Y0104318D01*
X0192294Y0104683D01*
X0192403Y0105090D01*
X0192403Y0107260D01*
X0192403Y0106714D02*
X0194400Y0106714D01*
X0194400Y0105516D02*
X0192403Y0105516D01*
X0192082Y0104317D02*
X0194400Y0104317D01*
X0194400Y0103119D02*
X0184311Y0103119D01*
X0184311Y0101920D02*
X0194400Y0101920D01*
X0194400Y0100722D02*
X0184311Y0100722D01*
X0184311Y0099523D02*
X0194400Y0099523D01*
X0194400Y0098325D02*
X0183310Y0098325D01*
X0182112Y0097126D02*
X0194400Y0097126D01*
X0194400Y0095928D02*
X0180913Y0095928D01*
X0180352Y0094729D02*
X0194400Y0094729D01*
X0194400Y0093531D02*
X0192151Y0093531D01*
X0192203Y0092332D02*
X0194400Y0092332D01*
X0194400Y0091134D02*
X0192203Y0091134D01*
X0192203Y0089935D02*
X0194400Y0089935D01*
X0194400Y0088737D02*
X0192203Y0088737D01*
X0192203Y0087538D02*
X0194400Y0087538D01*
X0194400Y0086339D02*
X0192119Y0086339D01*
X0192403Y0085141D02*
X0194400Y0085141D01*
X0194400Y0083942D02*
X0192403Y0083942D01*
X0192403Y0082260D02*
X0188450Y0082260D01*
X0188450Y0078701D01*
X0191013Y0078701D01*
X0191420Y0078810D01*
X0191785Y0079020D01*
X0192083Y0079318D01*
X0192294Y0079683D01*
X0192403Y0080090D01*
X0192403Y0082260D01*
X0192403Y0081545D02*
X0194400Y0081545D01*
X0194400Y0080347D02*
X0192403Y0080347D01*
X0191913Y0079148D02*
X0194400Y0079148D01*
X0194400Y0077950D02*
X0184311Y0077950D01*
X0184311Y0076751D02*
X0194400Y0076751D01*
X0194400Y0075553D02*
X0184311Y0075553D01*
X0184311Y0074354D02*
X0194400Y0074354D01*
X0194400Y0073156D02*
X0183141Y0073156D01*
X0181943Y0071957D02*
X0194400Y0071957D01*
X0194400Y0070759D02*
X0180744Y0070759D01*
X0180352Y0069560D02*
X0194400Y0069560D01*
X0194400Y0068362D02*
X0181995Y0068362D01*
X0178352Y0071195D02*
X0182311Y0075154D01*
X0182311Y0081038D01*
X0178352Y0084997D01*
X0178352Y0090104D01*
X0187614Y0090104D01*
X0187850Y0090340D01*
X0183497Y0092332D02*
X0182311Y0092332D01*
X0181827Y0093531D02*
X0183549Y0093531D01*
X0178352Y0096195D02*
X0182311Y0100154D01*
X0182311Y0106038D01*
X0178352Y0109997D01*
X0178352Y0115104D01*
X0187614Y0115104D01*
X0187850Y0115340D01*
X0183497Y0117501D02*
X0182311Y0117501D01*
X0181658Y0118699D02*
X0183717Y0118699D01*
X0178352Y0121195D02*
X0182311Y0125154D01*
X0182311Y0131038D01*
X0178352Y0134997D01*
X0178352Y0140104D01*
X0187614Y0140104D01*
X0187850Y0140340D01*
X0191814Y0143868D02*
X0194400Y0143868D01*
X0194400Y0142670D02*
X0192203Y0142670D01*
X0192203Y0141471D02*
X0194400Y0141471D01*
X0194400Y0140272D02*
X0192203Y0140272D01*
X0192203Y0139074D02*
X0194400Y0139074D01*
X0194400Y0137875D02*
X0192203Y0137875D01*
X0191807Y0136677D02*
X0194400Y0136677D01*
X0194400Y0135478D02*
X0192403Y0135478D01*
X0192403Y0134280D02*
X0194400Y0134280D01*
X0188450Y0130684D02*
X0187250Y0130684D01*
X0187250Y0129486D02*
X0188450Y0129486D01*
X0178638Y0131883D02*
X0168600Y0131883D01*
X0168600Y0133081D02*
X0177439Y0133081D01*
X0176352Y0134280D02*
X0168600Y0134280D01*
X0168600Y0135478D02*
X0176352Y0135478D01*
X0174878Y0136677D02*
X0168600Y0136677D01*
X0168600Y0137875D02*
X0174393Y0137875D01*
X0174393Y0139074D02*
X0168600Y0139074D01*
X0168600Y0140272D02*
X0174393Y0140272D01*
X0174393Y0141471D02*
X0169555Y0141471D01*
X0170754Y0142670D02*
X0174393Y0142670D01*
X0182018Y0149861D02*
X0194400Y0149861D01*
X0194400Y0151059D02*
X0182311Y0151059D01*
X0182311Y0152258D02*
X0194400Y0152258D01*
X0194400Y0153456D02*
X0182311Y0153456D01*
X0182311Y0154655D02*
X0194400Y0154655D01*
X0194400Y0155853D02*
X0182311Y0155853D01*
X0174393Y0130684D02*
X0168600Y0130684D01*
X0168600Y0129486D02*
X0174393Y0129486D01*
X0174393Y0128287D02*
X0168600Y0128287D01*
X0168600Y0127089D02*
X0174393Y0127089D01*
X0173318Y0125890D02*
X0168600Y0125890D01*
X0168600Y0124692D02*
X0172119Y0124692D01*
X0170921Y0123493D02*
X0168600Y0123493D01*
X0168600Y0122295D02*
X0169722Y0122295D01*
X0166600Y0116344D02*
X0166600Y0096856D01*
X0159848Y0090104D01*
X0156373Y0093531D02*
X0153800Y0093531D01*
X0153800Y0094729D02*
X0161645Y0094729D01*
X0162843Y0095928D02*
X0153800Y0095928D01*
X0153800Y0097126D02*
X0164042Y0097126D01*
X0164600Y0098325D02*
X0153800Y0098325D01*
X0153800Y0099523D02*
X0156237Y0099523D01*
X0156307Y0099454D02*
X0156009Y0099751D01*
X0155798Y0100116D01*
X0155689Y0100523D01*
X0155689Y0102515D01*
X0159267Y0102515D01*
X0160429Y0102515D01*
X0160429Y0099134D01*
X0162618Y0099134D01*
X0163025Y0099243D01*
X0163390Y0099454D01*
X0163687Y0099751D01*
X0163898Y0100116D01*
X0164007Y0100523D01*
X0164007Y0102515D01*
X0160429Y0102515D01*
X0160429Y0103677D01*
X0159267Y0103677D01*
X0159267Y0102515D01*
X0159267Y0099134D01*
X0157078Y0099134D01*
X0156671Y0099243D01*
X0156307Y0099454D01*
X0155689Y0100722D02*
X0153800Y0100722D01*
X0153800Y0101920D02*
X0155689Y0101920D01*
X0155689Y0103677D02*
X0159267Y0103677D01*
X0159267Y0107058D01*
X0157078Y0107058D01*
X0156671Y0106949D01*
X0156307Y0106739D01*
X0156009Y0106441D01*
X0155798Y0106076D01*
X0155689Y0105669D01*
X0155689Y0103677D01*
X0155689Y0104317D02*
X0153800Y0104317D01*
X0153800Y0103119D02*
X0159267Y0103119D01*
X0160429Y0103119D02*
X0164600Y0103119D01*
X0164007Y0103677D02*
X0164007Y0105669D01*
X0163898Y0106076D01*
X0163687Y0106441D01*
X0163390Y0106739D01*
X0163025Y0106949D01*
X0162618Y0107058D01*
X0160429Y0107058D01*
X0160429Y0103677D01*
X0164007Y0103677D01*
X0164007Y0104317D02*
X0164600Y0104317D01*
X0164600Y0105516D02*
X0164007Y0105516D01*
X0163414Y0106714D02*
X0164600Y0106714D01*
X0164600Y0107913D02*
X0153800Y0107913D01*
X0153800Y0109111D02*
X0164600Y0109111D01*
X0160429Y0106714D02*
X0159267Y0106714D01*
X0159267Y0105516D02*
X0160429Y0105516D01*
X0160429Y0104317D02*
X0159267Y0104317D01*
X0159267Y0101920D02*
X0160429Y0101920D01*
X0160429Y0100722D02*
X0159267Y0100722D01*
X0159267Y0099523D02*
X0160429Y0099523D01*
X0163459Y0099523D02*
X0164600Y0099523D01*
X0164600Y0100722D02*
X0164007Y0100722D01*
X0164007Y0101920D02*
X0164600Y0101920D01*
X0156282Y0106714D02*
X0153800Y0106714D01*
X0153800Y0105516D02*
X0155689Y0105516D01*
X0155889Y0092332D02*
X0153800Y0092332D01*
X0153800Y0091134D02*
X0155889Y0091134D01*
X0155889Y0089935D02*
X0153800Y0089935D01*
X0153800Y0088737D02*
X0155889Y0088737D01*
X0155889Y0087538D02*
X0153800Y0087538D01*
X0153800Y0086339D02*
X0164600Y0086339D01*
X0164600Y0085141D02*
X0153800Y0085141D01*
X0153800Y0083942D02*
X0164600Y0083942D01*
X0164600Y0082744D02*
X0153800Y0082744D01*
X0153800Y0081545D02*
X0156113Y0081545D01*
X0156009Y0081441D02*
X0155798Y0081076D01*
X0155689Y0080669D01*
X0155689Y0078677D01*
X0159267Y0078677D01*
X0159267Y0077515D01*
X0160429Y0077515D01*
X0160429Y0074134D01*
X0162618Y0074134D01*
X0163025Y0074243D01*
X0163390Y0074454D01*
X0163687Y0074751D01*
X0163898Y0075116D01*
X0164007Y0075523D01*
X0164007Y0077515D01*
X0160429Y0077515D01*
X0160429Y0078677D01*
X0159267Y0078677D01*
X0159267Y0082058D01*
X0157078Y0082058D01*
X0156671Y0081949D01*
X0156307Y0081739D01*
X0156009Y0081441D01*
X0155689Y0080347D02*
X0153800Y0080347D01*
X0153800Y0079148D02*
X0155689Y0079148D01*
X0155689Y0077515D02*
X0155689Y0075523D01*
X0155798Y0075116D01*
X0156009Y0074751D01*
X0156307Y0074454D01*
X0156671Y0074243D01*
X0157078Y0074134D01*
X0159267Y0074134D01*
X0159267Y0077515D01*
X0155689Y0077515D01*
X0155689Y0076751D02*
X0153800Y0076751D01*
X0153800Y0077950D02*
X0159267Y0077950D01*
X0160429Y0077950D02*
X0164600Y0077950D01*
X0164007Y0078677D02*
X0164007Y0080669D01*
X0163898Y0081076D01*
X0163687Y0081441D01*
X0163390Y0081739D01*
X0163025Y0081949D01*
X0162618Y0082058D01*
X0160429Y0082058D01*
X0160429Y0078677D01*
X0164007Y0078677D01*
X0164007Y0079148D02*
X0164600Y0079148D01*
X0164600Y0080347D02*
X0164007Y0080347D01*
X0163583Y0081545D02*
X0164600Y0081545D01*
X0164600Y0076751D02*
X0164007Y0076751D01*
X0164007Y0075553D02*
X0164600Y0075553D01*
X0164600Y0074354D02*
X0163218Y0074354D01*
X0164600Y0073156D02*
X0151267Y0073156D01*
X0152466Y0074354D02*
X0156478Y0074354D01*
X0155689Y0075553D02*
X0153664Y0075553D01*
X0150069Y0071957D02*
X0163873Y0071957D01*
X0162675Y0070759D02*
X0148870Y0070759D01*
X0147672Y0069560D02*
X0161476Y0069560D01*
X0163807Y0065965D02*
X0164600Y0065965D01*
X0164600Y0064766D02*
X0163807Y0064766D01*
X0163807Y0063568D02*
X0164600Y0063568D01*
X0164600Y0062369D02*
X0163807Y0062369D01*
X0164600Y0061171D02*
X0052456Y0061171D01*
X0053010Y0059972D02*
X0164600Y0059972D01*
X0163445Y0058774D02*
X0053085Y0058774D01*
X0052740Y0057575D02*
X0162247Y0057575D01*
X0161048Y0056377D02*
X0156972Y0056377D01*
X0157311Y0055178D02*
X0159850Y0055178D01*
X0158651Y0053980D02*
X0157311Y0053980D01*
X0157311Y0052781D02*
X0157453Y0052781D01*
X0153352Y0053096D02*
X0146856Y0046600D01*
X0151728Y0044228D02*
X0138972Y0044228D01*
X0134848Y0040104D01*
X0130419Y0034803D02*
X0129102Y0034803D01*
X0129102Y0033605D02*
X0131142Y0033605D01*
X0129220Y0036002D02*
X0129102Y0036002D01*
X0127102Y0040104D02*
X0115499Y0040104D01*
X0111961Y0032406D02*
X0122651Y0032406D01*
X0122651Y0031208D02*
X0111999Y0031208D01*
X0108440Y0027612D02*
X0107240Y0027612D01*
X0107240Y0026414D02*
X0108440Y0026414D01*
X0108440Y0025215D02*
X0107240Y0025215D01*
X0103972Y0025215D02*
X0103967Y0025215D01*
X0104892Y0033605D02*
X0102852Y0033605D01*
X0102852Y0034803D02*
X0104169Y0034803D01*
X0102970Y0036002D02*
X0102852Y0036002D01*
X0108017Y0049186D02*
X0108857Y0049186D01*
X0109179Y0050384D02*
X0108017Y0050384D01*
X0108017Y0051583D02*
X0109179Y0051583D01*
X0115596Y0053096D02*
X0127102Y0053096D01*
X0123143Y0050384D02*
X0115713Y0050384D01*
X0130722Y0056377D02*
X0130972Y0056377D01*
X0134267Y0056377D02*
X0135429Y0056377D01*
X0135429Y0055178D02*
X0134267Y0055178D01*
X0134267Y0053980D02*
X0135429Y0053980D01*
X0142878Y0064766D02*
X0155889Y0064766D01*
X0155889Y0063568D02*
X0053561Y0063568D01*
X0053561Y0064766D02*
X0070322Y0064766D01*
X0069124Y0065965D02*
X0053561Y0065965D01*
X0053561Y0067163D02*
X0067925Y0067163D01*
X0066727Y0068362D02*
X0053245Y0068362D01*
X0051602Y0069560D02*
X0065528Y0069560D01*
X0064330Y0070759D02*
X0051994Y0070759D01*
X0053193Y0071957D02*
X0063131Y0071957D01*
X0061933Y0073156D02*
X0054391Y0073156D01*
X0055561Y0074354D02*
X0060734Y0074354D01*
X0059536Y0075553D02*
X0055561Y0075553D01*
X0055561Y0076751D02*
X0059400Y0076751D01*
X0059400Y0077950D02*
X0055561Y0077950D01*
X0055561Y0079148D02*
X0059400Y0079148D01*
X0059400Y0080347D02*
X0055561Y0080347D01*
X0055561Y0081545D02*
X0059400Y0081545D01*
X0059400Y0082744D02*
X0054684Y0082744D01*
X0053485Y0083942D02*
X0059400Y0083942D01*
X0059400Y0085141D02*
X0052287Y0085141D01*
X0051602Y0086339D02*
X0059400Y0086339D01*
X0059400Y0087538D02*
X0053561Y0087538D01*
X0053561Y0088737D02*
X0059400Y0088737D01*
X0059400Y0089935D02*
X0053561Y0089935D01*
X0053561Y0091134D02*
X0059400Y0091134D01*
X0059400Y0092332D02*
X0053561Y0092332D01*
X0053077Y0093531D02*
X0059400Y0093531D01*
X0059400Y0094729D02*
X0051602Y0094729D01*
X0052163Y0095928D02*
X0059400Y0095928D01*
X0059400Y0097126D02*
X0053362Y0097126D01*
X0054560Y0098325D02*
X0059400Y0098325D01*
X0059400Y0099523D02*
X0055561Y0099523D01*
X0055561Y0100722D02*
X0059400Y0100722D01*
X0059400Y0101920D02*
X0055561Y0101920D01*
X0055561Y0103119D02*
X0059400Y0103119D01*
X0059400Y0104317D02*
X0055561Y0104317D01*
X0055561Y0105516D02*
X0059400Y0105516D01*
X0059400Y0106714D02*
X0055561Y0106714D01*
X0054515Y0107913D02*
X0059400Y0107913D01*
X0059400Y0109111D02*
X0053316Y0109111D01*
X0054389Y0108038D02*
X0054389Y0108038D01*
X0052118Y0110310D02*
X0059400Y0110310D01*
X0059400Y0111508D02*
X0052907Y0111508D01*
X0053561Y0112707D02*
X0059400Y0112707D01*
X0059400Y0113905D02*
X0053561Y0113905D01*
X0053561Y0115104D02*
X0059400Y0115104D01*
X0059400Y0116302D02*
X0053561Y0116302D01*
X0053561Y0117501D02*
X0059400Y0117501D01*
X0059400Y0118699D02*
X0052908Y0118699D01*
X0051602Y0119898D02*
X0059400Y0119898D01*
X0059400Y0121096D02*
X0052332Y0121096D01*
X0053530Y0122295D02*
X0059400Y0122295D01*
X0059400Y0123493D02*
X0054729Y0123493D01*
X0055561Y0124692D02*
X0059400Y0124692D01*
X0059400Y0125890D02*
X0055561Y0125890D01*
X0055561Y0127089D02*
X0059400Y0127089D01*
X0059400Y0128287D02*
X0055561Y0128287D01*
X0055561Y0129486D02*
X0059400Y0129486D01*
X0059400Y0130684D02*
X0055561Y0130684D01*
X0055545Y0131883D02*
X0059400Y0131883D01*
X0059400Y0133081D02*
X0054346Y0133081D01*
X0053148Y0134280D02*
X0059400Y0134280D01*
X0059400Y0135478D02*
X0051949Y0135478D01*
X0053076Y0136677D02*
X0059400Y0136677D01*
X0059400Y0137875D02*
X0053561Y0137875D01*
X0053561Y0139074D02*
X0059400Y0139074D01*
X0059400Y0140272D02*
X0053561Y0140272D01*
X0053561Y0141471D02*
X0059400Y0141471D01*
X0059400Y0142670D02*
X0053561Y0142670D01*
X0051602Y0143868D02*
X0059400Y0143868D01*
X0059400Y0145067D02*
X0051602Y0145067D01*
X0052501Y0146265D02*
X0059400Y0146265D01*
X0059400Y0147464D02*
X0053699Y0147464D01*
X0054898Y0148662D02*
X0060551Y0148662D01*
X0061749Y0149861D02*
X0055561Y0149861D01*
X0055561Y0151059D02*
X0062948Y0151059D01*
X0064146Y0152258D02*
X0055561Y0152258D01*
X0055561Y0153456D02*
X0065345Y0153456D01*
X0065020Y0158250D02*
X0054177Y0158250D01*
X0052979Y0159449D02*
X0066218Y0159449D01*
X0067417Y0160647D02*
X0051780Y0160647D01*
X0051602Y0161846D02*
X0052355Y0161846D01*
X0052139Y0163044D02*
X0051602Y0163044D01*
X0051602Y0164243D02*
X0052139Y0164243D01*
X0052139Y0165441D02*
X0051602Y0165441D01*
X0051602Y0166640D02*
X0052139Y0166640D01*
X0052139Y0167838D02*
X0051602Y0167838D01*
X0051602Y0169037D02*
X0057379Y0169037D01*
X0058612Y0170235D02*
X0051602Y0170235D01*
X0051602Y0171434D02*
X0059600Y0171434D01*
X0059600Y0172632D02*
X0051602Y0172632D01*
X0051602Y0173831D02*
X0059600Y0173831D01*
X0056679Y0175029D02*
X0055517Y0175029D01*
X0055517Y0174034D02*
X0055517Y0177415D01*
X0051939Y0177415D01*
X0051939Y0175423D01*
X0052048Y0175016D01*
X0052259Y0174651D01*
X0052557Y0174354D01*
X0052921Y0174143D01*
X0053328Y0174034D01*
X0055517Y0174034D01*
X0055517Y0176228D02*
X0056679Y0176228D01*
X0055517Y0177426D02*
X0051602Y0177426D01*
X0051602Y0176228D02*
X0051939Y0176228D01*
X0052045Y0175029D02*
X0051602Y0175029D01*
X0051939Y0178577D02*
X0055517Y0178577D01*
X0055517Y0181958D01*
X0053328Y0181958D01*
X0052921Y0181849D01*
X0052557Y0181639D01*
X0052259Y0181341D01*
X0052048Y0180976D01*
X0051939Y0180569D01*
X0051939Y0178577D01*
X0051939Y0178625D02*
X0051602Y0178625D01*
X0051602Y0179823D02*
X0051939Y0179823D01*
X0052075Y0181022D02*
X0051602Y0181022D01*
X0051602Y0182220D02*
X0059600Y0182220D01*
X0059600Y0183419D02*
X0051602Y0183419D01*
X0051602Y0184617D02*
X0059600Y0184617D01*
X0059556Y0185816D02*
X0051602Y0185816D01*
X0053414Y0187014D02*
X0058357Y0187014D01*
X0057159Y0188213D02*
X0053561Y0188213D01*
X0053561Y0189411D02*
X0055960Y0189411D01*
X0054762Y0190610D02*
X0053561Y0190610D01*
X0053561Y0191808D02*
X0054600Y0191808D01*
X0054600Y0193007D02*
X0053561Y0193007D01*
X0054600Y0194205D02*
X0051602Y0194205D01*
X0051639Y0195404D02*
X0054600Y0195404D01*
X0054600Y0196603D02*
X0052838Y0196603D01*
X0054037Y0197801D02*
X0054600Y0197801D01*
X0053561Y0200154D02*
X0049602Y0196195D01*
X0049602Y0190104D01*
X0049602Y0159997D01*
X0053561Y0156038D01*
X0049602Y0157169D02*
X0049602Y0153096D01*
X0049241Y0148662D02*
X0018800Y0148662D01*
X0018800Y0147464D02*
X0048042Y0147464D01*
X0047602Y0146265D02*
X0018800Y0146265D01*
X0018800Y0145067D02*
X0047602Y0145067D01*
X0047602Y0143868D02*
X0018800Y0143868D01*
X0018800Y0142670D02*
X0027139Y0142670D01*
X0027139Y0141471D02*
X0018800Y0141471D01*
X0018800Y0140272D02*
X0027139Y0140272D01*
X0027139Y0139074D02*
X0018800Y0139074D01*
X0018800Y0137875D02*
X0027139Y0137875D01*
X0027624Y0136677D02*
X0018800Y0136677D01*
X0018800Y0135478D02*
X0033226Y0135478D01*
X0034549Y0134280D02*
X0018800Y0134280D01*
X0018800Y0133081D02*
X0035872Y0133081D01*
X0037196Y0131883D02*
X0034390Y0131883D01*
X0034275Y0131949D02*
X0033868Y0132058D01*
X0031679Y0132058D01*
X0031679Y0128677D01*
X0030517Y0128677D01*
X0030517Y0127515D01*
X0031679Y0127515D01*
X0031679Y0124134D01*
X0033868Y0124134D01*
X0034275Y0124243D01*
X0034640Y0124454D01*
X0034937Y0124751D01*
X0035148Y0125116D01*
X0035257Y0125523D01*
X0035257Y0127515D01*
X0031679Y0127515D01*
X0031679Y0128677D01*
X0035257Y0128677D01*
X0035257Y0130669D01*
X0035148Y0131076D01*
X0034937Y0131441D01*
X0034640Y0131739D01*
X0034275Y0131949D01*
X0035253Y0130684D02*
X0038519Y0130684D01*
X0039842Y0129486D02*
X0035257Y0129486D01*
X0035257Y0127089D02*
X0042489Y0127089D01*
X0041165Y0128287D02*
X0031679Y0128287D01*
X0030517Y0128287D02*
X0018800Y0128287D01*
X0018800Y0127089D02*
X0026939Y0127089D01*
X0026939Y0127515D02*
X0026939Y0125523D01*
X0027048Y0125116D01*
X0027259Y0124751D01*
X0027557Y0124454D01*
X0027921Y0124243D01*
X0028328Y0124134D01*
X0030517Y0124134D01*
X0030517Y0127515D01*
X0026939Y0127515D01*
X0026939Y0128677D02*
X0030517Y0128677D01*
X0030517Y0132058D01*
X0028328Y0132058D01*
X0027921Y0131949D01*
X0027557Y0131739D01*
X0027259Y0131441D01*
X0027048Y0131076D01*
X0026939Y0130669D01*
X0026939Y0128677D01*
X0026939Y0129486D02*
X0018800Y0129486D01*
X0018800Y0130684D02*
X0026943Y0130684D01*
X0027807Y0131883D02*
X0018800Y0131883D01*
X0018800Y0125890D02*
X0026939Y0125890D01*
X0027318Y0124692D02*
X0018800Y0124692D01*
X0018800Y0123493D02*
X0049072Y0123493D01*
X0047873Y0122295D02*
X0018800Y0122295D01*
X0018800Y0121096D02*
X0047602Y0121096D01*
X0047602Y0119898D02*
X0018800Y0119898D01*
X0018800Y0118699D02*
X0027792Y0118699D01*
X0027139Y0117501D02*
X0018800Y0117501D01*
X0018800Y0116302D02*
X0027139Y0116302D01*
X0027139Y0115104D02*
X0018800Y0115104D01*
X0018800Y0113905D02*
X0027139Y0113905D01*
X0027139Y0112707D02*
X0018800Y0112707D01*
X0018800Y0111508D02*
X0027793Y0111508D01*
X0028328Y0107058D02*
X0027921Y0106949D01*
X0027557Y0106739D01*
X0027259Y0106441D01*
X0027048Y0106076D01*
X0026939Y0105669D01*
X0026939Y0103677D01*
X0030517Y0103677D01*
X0030517Y0102515D01*
X0031679Y0102515D01*
X0031679Y0099134D01*
X0033868Y0099134D01*
X0034275Y0099243D01*
X0034640Y0099454D01*
X0034937Y0099751D01*
X0035148Y0100116D01*
X0035257Y0100523D01*
X0035257Y0102515D01*
X0031679Y0102515D01*
X0031679Y0103677D01*
X0030517Y0103677D01*
X0030517Y0107058D01*
X0028328Y0107058D01*
X0027532Y0106714D02*
X0018800Y0106714D01*
X0018800Y0105516D02*
X0026939Y0105516D01*
X0026939Y0104317D02*
X0018800Y0104317D01*
X0018800Y0103119D02*
X0030517Y0103119D01*
X0030517Y0102515D02*
X0026939Y0102515D01*
X0026939Y0100523D01*
X0027048Y0100116D01*
X0027259Y0099751D01*
X0027557Y0099454D01*
X0027921Y0099243D01*
X0028328Y0099134D01*
X0030517Y0099134D01*
X0030517Y0102515D01*
X0030517Y0101920D02*
X0031679Y0101920D01*
X0031679Y0100722D02*
X0030517Y0100722D01*
X0030517Y0099523D02*
X0031679Y0099523D01*
X0034709Y0099523D02*
X0046274Y0099523D01*
X0045643Y0100722D02*
X0035257Y0100722D01*
X0035257Y0101920D02*
X0042675Y0101920D01*
X0041352Y0103119D02*
X0031679Y0103119D01*
X0031679Y0103677D02*
X0035257Y0103677D01*
X0035257Y0105669D01*
X0035148Y0106076D01*
X0034937Y0106441D01*
X0034640Y0106739D01*
X0034275Y0106949D01*
X0033868Y0107058D01*
X0031679Y0107058D01*
X0031679Y0103677D01*
X0031679Y0104317D02*
X0030517Y0104317D01*
X0030517Y0105516D02*
X0031679Y0105516D01*
X0031679Y0106714D02*
X0030517Y0106714D01*
X0033412Y0110310D02*
X0018800Y0110310D01*
X0018800Y0109111D02*
X0034735Y0109111D01*
X0036059Y0107913D02*
X0018800Y0107913D01*
X0018800Y0101920D02*
X0026939Y0101920D01*
X0026939Y0100722D02*
X0018800Y0100722D01*
X0018800Y0099523D02*
X0027487Y0099523D01*
X0027623Y0093531D02*
X0018800Y0093531D01*
X0018800Y0094729D02*
X0047602Y0094729D01*
X0047602Y0095928D02*
X0018800Y0095928D01*
X0018800Y0097126D02*
X0047705Y0097126D01*
X0048903Y0098325D02*
X0018800Y0098325D01*
X0018800Y0092332D02*
X0027139Y0092332D01*
X0027139Y0091134D02*
X0018800Y0091134D01*
X0018800Y0089935D02*
X0027139Y0089935D01*
X0027139Y0088737D02*
X0018800Y0088737D01*
X0018800Y0087538D02*
X0027139Y0087538D01*
X0031098Y0090104D02*
X0044356Y0078096D01*
X0049602Y0078096D01*
X0049027Y0082744D02*
X0042203Y0082744D01*
X0040880Y0083942D02*
X0047828Y0083942D01*
X0047602Y0085141D02*
X0039557Y0085141D01*
X0038234Y0086339D02*
X0047602Y0086339D01*
X0045643Y0087538D02*
X0036910Y0087538D01*
X0035587Y0088737D02*
X0045643Y0088737D01*
X0045643Y0089935D02*
X0035057Y0089935D01*
X0035057Y0091134D02*
X0045643Y0091134D01*
X0045643Y0092332D02*
X0035057Y0092332D01*
X0034573Y0093531D02*
X0046127Y0093531D01*
X0044356Y0103096D02*
X0031098Y0115104D01*
X0035057Y0115104D02*
X0045643Y0115104D01*
X0045643Y0116302D02*
X0035057Y0116302D01*
X0035057Y0117501D02*
X0045643Y0117501D01*
X0046296Y0118699D02*
X0034404Y0118699D01*
X0035401Y0113905D02*
X0045643Y0113905D01*
X0045643Y0112707D02*
X0036724Y0112707D01*
X0038047Y0111508D02*
X0046297Y0111508D01*
X0047602Y0110310D02*
X0039371Y0110310D01*
X0040694Y0109111D02*
X0047660Y0109111D01*
X0048858Y0107913D02*
X0042017Y0107913D01*
X0043340Y0106714D02*
X0046319Y0106714D01*
X0045643Y0105516D02*
X0044664Y0105516D01*
X0044356Y0103096D02*
X0049602Y0103096D01*
X0040028Y0104317D02*
X0035257Y0104317D01*
X0035257Y0105516D02*
X0038705Y0105516D01*
X0037382Y0106714D02*
X0034664Y0106714D01*
X0034878Y0124692D02*
X0046105Y0124692D01*
X0045643Y0125890D02*
X0035257Y0125890D01*
X0031679Y0125890D02*
X0030517Y0125890D01*
X0030517Y0124692D02*
X0031679Y0124692D01*
X0031679Y0127089D02*
X0030517Y0127089D01*
X0030517Y0129486D02*
X0031679Y0129486D01*
X0031679Y0130684D02*
X0030517Y0130684D01*
X0030517Y0131883D02*
X0031679Y0131883D01*
X0036538Y0137875D02*
X0045643Y0137875D01*
X0045643Y0139074D02*
X0035214Y0139074D01*
X0035057Y0140272D02*
X0045643Y0140272D01*
X0045643Y0141471D02*
X0035057Y0141471D01*
X0035057Y0142670D02*
X0045643Y0142670D01*
X0046128Y0136677D02*
X0037861Y0136677D01*
X0039184Y0135478D02*
X0047602Y0135478D01*
X0047602Y0134280D02*
X0040508Y0134280D01*
X0041831Y0133081D02*
X0048689Y0133081D01*
X0049888Y0131883D02*
X0043154Y0131883D01*
X0044477Y0130684D02*
X0045643Y0130684D01*
X0044356Y0128096D02*
X0031098Y0140104D01*
X0030517Y0149134D02*
X0028328Y0149134D01*
X0027921Y0149243D01*
X0027557Y0149454D01*
X0027259Y0149751D01*
X0027048Y0150116D01*
X0026939Y0150523D01*
X0026939Y0152515D01*
X0030517Y0152515D01*
X0031679Y0152515D01*
X0031679Y0149134D01*
X0033868Y0149134D01*
X0034275Y0149243D01*
X0034640Y0149454D01*
X0034937Y0149751D01*
X0035148Y0150116D01*
X0035257Y0150523D01*
X0035257Y0152515D01*
X0031679Y0152515D01*
X0031679Y0153677D01*
X0030517Y0153677D01*
X0030517Y0152515D01*
X0030517Y0149134D01*
X0030517Y0149861D02*
X0031679Y0149861D01*
X0031679Y0151059D02*
X0030517Y0151059D01*
X0030517Y0152258D02*
X0031679Y0152258D01*
X0031679Y0153456D02*
X0045643Y0153456D01*
X0045643Y0152258D02*
X0035257Y0152258D01*
X0035257Y0151059D02*
X0045643Y0151059D01*
X0045936Y0149861D02*
X0035000Y0149861D01*
X0035257Y0153677D02*
X0031679Y0153677D01*
X0031679Y0157058D01*
X0033868Y0157058D01*
X0034275Y0156949D01*
X0034640Y0156739D01*
X0034937Y0156441D01*
X0035148Y0156076D01*
X0035257Y0155669D01*
X0035257Y0153677D01*
X0035257Y0154655D02*
X0045643Y0154655D01*
X0045643Y0155853D02*
X0035208Y0155853D01*
X0033892Y0157052D02*
X0046891Y0157052D01*
X0045692Y0158250D02*
X0018800Y0158250D01*
X0018800Y0157052D02*
X0028304Y0157052D01*
X0028328Y0157058D02*
X0027921Y0156949D01*
X0027557Y0156739D01*
X0027259Y0156441D01*
X0027048Y0156076D01*
X0026939Y0155669D01*
X0026939Y0153677D01*
X0030517Y0153677D01*
X0030517Y0157058D01*
X0028328Y0157058D01*
X0026988Y0155853D02*
X0018800Y0155853D01*
X0018800Y0154655D02*
X0026939Y0154655D01*
X0026939Y0152258D02*
X0018800Y0152258D01*
X0018800Y0153456D02*
X0030517Y0153456D01*
X0030517Y0154655D02*
X0031679Y0154655D01*
X0031679Y0155853D02*
X0030517Y0155853D01*
X0030517Y0157052D02*
X0031679Y0157052D01*
X0026939Y0151059D02*
X0018800Y0151059D01*
X0018800Y0149861D02*
X0027196Y0149861D01*
X0018800Y0159449D02*
X0045602Y0159449D01*
X0045602Y0160647D02*
X0018800Y0160647D01*
X0019957Y0161846D02*
X0045602Y0161846D01*
X0045602Y0163044D02*
X0021155Y0163044D01*
X0022354Y0164243D02*
X0045602Y0164243D01*
X0045602Y0165441D02*
X0038978Y0165441D01*
X0037913Y0165000D02*
X0040339Y0166005D01*
X0042195Y0167861D01*
X0043200Y0170287D01*
X0043200Y0172913D01*
X0042195Y0175339D01*
X0040339Y0177195D01*
X0037913Y0178200D01*
X0035287Y0178200D01*
X0032861Y0177195D01*
X0031005Y0175339D01*
X0030000Y0172913D01*
X0030000Y0170287D01*
X0031005Y0167861D01*
X0032861Y0166005D01*
X0035287Y0165000D01*
X0037913Y0165000D01*
X0034222Y0165441D02*
X0023552Y0165441D01*
X0024751Y0166640D02*
X0032226Y0166640D01*
X0031028Y0167838D02*
X0025950Y0167838D01*
X0027148Y0169037D02*
X0030518Y0169037D01*
X0030021Y0170235D02*
X0028347Y0170235D01*
X0028800Y0171434D02*
X0030000Y0171434D01*
X0030000Y0172632D02*
X0028679Y0172632D01*
X0027511Y0173800D02*
X0027511Y0173800D01*
X0027480Y0173831D02*
X0030380Y0173831D01*
X0030877Y0175029D02*
X0026282Y0175029D01*
X0025083Y0176228D02*
X0031894Y0176228D01*
X0033419Y0177426D02*
X0023885Y0177426D01*
X0022686Y0178625D02*
X0045497Y0178625D01*
X0045602Y0177426D02*
X0039781Y0177426D01*
X0041306Y0176228D02*
X0045602Y0176228D01*
X0045602Y0175029D02*
X0042323Y0175029D01*
X0042820Y0173831D02*
X0045602Y0173831D01*
X0045602Y0172632D02*
X0043200Y0172632D01*
X0043200Y0171434D02*
X0045602Y0171434D01*
X0045602Y0170235D02*
X0043178Y0170235D01*
X0042682Y0169037D02*
X0045602Y0169037D01*
X0045602Y0167838D02*
X0042172Y0167838D01*
X0040974Y0166640D02*
X0045602Y0166640D01*
X0047602Y0159169D02*
X0049602Y0157169D01*
X0047602Y0159169D02*
X0047602Y0179348D01*
X0036846Y0190104D01*
X0031098Y0190104D01*
X0027139Y0190610D02*
X0018800Y0190610D01*
X0018800Y0191808D02*
X0027139Y0191808D01*
X0027139Y0193007D02*
X0018800Y0193007D01*
X0018800Y0194205D02*
X0047602Y0194205D01*
X0047602Y0195404D02*
X0018800Y0195404D01*
X0018800Y0196603D02*
X0047602Y0196603D01*
X0048380Y0197801D02*
X0018800Y0197801D01*
X0018800Y0199000D02*
X0049578Y0199000D01*
X0049602Y0203096D02*
X0044356Y0203096D01*
X0031098Y0215104D01*
X0027139Y0214580D02*
X0018800Y0214580D01*
X0018800Y0213382D02*
X0027139Y0213382D01*
X0027139Y0212183D02*
X0018800Y0212183D01*
X0018800Y0210985D02*
X0032667Y0210985D01*
X0033990Y0209786D02*
X0018800Y0209786D01*
X0018800Y0208588D02*
X0035313Y0208588D01*
X0036637Y0207389D02*
X0018800Y0207389D01*
X0018800Y0206191D02*
X0027114Y0206191D01*
X0027048Y0206076D02*
X0026939Y0205669D01*
X0026939Y0203677D01*
X0030517Y0203677D01*
X0030517Y0202515D01*
X0031679Y0202515D01*
X0031679Y0199134D01*
X0033868Y0199134D01*
X0034275Y0199243D01*
X0034640Y0199454D01*
X0034937Y0199751D01*
X0035148Y0200116D01*
X0035257Y0200523D01*
X0035257Y0202515D01*
X0031679Y0202515D01*
X0031679Y0203677D01*
X0030517Y0203677D01*
X0030517Y0207058D01*
X0028328Y0207058D01*
X0027921Y0206949D01*
X0027557Y0206739D01*
X0027259Y0206441D01*
X0027048Y0206076D01*
X0026939Y0204992D02*
X0018800Y0204992D01*
X0018800Y0203794D02*
X0026939Y0203794D01*
X0026939Y0202515D02*
X0026939Y0200523D01*
X0027048Y0200116D01*
X0027259Y0199751D01*
X0027557Y0199454D01*
X0027921Y0199243D01*
X0028328Y0199134D01*
X0030517Y0199134D01*
X0030517Y0202515D01*
X0026939Y0202515D01*
X0026939Y0201397D02*
X0018800Y0201397D01*
X0018800Y0202595D02*
X0030517Y0202595D01*
X0031679Y0202595D02*
X0041930Y0202595D01*
X0043227Y0201397D02*
X0035257Y0201397D01*
X0035170Y0200198D02*
X0045643Y0200198D01*
X0045795Y0206191D02*
X0043918Y0206191D01*
X0042595Y0207389D02*
X0049382Y0207389D01*
X0048183Y0208588D02*
X0041272Y0208588D01*
X0039949Y0209786D02*
X0047602Y0209786D01*
X0047602Y0210985D02*
X0038625Y0210985D01*
X0037302Y0212183D02*
X0045643Y0212183D01*
X0045643Y0213382D02*
X0035979Y0213382D01*
X0035057Y0214580D02*
X0045643Y0214580D01*
X0045643Y0215779D02*
X0035057Y0215779D01*
X0035057Y0216977D02*
X0045643Y0216977D01*
X0045773Y0218176D02*
X0034927Y0218176D01*
X0033868Y0224134D02*
X0031679Y0224134D01*
X0031679Y0227515D01*
X0030517Y0227515D01*
X0030517Y0224134D01*
X0028328Y0224134D01*
X0027921Y0224243D01*
X0027557Y0224454D01*
X0027259Y0224751D01*
X0027048Y0225116D01*
X0026939Y0225523D01*
X0026939Y0227515D01*
X0030517Y0227515D01*
X0030517Y0228677D01*
X0026939Y0228677D01*
X0026939Y0230669D01*
X0027048Y0231076D01*
X0027259Y0231441D01*
X0027557Y0231739D01*
X0027921Y0231949D01*
X0028328Y0232058D01*
X0030517Y0232058D01*
X0030517Y0228677D01*
X0031679Y0228677D01*
X0031679Y0232058D01*
X0033868Y0232058D01*
X0034275Y0231949D01*
X0034640Y0231739D01*
X0034937Y0231441D01*
X0035148Y0231076D01*
X0035257Y0230669D01*
X0035257Y0228677D01*
X0031679Y0228677D01*
X0031679Y0227515D01*
X0035257Y0227515D01*
X0035257Y0225523D01*
X0035148Y0225116D01*
X0034937Y0224751D01*
X0034640Y0224454D01*
X0034275Y0224243D01*
X0033868Y0224134D01*
X0033996Y0224168D02*
X0049747Y0224168D01*
X0048548Y0222970D02*
X0018800Y0222970D01*
X0018800Y0224168D02*
X0028200Y0224168D01*
X0026981Y0225367D02*
X0018800Y0225367D01*
X0018800Y0226565D02*
X0026939Y0226565D01*
X0026939Y0228962D02*
X0018800Y0228962D01*
X0018800Y0227764D02*
X0030517Y0227764D01*
X0031679Y0227764D02*
X0041743Y0227764D01*
X0043058Y0226565D02*
X0035257Y0226565D01*
X0035215Y0225367D02*
X0045643Y0225367D01*
X0044356Y0228096D02*
X0031098Y0240104D01*
X0027139Y0239749D02*
X0018800Y0239749D01*
X0018800Y0240947D02*
X0027139Y0240947D01*
X0027139Y0242146D02*
X0018800Y0242146D01*
X0018800Y0243344D02*
X0027437Y0243344D01*
X0028328Y0249134D02*
X0030517Y0249134D01*
X0030517Y0252515D01*
X0031679Y0252515D01*
X0031679Y0249134D01*
X0033868Y0249134D01*
X0034275Y0249243D01*
X0034640Y0249454D01*
X0034937Y0249751D01*
X0035148Y0250116D01*
X0035257Y0250523D01*
X0035257Y0252515D01*
X0031679Y0252515D01*
X0031679Y0253677D01*
X0030517Y0253677D01*
X0030517Y0252515D01*
X0026939Y0252515D01*
X0026939Y0250523D01*
X0027048Y0250116D01*
X0027259Y0249751D01*
X0027557Y0249454D01*
X0027921Y0249243D01*
X0028328Y0249134D01*
X0027758Y0249337D02*
X0018800Y0249337D01*
X0018800Y0248139D02*
X0048717Y0248139D01*
X0047602Y0246940D02*
X0018800Y0246940D01*
X0018800Y0245741D02*
X0047602Y0245741D01*
X0047602Y0244543D02*
X0018800Y0244543D01*
X0018800Y0250536D02*
X0026939Y0250536D01*
X0026939Y0251734D02*
X0018800Y0251734D01*
X0018800Y0252933D02*
X0030517Y0252933D01*
X0030517Y0253677D02*
X0026939Y0253677D01*
X0026939Y0255669D01*
X0027048Y0256076D01*
X0027259Y0256441D01*
X0027557Y0256739D01*
X0027921Y0256949D01*
X0028328Y0257058D01*
X0030517Y0257058D01*
X0030517Y0253677D01*
X0030517Y0254131D02*
X0031679Y0254131D01*
X0031679Y0253677D02*
X0031679Y0257058D01*
X0033868Y0257058D01*
X0034275Y0256949D01*
X0034640Y0256739D01*
X0034937Y0256441D01*
X0035148Y0256076D01*
X0035257Y0255669D01*
X0035257Y0253677D01*
X0031679Y0253677D01*
X0031679Y0252933D02*
X0041557Y0252933D01*
X0040234Y0254131D02*
X0035257Y0254131D01*
X0035257Y0255330D02*
X0038911Y0255330D01*
X0037587Y0256528D02*
X0034850Y0256528D01*
X0036264Y0257727D02*
X0018800Y0257727D01*
X0018800Y0258925D02*
X0034941Y0258925D01*
X0033617Y0260124D02*
X0018800Y0260124D01*
X0018800Y0261322D02*
X0032294Y0261322D01*
X0031098Y0265104D02*
X0044356Y0253096D01*
X0049602Y0253096D01*
X0053561Y0250154D02*
X0053561Y0256038D01*
X0049602Y0259997D01*
X0049602Y0265104D01*
X0049602Y0268598D01*
X0041600Y0276600D01*
X0041600Y0281600D01*
X0039100Y0284100D01*
X0060596Y0284100D01*
X0066600Y0290104D01*
X0074602Y0290104D01*
X0078364Y0286342D01*
X0085487Y0286342D01*
X0089249Y0290104D01*
X0100852Y0290104D01*
X0101697Y0290104D01*
X0105459Y0286342D01*
X0111737Y0286342D01*
X0115499Y0290104D01*
X0127102Y0290104D01*
X0128047Y0290104D01*
X0131809Y0286342D01*
X0138087Y0286342D01*
X0141849Y0290104D01*
X0153452Y0290104D01*
X0160104Y0290104D01*
X0161600Y0289100D01*
X0159284Y0286491D02*
X0156740Y0286491D01*
X0157411Y0287689D02*
X0158415Y0287689D01*
X0157411Y0292483D02*
X0160668Y0292483D01*
X0162532Y0292483D02*
X0164600Y0292483D01*
X0164600Y0291285D02*
X0164340Y0291285D01*
X0164600Y0293682D02*
X0156775Y0293682D01*
X0156932Y0299674D02*
X0159447Y0299674D01*
X0160646Y0298476D02*
X0130052Y0298476D01*
X0130582Y0299674D02*
X0131186Y0299674D01*
X0131251Y0297277D02*
X0161844Y0297277D01*
X0163043Y0296079D02*
X0132449Y0296079D01*
X0133709Y0294880D02*
X0164241Y0294880D01*
X0166600Y0295350D02*
X0166600Y0284100D01*
X0166600Y0281600D01*
X0166600Y0272102D01*
X0159848Y0265104D01*
X0156356Y0268513D02*
X0152798Y0268513D01*
X0153800Y0267511D02*
X0142511Y0278800D01*
X0070689Y0278800D01*
X0069400Y0277511D01*
X0060689Y0268800D01*
X0059400Y0267511D01*
X0059400Y0195689D01*
X0070689Y0184400D01*
X0072511Y0184400D01*
X0140689Y0184400D01*
X0142511Y0184400D01*
X0152511Y0194400D01*
X0153800Y0195689D01*
X0153800Y0267511D01*
X0153800Y0267315D02*
X0155889Y0267315D01*
X0155889Y0266116D02*
X0153800Y0266116D01*
X0153800Y0264918D02*
X0155889Y0264918D01*
X0155889Y0263719D02*
X0153800Y0263719D01*
X0153800Y0262521D02*
X0155889Y0262521D01*
X0153800Y0261322D02*
X0164728Y0261322D01*
X0164728Y0260124D02*
X0153800Y0260124D01*
X0153800Y0258925D02*
X0164728Y0258925D01*
X0164728Y0257727D02*
X0153800Y0257727D01*
X0153800Y0256528D02*
X0156096Y0256528D01*
X0156009Y0256441D02*
X0155798Y0256076D01*
X0155689Y0255669D01*
X0155689Y0253677D01*
X0159267Y0253677D01*
X0159267Y0252515D01*
X0160429Y0252515D01*
X0160429Y0249134D01*
X0162618Y0249134D01*
X0163025Y0249243D01*
X0163390Y0249454D01*
X0163687Y0249751D01*
X0163898Y0250116D01*
X0164007Y0250523D01*
X0164007Y0252515D01*
X0160429Y0252515D01*
X0160429Y0253677D01*
X0159267Y0253677D01*
X0159267Y0257058D01*
X0157078Y0257058D01*
X0156671Y0256949D01*
X0156307Y0256739D01*
X0156009Y0256441D01*
X0155689Y0255330D02*
X0153800Y0255330D01*
X0153800Y0254131D02*
X0155689Y0254131D01*
X0155689Y0252515D02*
X0155689Y0250523D01*
X0155798Y0250116D01*
X0156009Y0249751D01*
X0156307Y0249454D01*
X0156671Y0249243D01*
X0157078Y0249134D01*
X0159267Y0249134D01*
X0159267Y0252515D01*
X0155689Y0252515D01*
X0155689Y0251734D02*
X0153800Y0251734D01*
X0153800Y0250536D02*
X0155689Y0250536D01*
X0156508Y0249337D02*
X0153800Y0249337D01*
X0153800Y0248139D02*
X0164728Y0248139D01*
X0164728Y0249337D02*
X0163188Y0249337D01*
X0164007Y0250536D02*
X0164728Y0250536D01*
X0164728Y0251734D02*
X0164007Y0251734D01*
X0164728Y0252933D02*
X0160429Y0252933D01*
X0160429Y0253677D02*
X0164007Y0253677D01*
X0164007Y0255669D01*
X0163898Y0256076D01*
X0163687Y0256441D01*
X0163390Y0256739D01*
X0163025Y0256949D01*
X0162618Y0257058D01*
X0160429Y0257058D01*
X0160429Y0253677D01*
X0160429Y0254131D02*
X0159267Y0254131D01*
X0159267Y0252933D02*
X0153800Y0252933D01*
X0153800Y0246940D02*
X0163856Y0246940D01*
X0162657Y0245741D02*
X0153800Y0245741D01*
X0153800Y0244543D02*
X0161459Y0244543D01*
X0164718Y0242146D02*
X0164728Y0242146D01*
X0164728Y0240947D02*
X0163807Y0240947D01*
X0163807Y0239749D02*
X0164728Y0239749D01*
X0164728Y0238550D02*
X0163807Y0238550D01*
X0163807Y0237352D02*
X0164728Y0237352D01*
X0164728Y0236153D02*
X0153800Y0236153D01*
X0153800Y0234955D02*
X0164728Y0234955D01*
X0164728Y0233756D02*
X0153800Y0233756D01*
X0153800Y0232558D02*
X0164728Y0232558D01*
X0164728Y0231359D02*
X0163734Y0231359D01*
X0163687Y0231441D02*
X0163390Y0231739D01*
X0163025Y0231949D01*
X0162618Y0232058D01*
X0160429Y0232058D01*
X0160429Y0228677D01*
X0159267Y0228677D01*
X0159267Y0227515D01*
X0160429Y0227515D01*
X0160429Y0224134D01*
X0162618Y0224134D01*
X0163025Y0224243D01*
X0163390Y0224454D01*
X0163687Y0224751D01*
X0163898Y0225116D01*
X0164007Y0225523D01*
X0164007Y0227515D01*
X0160429Y0227515D01*
X0160429Y0228677D01*
X0164007Y0228677D01*
X0164007Y0230669D01*
X0163898Y0231076D01*
X0163687Y0231441D01*
X0164007Y0230161D02*
X0164728Y0230161D01*
X0164728Y0228962D02*
X0164007Y0228962D01*
X0164728Y0227764D02*
X0160429Y0227764D01*
X0159267Y0227764D02*
X0153800Y0227764D01*
X0153800Y0228962D02*
X0155689Y0228962D01*
X0155689Y0228677D02*
X0159267Y0228677D01*
X0159267Y0232058D01*
X0157078Y0232058D01*
X0156671Y0231949D01*
X0156307Y0231739D01*
X0156009Y0231441D01*
X0155798Y0231076D01*
X0155689Y0230669D01*
X0155689Y0228677D01*
X0155689Y0227515D02*
X0155689Y0225523D01*
X0155798Y0225116D01*
X0156009Y0224751D01*
X0156307Y0224454D01*
X0156671Y0224243D01*
X0157078Y0224134D01*
X0159267Y0224134D01*
X0159267Y0227515D01*
X0155689Y0227515D01*
X0155689Y0226565D02*
X0153800Y0226565D01*
X0153800Y0225367D02*
X0155731Y0225367D01*
X0156950Y0224168D02*
X0153800Y0224168D01*
X0153800Y0222970D02*
X0164728Y0222970D01*
X0164728Y0224168D02*
X0162746Y0224168D01*
X0163965Y0225367D02*
X0164728Y0225367D01*
X0164728Y0226565D02*
X0164007Y0226565D01*
X0163687Y0221771D02*
X0153800Y0221771D01*
X0153800Y0220573D02*
X0162488Y0220573D01*
X0161290Y0219374D02*
X0153800Y0219374D01*
X0153800Y0218176D02*
X0156019Y0218176D01*
X0155889Y0216977D02*
X0153800Y0216977D01*
X0153800Y0215779D02*
X0155889Y0215779D01*
X0155889Y0214580D02*
X0153800Y0214580D01*
X0153800Y0213382D02*
X0155889Y0213382D01*
X0155889Y0212183D02*
X0153800Y0212183D01*
X0153800Y0210985D02*
X0164600Y0210985D01*
X0164600Y0212183D02*
X0163807Y0212183D01*
X0163807Y0213382D02*
X0164600Y0213382D01*
X0164600Y0214580D02*
X0163807Y0214580D01*
X0163807Y0215779D02*
X0164600Y0215779D01*
X0164600Y0216977D02*
X0164550Y0216977D01*
X0166600Y0216344D02*
X0166600Y0196856D01*
X0159848Y0190104D01*
X0161121Y0194205D02*
X0152317Y0194205D01*
X0151118Y0193007D02*
X0155889Y0193007D01*
X0155889Y0191808D02*
X0149920Y0191808D01*
X0148721Y0190610D02*
X0155889Y0190610D01*
X0155889Y0189411D02*
X0147523Y0189411D01*
X0146324Y0188213D02*
X0155889Y0188213D01*
X0156036Y0187014D02*
X0145126Y0187014D01*
X0143927Y0185816D02*
X0164600Y0185816D01*
X0164600Y0187014D02*
X0163660Y0187014D01*
X0163807Y0188213D02*
X0164600Y0188213D01*
X0164600Y0189411D02*
X0163807Y0189411D01*
X0163807Y0190610D02*
X0164600Y0190610D01*
X0164600Y0191808D02*
X0164381Y0191808D01*
X0162320Y0195404D02*
X0153515Y0195404D01*
X0153800Y0196603D02*
X0163518Y0196603D01*
X0164600Y0197801D02*
X0153800Y0197801D01*
X0153800Y0199000D02*
X0164600Y0199000D01*
X0163687Y0199751D02*
X0163898Y0200116D01*
X0164007Y0200523D01*
X0164007Y0202515D01*
X0160429Y0202515D01*
X0160429Y0199134D01*
X0162618Y0199134D01*
X0163025Y0199243D01*
X0163390Y0199454D01*
X0163687Y0199751D01*
X0163920Y0200198D02*
X0164600Y0200198D01*
X0164600Y0201397D02*
X0164007Y0201397D01*
X0164600Y0202595D02*
X0160429Y0202595D01*
X0160429Y0202515D02*
X0160429Y0203677D01*
X0159267Y0203677D01*
X0159267Y0202515D01*
X0160429Y0202515D01*
X0160429Y0201397D02*
X0159267Y0201397D01*
X0159267Y0202515D02*
X0159267Y0199134D01*
X0157078Y0199134D01*
X0156671Y0199243D01*
X0156307Y0199454D01*
X0156009Y0199751D01*
X0155798Y0200116D01*
X0155689Y0200523D01*
X0155689Y0202515D01*
X0159267Y0202515D01*
X0159267Y0202595D02*
X0153800Y0202595D01*
X0153800Y0201397D02*
X0155689Y0201397D01*
X0155776Y0200198D02*
X0153800Y0200198D01*
X0153800Y0203794D02*
X0155689Y0203794D01*
X0155689Y0203677D02*
X0159267Y0203677D01*
X0159267Y0207058D01*
X0157078Y0207058D01*
X0156671Y0206949D01*
X0156307Y0206739D01*
X0156009Y0206441D01*
X0155798Y0206076D01*
X0155689Y0205669D01*
X0155689Y0203677D01*
X0155689Y0204992D02*
X0153800Y0204992D01*
X0153800Y0206191D02*
X0155864Y0206191D01*
X0153800Y0207389D02*
X0164600Y0207389D01*
X0164600Y0206191D02*
X0163832Y0206191D01*
X0163898Y0206076D02*
X0163687Y0206441D01*
X0163390Y0206739D01*
X0163025Y0206949D01*
X0162618Y0207058D01*
X0160429Y0207058D01*
X0160429Y0203677D01*
X0164007Y0203677D01*
X0164007Y0205669D01*
X0163898Y0206076D01*
X0164007Y0204992D02*
X0164600Y0204992D01*
X0164600Y0203794D02*
X0164007Y0203794D01*
X0164600Y0208588D02*
X0153800Y0208588D01*
X0153800Y0209786D02*
X0164600Y0209786D01*
X0160429Y0206191D02*
X0159267Y0206191D01*
X0159267Y0204992D02*
X0160429Y0204992D01*
X0160429Y0203794D02*
X0159267Y0203794D01*
X0159267Y0200198D02*
X0160429Y0200198D01*
X0159848Y0215104D02*
X0166728Y0221984D01*
X0166728Y0241472D01*
X0178352Y0253096D01*
X0182311Y0250154D02*
X0178352Y0246195D01*
X0178352Y0240104D01*
X0187614Y0240104D01*
X0187850Y0240340D01*
X0192203Y0239749D02*
X0194400Y0239749D01*
X0194400Y0240947D02*
X0192203Y0240947D01*
X0192203Y0242146D02*
X0194400Y0242146D01*
X0194400Y0243344D02*
X0192203Y0243344D01*
X0194400Y0244543D02*
X0180352Y0244543D01*
X0180727Y0245741D02*
X0194400Y0245741D01*
X0194400Y0246940D02*
X0181925Y0246940D01*
X0183124Y0248139D02*
X0194400Y0248139D01*
X0194400Y0249337D02*
X0184311Y0249337D01*
X0184311Y0250536D02*
X0194400Y0250536D01*
X0194400Y0251734D02*
X0184311Y0251734D01*
X0184311Y0252933D02*
X0194400Y0252933D01*
X0194400Y0254131D02*
X0191896Y0254131D01*
X0191785Y0254020D02*
X0192083Y0254318D01*
X0192294Y0254683D01*
X0192403Y0255090D01*
X0192403Y0257260D01*
X0188450Y0257260D01*
X0188450Y0253701D01*
X0191013Y0253701D01*
X0191420Y0253810D01*
X0191785Y0254020D01*
X0192403Y0255330D02*
X0194400Y0255330D01*
X0194400Y0256528D02*
X0192403Y0256528D01*
X0194400Y0257727D02*
X0188450Y0257727D01*
X0188450Y0256528D02*
X0187250Y0256528D01*
X0187250Y0255330D02*
X0188450Y0255330D01*
X0188450Y0254131D02*
X0187250Y0254131D01*
X0187250Y0257727D02*
X0183451Y0257727D01*
X0183297Y0258925D02*
X0182252Y0258925D01*
X0183297Y0260124D02*
X0181054Y0260124D01*
X0180352Y0261322D02*
X0183571Y0261322D01*
X0183497Y0262521D02*
X0182311Y0262521D01*
X0178352Y0259997D02*
X0182311Y0256038D01*
X0182311Y0250154D01*
X0182013Y0243344D02*
X0183497Y0243344D01*
X0183497Y0242146D02*
X0182311Y0242146D01*
X0182311Y0237352D02*
X0183497Y0237352D01*
X0183474Y0236153D02*
X0180352Y0236153D01*
X0181223Y0234955D02*
X0183297Y0234955D01*
X0183297Y0233756D02*
X0182421Y0233756D01*
X0183620Y0232558D02*
X0187250Y0232558D01*
X0187250Y0231359D02*
X0188450Y0231359D01*
X0188450Y0232260D02*
X0188450Y0228701D01*
X0191013Y0228701D01*
X0191420Y0228810D01*
X0191785Y0229020D01*
X0192083Y0229318D01*
X0192294Y0229683D01*
X0192403Y0230090D01*
X0192403Y0232260D01*
X0188450Y0232260D01*
X0188450Y0232558D02*
X0194400Y0232558D01*
X0194400Y0233756D02*
X0192403Y0233756D01*
X0192403Y0234955D02*
X0194400Y0234955D01*
X0194400Y0236153D02*
X0192226Y0236153D01*
X0192203Y0237352D02*
X0194400Y0237352D01*
X0194400Y0238550D02*
X0192203Y0238550D01*
X0192403Y0231359D02*
X0194400Y0231359D01*
X0194400Y0230161D02*
X0192403Y0230161D01*
X0191684Y0228962D02*
X0194400Y0228962D01*
X0194400Y0227764D02*
X0184311Y0227764D01*
X0184311Y0226565D02*
X0194400Y0226565D01*
X0194400Y0225367D02*
X0184311Y0225367D01*
X0184154Y0224168D02*
X0194400Y0224168D01*
X0194400Y0222970D02*
X0182955Y0222970D01*
X0181757Y0221771D02*
X0194400Y0221771D01*
X0194400Y0220573D02*
X0180558Y0220573D01*
X0180352Y0219374D02*
X0194400Y0219374D01*
X0194400Y0218176D02*
X0192203Y0218176D01*
X0192203Y0216977D02*
X0194400Y0216977D01*
X0194400Y0215779D02*
X0192203Y0215779D01*
X0192203Y0214580D02*
X0194400Y0214580D01*
X0194400Y0213382D02*
X0192203Y0213382D01*
X0192185Y0212183D02*
X0194400Y0212183D01*
X0194400Y0210985D02*
X0192308Y0210985D01*
X0192403Y0209786D02*
X0194400Y0209786D01*
X0194400Y0208588D02*
X0192403Y0208588D01*
X0188450Y0204992D02*
X0187250Y0204992D01*
X0187250Y0203794D02*
X0188450Y0203794D01*
X0184340Y0203794D02*
X0184311Y0203794D01*
X0178352Y0209997D02*
X0178352Y0215104D01*
X0187614Y0215104D01*
X0187850Y0215340D01*
X0183497Y0218176D02*
X0182181Y0218176D01*
X0178352Y0221195D02*
X0182311Y0225154D01*
X0182311Y0231038D01*
X0178352Y0234997D01*
X0178352Y0240104D01*
X0178352Y0228096D02*
X0166600Y0216344D01*
X0160429Y0224168D02*
X0159267Y0224168D01*
X0159267Y0225367D02*
X0160429Y0225367D01*
X0160429Y0226565D02*
X0159267Y0226565D01*
X0159267Y0228962D02*
X0160429Y0228962D01*
X0160429Y0230161D02*
X0159267Y0230161D01*
X0159267Y0231359D02*
X0160429Y0231359D01*
X0155962Y0231359D02*
X0153800Y0231359D01*
X0153800Y0230161D02*
X0155689Y0230161D01*
X0155889Y0237352D02*
X0153800Y0237352D01*
X0153800Y0238550D02*
X0155889Y0238550D01*
X0155889Y0239749D02*
X0153800Y0239749D01*
X0153800Y0240947D02*
X0155889Y0240947D01*
X0155889Y0242146D02*
X0153800Y0242146D01*
X0153800Y0243344D02*
X0156187Y0243344D01*
X0159848Y0240104D02*
X0166728Y0246984D01*
X0166728Y0266472D01*
X0178352Y0278096D01*
X0174393Y0278101D02*
X0168600Y0278101D01*
X0168600Y0276903D02*
X0174330Y0276903D01*
X0173132Y0275704D02*
X0168600Y0275704D01*
X0168600Y0274506D02*
X0171933Y0274506D01*
X0170735Y0273307D02*
X0168600Y0273307D01*
X0168600Y0272109D02*
X0169536Y0272109D01*
X0168338Y0270910D02*
X0168237Y0270910D01*
X0167139Y0269712D02*
X0167073Y0269712D01*
X0165941Y0268513D02*
X0165917Y0268513D01*
X0164728Y0266116D02*
X0163807Y0266116D01*
X0163807Y0264918D02*
X0164728Y0264918D01*
X0164728Y0263719D02*
X0163807Y0263719D01*
X0163807Y0262521D02*
X0164728Y0262521D01*
X0164728Y0256528D02*
X0163600Y0256528D01*
X0164007Y0255330D02*
X0164728Y0255330D01*
X0164728Y0254131D02*
X0164007Y0254131D01*
X0160429Y0255330D02*
X0159267Y0255330D01*
X0159267Y0256528D02*
X0160429Y0256528D01*
X0160429Y0251734D02*
X0159267Y0251734D01*
X0159267Y0250536D02*
X0160429Y0250536D01*
X0160429Y0249337D02*
X0159267Y0249337D01*
X0161515Y0269712D02*
X0151600Y0269712D01*
X0150401Y0270910D02*
X0162671Y0270910D01*
X0163827Y0272109D02*
X0149203Y0272109D01*
X0148004Y0273307D02*
X0164600Y0273307D01*
X0164600Y0274506D02*
X0163442Y0274506D01*
X0163390Y0274454D02*
X0163687Y0274751D01*
X0163898Y0275116D01*
X0164007Y0275523D01*
X0164007Y0277515D01*
X0160429Y0277515D01*
X0160429Y0274134D01*
X0162618Y0274134D01*
X0163025Y0274243D01*
X0163390Y0274454D01*
X0164007Y0275704D02*
X0164600Y0275704D01*
X0164600Y0276903D02*
X0164007Y0276903D01*
X0164600Y0278101D02*
X0160429Y0278101D01*
X0160429Y0278677D02*
X0164007Y0278677D01*
X0164007Y0280669D01*
X0163898Y0281076D01*
X0163687Y0281441D01*
X0163390Y0281739D01*
X0163025Y0281949D01*
X0162618Y0282058D01*
X0160429Y0282058D01*
X0160429Y0278677D01*
X0159267Y0278677D01*
X0159267Y0277515D01*
X0160429Y0277515D01*
X0160429Y0278677D01*
X0160429Y0279300D02*
X0159267Y0279300D01*
X0159267Y0278677D02*
X0159267Y0282058D01*
X0157078Y0282058D01*
X0156671Y0281949D01*
X0156307Y0281739D01*
X0156009Y0281441D01*
X0155798Y0281076D01*
X0155689Y0280669D01*
X0155689Y0278677D01*
X0159267Y0278677D01*
X0159267Y0278101D02*
X0143210Y0278101D01*
X0144408Y0276903D02*
X0155689Y0276903D01*
X0155689Y0277515D02*
X0155689Y0275523D01*
X0155798Y0275116D01*
X0156009Y0274751D01*
X0156307Y0274454D01*
X0156671Y0274243D01*
X0157078Y0274134D01*
X0159267Y0274134D01*
X0159267Y0277515D01*
X0155689Y0277515D01*
X0155689Y0279300D02*
X0053561Y0279300D01*
X0053561Y0280498D02*
X0155689Y0280498D01*
X0156265Y0281697D02*
X0052902Y0281697D01*
X0053561Y0278101D02*
X0069990Y0278101D01*
X0068792Y0276903D02*
X0053827Y0276903D01*
X0055118Y0275704D02*
X0067593Y0275704D01*
X0066394Y0274506D02*
X0056409Y0274506D01*
X0057721Y0273307D02*
X0065196Y0273307D01*
X0063997Y0272109D02*
X0058600Y0272109D01*
X0058627Y0270910D02*
X0062799Y0270910D01*
X0061600Y0269712D02*
X0058600Y0269712D01*
X0058600Y0268513D02*
X0060402Y0268513D01*
X0059400Y0267315D02*
X0058600Y0267315D01*
X0058600Y0266116D02*
X0059400Y0266116D01*
X0059400Y0264918D02*
X0058600Y0264918D01*
X0058600Y0263719D02*
X0059400Y0263719D01*
X0059400Y0262521D02*
X0058600Y0262521D01*
X0058600Y0261322D02*
X0059400Y0261322D01*
X0059400Y0260124D02*
X0058600Y0260124D01*
X0058600Y0258925D02*
X0059400Y0258925D01*
X0059400Y0257727D02*
X0058600Y0257727D01*
X0058600Y0256528D02*
X0059400Y0256528D01*
X0059400Y0255330D02*
X0058600Y0255330D01*
X0058600Y0254131D02*
X0059400Y0254131D01*
X0059400Y0252933D02*
X0058600Y0252933D01*
X0058600Y0251734D02*
X0059400Y0251734D01*
X0059400Y0250536D02*
X0058600Y0250536D01*
X0058600Y0249337D02*
X0059400Y0249337D01*
X0059400Y0248139D02*
X0058600Y0248139D01*
X0058600Y0246940D02*
X0059400Y0246940D01*
X0059400Y0245741D02*
X0058600Y0245741D01*
X0058600Y0244543D02*
X0059400Y0244543D01*
X0059400Y0243344D02*
X0058600Y0243344D01*
X0058600Y0242146D02*
X0059400Y0242146D01*
X0059400Y0240947D02*
X0058600Y0240947D01*
X0058600Y0239749D02*
X0059400Y0239749D01*
X0059400Y0238550D02*
X0058600Y0238550D01*
X0058600Y0237352D02*
X0059400Y0237352D01*
X0059400Y0236153D02*
X0058600Y0236153D01*
X0058600Y0234955D02*
X0059400Y0234955D01*
X0059400Y0233756D02*
X0058600Y0233756D01*
X0058600Y0232558D02*
X0059400Y0232558D01*
X0059400Y0231359D02*
X0058600Y0231359D01*
X0058600Y0230161D02*
X0059400Y0230161D01*
X0059400Y0228962D02*
X0058600Y0228962D01*
X0058600Y0227764D02*
X0059400Y0227764D01*
X0059400Y0226565D02*
X0058600Y0226565D01*
X0058600Y0225367D02*
X0059400Y0225367D01*
X0059400Y0224168D02*
X0058600Y0224168D01*
X0058600Y0222970D02*
X0059400Y0222970D01*
X0059400Y0221771D02*
X0058600Y0221771D01*
X0058600Y0220573D02*
X0059400Y0220573D01*
X0059400Y0219374D02*
X0058600Y0219374D01*
X0058600Y0218176D02*
X0059400Y0218176D01*
X0059400Y0216977D02*
X0058600Y0216977D01*
X0058600Y0215779D02*
X0059400Y0215779D01*
X0059400Y0214580D02*
X0058600Y0214580D01*
X0058600Y0213382D02*
X0059400Y0213382D01*
X0059400Y0212183D02*
X0058600Y0212183D01*
X0058600Y0210985D02*
X0059400Y0210985D01*
X0059400Y0209786D02*
X0058600Y0209786D01*
X0058600Y0208588D02*
X0059400Y0208588D01*
X0059400Y0207389D02*
X0058600Y0207389D01*
X0058600Y0206191D02*
X0059400Y0206191D01*
X0059400Y0204992D02*
X0058600Y0204992D01*
X0058600Y0203794D02*
X0059400Y0203794D01*
X0059400Y0202595D02*
X0058600Y0202595D01*
X0058600Y0201397D02*
X0059400Y0201397D01*
X0059400Y0200198D02*
X0058600Y0200198D01*
X0058600Y0199000D02*
X0059400Y0199000D01*
X0059400Y0197801D02*
X0058600Y0197801D01*
X0058600Y0196603D02*
X0059400Y0196603D01*
X0059685Y0195404D02*
X0058600Y0195404D01*
X0058600Y0194205D02*
X0060883Y0194205D01*
X0062082Y0193007D02*
X0058600Y0193007D01*
X0059220Y0191808D02*
X0063280Y0191808D01*
X0064479Y0190610D02*
X0060418Y0190610D01*
X0061617Y0189411D02*
X0065677Y0189411D01*
X0066876Y0188213D02*
X0062815Y0188213D01*
X0063600Y0187014D02*
X0068074Y0187014D01*
X0069273Y0185816D02*
X0063600Y0185816D01*
X0063600Y0184617D02*
X0070471Y0184617D01*
X0070727Y0181022D02*
X0063600Y0181022D01*
X0063600Y0182220D02*
X0164600Y0182220D01*
X0164600Y0181022D02*
X0157311Y0181022D01*
X0157311Y0181038D02*
X0156491Y0181858D01*
X0150213Y0181858D01*
X0149393Y0181038D01*
X0149393Y0175154D01*
X0150213Y0174334D01*
X0154112Y0174334D01*
X0156852Y0171377D01*
X0156817Y0171293D01*
X0156817Y0169907D01*
X0157348Y0168627D01*
X0158327Y0167648D01*
X0159607Y0167117D01*
X0160993Y0167117D01*
X0162273Y0167648D01*
X0163252Y0168627D01*
X0163783Y0169907D01*
X0163783Y0171293D01*
X0163252Y0172573D01*
X0162273Y0173552D01*
X0160993Y0174083D01*
X0159799Y0174083D01*
X0157311Y0176767D01*
X0157311Y0181038D01*
X0157311Y0179823D02*
X0164600Y0179823D01*
X0164600Y0178625D02*
X0157311Y0178625D01*
X0157311Y0177426D02*
X0164600Y0177426D01*
X0164600Y0176228D02*
X0157811Y0176228D01*
X0158921Y0175029D02*
X0164600Y0175029D01*
X0164600Y0173831D02*
X0161601Y0173831D01*
X0163193Y0172632D02*
X0164600Y0172632D01*
X0164600Y0171434D02*
X0163724Y0171434D01*
X0163783Y0170235D02*
X0164600Y0170235D01*
X0164600Y0169037D02*
X0163422Y0169037D01*
X0162463Y0167838D02*
X0164600Y0167838D01*
X0164600Y0166640D02*
X0157311Y0166640D01*
X0157311Y0167838D02*
X0158136Y0167838D01*
X0157178Y0169037D02*
X0136848Y0169037D01*
X0136848Y0170235D02*
X0156817Y0170235D01*
X0156800Y0171434D02*
X0136593Y0171434D01*
X0135394Y0172632D02*
X0155689Y0172632D01*
X0154578Y0173831D02*
X0134196Y0173831D01*
X0134267Y0175029D02*
X0135429Y0175029D01*
X0135429Y0176228D02*
X0134267Y0176228D01*
X0134267Y0177426D02*
X0135429Y0177426D01*
X0135429Y0178625D02*
X0149393Y0178625D01*
X0149393Y0179823D02*
X0139007Y0179823D01*
X0139007Y0180669D02*
X0139007Y0178677D01*
X0135429Y0178677D01*
X0135429Y0182058D01*
X0137618Y0182058D01*
X0138025Y0181949D01*
X0138390Y0181739D01*
X0138687Y0181441D01*
X0138898Y0181076D01*
X0139007Y0180669D01*
X0138913Y0181022D02*
X0149393Y0181022D01*
X0149393Y0177426D02*
X0139007Y0177426D01*
X0139007Y0176228D02*
X0149393Y0176228D01*
X0149518Y0175029D02*
X0138848Y0175029D01*
X0135429Y0179823D02*
X0134267Y0179823D01*
X0134267Y0181022D02*
X0135429Y0181022D01*
X0142729Y0184617D02*
X0164600Y0184617D01*
X0164600Y0183419D02*
X0063600Y0183419D01*
X0061600Y0186600D02*
X0061600Y0170350D01*
X0056098Y0165004D01*
X0060057Y0165441D02*
X0070643Y0165441D01*
X0070643Y0164243D02*
X0060057Y0164243D01*
X0060057Y0163044D02*
X0069814Y0163044D01*
X0068615Y0161846D02*
X0059841Y0161846D01*
X0060651Y0166640D02*
X0070643Y0166640D01*
X0070643Y0167838D02*
X0061885Y0167838D01*
X0063118Y0169037D02*
X0080348Y0169037D01*
X0079534Y0170235D02*
X0063600Y0170235D01*
X0063600Y0171434D02*
X0078336Y0171434D01*
X0077137Y0172632D02*
X0063600Y0172632D01*
X0063600Y0173831D02*
X0075939Y0173831D01*
X0074602Y0177996D02*
X0082348Y0170250D01*
X0082348Y0165204D01*
X0084348Y0169037D02*
X0106598Y0169037D01*
X0105984Y0170235D02*
X0084348Y0170235D01*
X0083993Y0171434D02*
X0104786Y0171434D01*
X0103587Y0172632D02*
X0082794Y0172632D01*
X0081596Y0173831D02*
X0102389Y0173831D01*
X0100852Y0178196D02*
X0108598Y0170450D01*
X0108598Y0165104D01*
X0110598Y0169037D02*
X0132848Y0169037D01*
X0132134Y0170235D02*
X0110598Y0170235D01*
X0110443Y0171434D02*
X0130936Y0171434D01*
X0129737Y0172632D02*
X0109244Y0172632D01*
X0108046Y0173831D02*
X0128539Y0173831D01*
X0127102Y0178096D02*
X0134848Y0170350D01*
X0134848Y0165104D01*
X0138807Y0165441D02*
X0139258Y0165441D01*
X0138807Y0166640D02*
X0140457Y0166640D01*
X0138807Y0167838D02*
X0149393Y0167838D01*
X0149393Y0163044D02*
X0142518Y0163044D01*
X0141319Y0161846D02*
X0149709Y0161846D01*
X0143061Y0158250D02*
X0164600Y0158250D01*
X0164600Y0159449D02*
X0138922Y0159449D01*
X0140121Y0160647D02*
X0164600Y0160647D01*
X0164600Y0152258D02*
X0164007Y0152258D01*
X0164007Y0151059D02*
X0164600Y0151059D01*
X0164532Y0149861D02*
X0163750Y0149861D01*
X0163334Y0148662D02*
X0152649Y0148662D01*
X0151451Y0149861D02*
X0155946Y0149861D01*
X0155689Y0151059D02*
X0150252Y0151059D01*
X0149054Y0152258D02*
X0155689Y0152258D01*
X0155889Y0142670D02*
X0153800Y0142670D01*
X0153800Y0141471D02*
X0155889Y0141471D01*
X0155604Y0140272D02*
X0153800Y0140272D01*
X0153800Y0139074D02*
X0155805Y0139074D01*
X0155889Y0137875D02*
X0153800Y0137875D01*
X0153800Y0136677D02*
X0156374Y0136677D01*
X0159267Y0131883D02*
X0160429Y0131883D01*
X0160429Y0130684D02*
X0159267Y0130684D01*
X0159267Y0129486D02*
X0160429Y0129486D01*
X0160429Y0127089D02*
X0159267Y0127089D01*
X0159267Y0125890D02*
X0160429Y0125890D01*
X0160429Y0124692D02*
X0159267Y0124692D01*
X0156068Y0124692D02*
X0153800Y0124692D01*
X0153800Y0125890D02*
X0155689Y0125890D01*
X0166600Y0116344D02*
X0178352Y0128096D01*
X0178352Y0121195D02*
X0178352Y0115104D01*
X0182311Y0112707D02*
X0183497Y0112707D01*
X0183724Y0111508D02*
X0181657Y0111508D01*
X0180868Y0110310D02*
X0183297Y0110310D01*
X0183297Y0109111D02*
X0182066Y0109111D01*
X0183265Y0107913D02*
X0187250Y0107913D01*
X0187250Y0106714D02*
X0188450Y0106714D01*
X0188450Y0105516D02*
X0187250Y0105516D01*
X0187250Y0104317D02*
X0188450Y0104317D01*
X0188450Y0107913D02*
X0194400Y0107913D01*
X0183497Y0087538D02*
X0182311Y0087538D01*
X0183581Y0086339D02*
X0180352Y0086339D01*
X0181037Y0085141D02*
X0183297Y0085141D01*
X0183297Y0083942D02*
X0182235Y0083942D01*
X0183434Y0082744D02*
X0187250Y0082744D01*
X0187250Y0081545D02*
X0188450Y0081545D01*
X0188450Y0080347D02*
X0187250Y0080347D01*
X0187250Y0079148D02*
X0188450Y0079148D01*
X0188450Y0082744D02*
X0194400Y0082744D01*
X0178352Y0078096D02*
X0166600Y0066344D01*
X0166600Y0059100D01*
X0151728Y0044228D01*
X0149393Y0037201D02*
X0141674Y0037201D01*
X0138211Y0032406D02*
X0194295Y0032406D01*
X0194400Y0033605D02*
X0185518Y0033605D01*
X0186717Y0034803D02*
X0194400Y0034803D01*
X0194400Y0036002D02*
X0187915Y0036002D01*
X0191868Y0037201D02*
X0194400Y0037201D01*
X0194400Y0038399D02*
X0191868Y0038399D01*
X0185722Y0039598D02*
X0184978Y0039598D01*
X0184978Y0040796D02*
X0185722Y0040796D01*
X0185722Y0041995D02*
X0184978Y0041995D01*
X0181905Y0039710D02*
X0181570Y0040045D01*
X0171295Y0040045D01*
X0178352Y0065104D02*
X0178352Y0071195D01*
X0166600Y0071856D02*
X0166600Y0091344D01*
X0178352Y0103096D01*
X0178352Y0096195D02*
X0178352Y0090104D01*
X0164600Y0089935D02*
X0163807Y0089935D01*
X0163807Y0088737D02*
X0164600Y0088737D01*
X0164600Y0087538D02*
X0163807Y0087538D01*
X0163807Y0091134D02*
X0164600Y0091134D01*
X0160429Y0081545D02*
X0159267Y0081545D01*
X0159267Y0080347D02*
X0160429Y0080347D01*
X0160429Y0079148D02*
X0159267Y0079148D01*
X0159267Y0076751D02*
X0160429Y0076751D01*
X0160429Y0075553D02*
X0159267Y0075553D01*
X0159267Y0074354D02*
X0160429Y0074354D01*
X0156205Y0068362D02*
X0146473Y0068362D01*
X0145275Y0067163D02*
X0155889Y0067163D01*
X0155889Y0065965D02*
X0144076Y0065965D01*
X0155889Y0062369D02*
X0053561Y0062369D01*
X0049602Y0065104D02*
X0049602Y0059100D01*
X0051804Y0056377D02*
X0052222Y0056377D01*
X0055517Y0056377D02*
X0056679Y0056377D01*
X0056679Y0055178D02*
X0055517Y0055178D01*
X0055517Y0053980D02*
X0056679Y0053980D01*
X0056679Y0052781D02*
X0062453Y0052781D01*
X0063651Y0053980D02*
X0060257Y0053980D01*
X0060257Y0051583D02*
X0061254Y0051583D01*
X0053135Y0049186D02*
X0044343Y0049186D01*
X0043144Y0050384D02*
X0051976Y0050384D01*
X0051939Y0051583D02*
X0041946Y0051583D01*
X0049602Y0065104D02*
X0049602Y0071195D01*
X0046442Y0074354D02*
X0034468Y0074354D01*
X0035257Y0075553D02*
X0045643Y0075553D01*
X0042861Y0076751D02*
X0035257Y0076751D01*
X0035257Y0078677D02*
X0035257Y0080669D01*
X0035148Y0081076D01*
X0034937Y0081441D01*
X0034640Y0081739D01*
X0034275Y0081949D01*
X0033868Y0082058D01*
X0031679Y0082058D01*
X0031679Y0078677D01*
X0035257Y0078677D01*
X0035257Y0079148D02*
X0040215Y0079148D01*
X0041538Y0077950D02*
X0031679Y0077950D01*
X0030517Y0077950D02*
X0018800Y0077950D01*
X0018800Y0079148D02*
X0026939Y0079148D01*
X0026939Y0078677D02*
X0030517Y0078677D01*
X0030517Y0082058D01*
X0028328Y0082058D01*
X0027921Y0081949D01*
X0027557Y0081739D01*
X0027259Y0081441D01*
X0027048Y0081076D01*
X0026939Y0080669D01*
X0026939Y0078677D01*
X0026939Y0080347D02*
X0018800Y0080347D01*
X0018800Y0081545D02*
X0027363Y0081545D01*
X0030517Y0081545D02*
X0031679Y0081545D01*
X0031679Y0080347D02*
X0030517Y0080347D01*
X0030517Y0079148D02*
X0031679Y0079148D01*
X0031679Y0076751D02*
X0030517Y0076751D01*
X0030517Y0075553D02*
X0031679Y0075553D01*
X0031679Y0074354D02*
X0030517Y0074354D01*
X0026939Y0075553D02*
X0018800Y0075553D01*
X0018800Y0076751D02*
X0026939Y0076751D01*
X0032275Y0086339D02*
X0018800Y0086339D01*
X0018800Y0085141D02*
X0033598Y0085141D01*
X0034922Y0083942D02*
X0018800Y0083942D01*
X0018800Y0082744D02*
X0036245Y0082744D01*
X0037568Y0081545D02*
X0034833Y0081545D01*
X0035257Y0080347D02*
X0038891Y0080347D01*
X0043527Y0081545D02*
X0046150Y0081545D01*
X0045643Y0080347D02*
X0044850Y0080347D01*
X0044356Y0128096D02*
X0049602Y0128096D01*
X0071875Y0159449D02*
X0078374Y0159449D01*
X0077175Y0160647D02*
X0073074Y0160647D01*
X0074602Y0165004D02*
X0075696Y0165004D01*
X0070668Y0175029D02*
X0063600Y0175029D01*
X0063600Y0176228D02*
X0070643Y0176228D01*
X0070643Y0177426D02*
X0063600Y0177426D01*
X0063600Y0178625D02*
X0070643Y0178625D01*
X0070643Y0179823D02*
X0063600Y0179823D01*
X0056679Y0179823D02*
X0055517Y0179823D01*
X0055517Y0178625D02*
X0056679Y0178625D01*
X0056679Y0181022D02*
X0055517Y0181022D01*
X0047602Y0182220D02*
X0047558Y0182220D01*
X0047602Y0183419D02*
X0046360Y0183419D01*
X0045161Y0184617D02*
X0047602Y0184617D01*
X0047602Y0185816D02*
X0043962Y0185816D01*
X0042764Y0187014D02*
X0045790Y0187014D01*
X0045643Y0188213D02*
X0041565Y0188213D01*
X0040367Y0189411D02*
X0045643Y0189411D01*
X0045643Y0190610D02*
X0039168Y0190610D01*
X0037970Y0191808D02*
X0045643Y0191808D01*
X0045643Y0193007D02*
X0035057Y0193007D01*
X0034910Y0187014D02*
X0037107Y0187014D01*
X0038306Y0185816D02*
X0018800Y0185816D01*
X0018800Y0187014D02*
X0027286Y0187014D01*
X0027139Y0188213D02*
X0018800Y0188213D01*
X0018800Y0189411D02*
X0027139Y0189411D01*
X0020289Y0181022D02*
X0043100Y0181022D01*
X0044298Y0179823D02*
X0021488Y0179823D01*
X0019091Y0182220D02*
X0041901Y0182220D01*
X0040703Y0183419D02*
X0018800Y0183419D01*
X0018800Y0184617D02*
X0039504Y0184617D01*
X0031679Y0200198D02*
X0030517Y0200198D01*
X0030517Y0201397D02*
X0031679Y0201397D01*
X0031679Y0203677D02*
X0035257Y0203677D01*
X0035257Y0205669D01*
X0035148Y0206076D01*
X0034937Y0206441D01*
X0034640Y0206739D01*
X0034275Y0206949D01*
X0033868Y0207058D01*
X0031679Y0207058D01*
X0031679Y0203677D01*
X0031679Y0203794D02*
X0030517Y0203794D01*
X0030517Y0204992D02*
X0031679Y0204992D01*
X0031679Y0206191D02*
X0030517Y0206191D01*
X0027026Y0200198D02*
X0018800Y0200198D01*
X0018800Y0215779D02*
X0027139Y0215779D01*
X0027139Y0216977D02*
X0018800Y0216977D01*
X0018800Y0218176D02*
X0027269Y0218176D01*
X0030517Y0224168D02*
X0031679Y0224168D01*
X0031679Y0225367D02*
X0030517Y0225367D01*
X0030517Y0226565D02*
X0031679Y0226565D01*
X0031679Y0228962D02*
X0030517Y0228962D01*
X0030517Y0230161D02*
X0031679Y0230161D01*
X0031679Y0231359D02*
X0030517Y0231359D01*
X0027212Y0231359D02*
X0018800Y0231359D01*
X0018800Y0230161D02*
X0026939Y0230161D01*
X0027139Y0237352D02*
X0018800Y0237352D01*
X0018800Y0238550D02*
X0027139Y0238550D01*
X0032481Y0236153D02*
X0018800Y0236153D01*
X0018800Y0234955D02*
X0033804Y0234955D01*
X0035127Y0233756D02*
X0018800Y0233756D01*
X0018800Y0232558D02*
X0036450Y0232558D01*
X0037774Y0231359D02*
X0034984Y0231359D01*
X0035257Y0230161D02*
X0039097Y0230161D01*
X0040420Y0228962D02*
X0035257Y0228962D01*
X0039762Y0234955D02*
X0047602Y0234955D01*
X0047602Y0236153D02*
X0038439Y0236153D01*
X0037116Y0237352D02*
X0045643Y0237352D01*
X0045643Y0238550D02*
X0035793Y0238550D01*
X0035057Y0239749D02*
X0045643Y0239749D01*
X0045643Y0240947D02*
X0035057Y0240947D01*
X0035057Y0242146D02*
X0045643Y0242146D01*
X0045941Y0243344D02*
X0034759Y0243344D01*
X0034438Y0249337D02*
X0046460Y0249337D01*
X0045643Y0250536D02*
X0035257Y0250536D01*
X0035257Y0251734D02*
X0042880Y0251734D01*
X0044869Y0255330D02*
X0045643Y0255330D01*
X0046133Y0256528D02*
X0043546Y0256528D01*
X0042223Y0257727D02*
X0049044Y0257727D01*
X0047846Y0258925D02*
X0040899Y0258925D01*
X0039576Y0260124D02*
X0047602Y0260124D01*
X0047602Y0261322D02*
X0038253Y0261322D01*
X0036930Y0262521D02*
X0045643Y0262521D01*
X0045643Y0263719D02*
X0035606Y0263719D01*
X0035057Y0264918D02*
X0045643Y0264918D01*
X0045643Y0266116D02*
X0035057Y0266116D01*
X0035057Y0267315D02*
X0045643Y0267315D01*
X0046110Y0268513D02*
X0034590Y0268513D01*
X0033868Y0274134D02*
X0031679Y0274134D01*
X0031679Y0277515D01*
X0030517Y0277515D01*
X0030517Y0274134D01*
X0028328Y0274134D01*
X0027921Y0274243D01*
X0027557Y0274454D01*
X0027259Y0274751D01*
X0027048Y0275116D01*
X0026939Y0275523D01*
X0026939Y0277515D01*
X0030517Y0277515D01*
X0030517Y0278677D01*
X0026939Y0278677D01*
X0026939Y0280669D01*
X0027048Y0281076D01*
X0027259Y0281441D01*
X0027557Y0281739D01*
X0027921Y0281949D01*
X0028328Y0282058D01*
X0030517Y0282058D01*
X0030517Y0278677D01*
X0031679Y0278677D01*
X0031679Y0282058D01*
X0033868Y0282058D01*
X0034275Y0281949D01*
X0034640Y0281739D01*
X0034937Y0281441D01*
X0035148Y0281076D01*
X0035257Y0280669D01*
X0035257Y0278677D01*
X0031679Y0278677D01*
X0031679Y0277515D01*
X0035257Y0277515D01*
X0035257Y0275523D01*
X0035148Y0275116D01*
X0034937Y0274751D01*
X0034640Y0274454D01*
X0034275Y0274243D01*
X0033868Y0274134D01*
X0034692Y0274506D02*
X0040866Y0274506D01*
X0039667Y0275704D02*
X0035257Y0275704D01*
X0035257Y0276903D02*
X0039600Y0276903D01*
X0039600Y0278101D02*
X0031679Y0278101D01*
X0030517Y0278101D02*
X0018800Y0278101D01*
X0018800Y0276903D02*
X0026939Y0276903D01*
X0026939Y0275704D02*
X0018800Y0275704D01*
X0018800Y0274506D02*
X0027504Y0274506D01*
X0030517Y0274506D02*
X0031679Y0274506D01*
X0031679Y0275704D02*
X0030517Y0275704D01*
X0030517Y0276903D02*
X0031679Y0276903D01*
X0031679Y0279300D02*
X0030517Y0279300D01*
X0030517Y0280498D02*
X0031679Y0280498D01*
X0031679Y0281697D02*
X0030517Y0281697D01*
X0029159Y0284094D02*
X0018800Y0284094D01*
X0018800Y0285292D02*
X0026995Y0285292D01*
X0025961Y0286491D02*
X0018800Y0286491D01*
X0018800Y0287689D02*
X0025464Y0287689D01*
X0025300Y0288888D02*
X0018800Y0288888D01*
X0018800Y0290086D02*
X0025300Y0290086D01*
X0025785Y0291285D02*
X0018800Y0291285D01*
X0018800Y0292483D02*
X0026571Y0292483D01*
X0028135Y0293682D02*
X0018800Y0293682D01*
X0018800Y0294880D02*
X0027407Y0294880D01*
X0026209Y0296079D02*
X0018800Y0296079D01*
X0018800Y0297277D02*
X0025635Y0297277D01*
X0025300Y0298476D02*
X0018800Y0298476D01*
X0018800Y0299674D02*
X0025300Y0299674D01*
X0025614Y0300873D02*
X0018800Y0300873D01*
X0018800Y0302072D02*
X0026159Y0302072D01*
X0027358Y0303270D02*
X0018800Y0303270D01*
X0018800Y0304469D02*
X0027815Y0304469D01*
X0026343Y0305667D02*
X0018800Y0305667D01*
X0019977Y0306866D02*
X0025590Y0306866D01*
X0025198Y0308064D02*
X0021175Y0308064D01*
X0022374Y0309263D02*
X0033600Y0309263D01*
X0034600Y0309263D02*
X0178600Y0309263D01*
X0179600Y0309263D02*
X0190826Y0309263D01*
X0189628Y0310461D02*
X0187930Y0310461D01*
X0187969Y0310341D02*
X0187712Y0311134D01*
X0187333Y0311878D01*
X0186843Y0312553D01*
X0186253Y0313143D01*
X0185578Y0313633D01*
X0184834Y0314012D01*
X0184041Y0314269D01*
X0183217Y0314400D01*
X0179600Y0314400D01*
X0179600Y0309600D01*
X0188087Y0309600D01*
X0187969Y0310341D01*
X0188429Y0311660D02*
X0187444Y0311660D01*
X0187231Y0312858D02*
X0186537Y0312858D01*
X0186032Y0314057D02*
X0184696Y0314057D01*
X0179600Y0314057D02*
X0178600Y0314057D01*
X0178600Y0312858D02*
X0179600Y0312858D01*
X0179600Y0311660D02*
X0178600Y0311660D01*
X0178600Y0310461D02*
X0179600Y0310461D01*
X0173504Y0314057D02*
X0039696Y0314057D01*
X0039834Y0314012D02*
X0039041Y0314269D01*
X0038217Y0314400D01*
X0034600Y0314400D01*
X0034600Y0309600D01*
X0043087Y0309600D01*
X0042969Y0310341D01*
X0042712Y0311134D01*
X0042333Y0311878D01*
X0041843Y0312553D01*
X0041253Y0313143D01*
X0040578Y0313633D01*
X0039834Y0314012D01*
X0041537Y0312858D02*
X0171663Y0312858D01*
X0170756Y0311660D02*
X0042444Y0311660D01*
X0042930Y0310461D02*
X0170270Y0310461D01*
X0170198Y0308064D02*
X0043002Y0308064D01*
X0042610Y0306866D02*
X0052777Y0306866D01*
X0052921Y0306949D02*
X0052557Y0306739D01*
X0052259Y0306441D01*
X0052048Y0306076D01*
X0051939Y0305669D01*
X0051939Y0303677D01*
X0055517Y0303677D01*
X0055517Y0307058D01*
X0053328Y0307058D01*
X0052921Y0306949D01*
X0051939Y0305667D02*
X0041857Y0305667D01*
X0040384Y0304469D02*
X0051939Y0304469D01*
X0051939Y0302072D02*
X0042041Y0302072D01*
X0042586Y0300873D02*
X0043497Y0300873D01*
X0046590Y0299100D02*
X0047850Y0297840D01*
X0035360Y0297840D01*
X0034100Y0299100D01*
X0040065Y0293682D02*
X0043680Y0293682D01*
X0043497Y0294880D02*
X0040793Y0294880D01*
X0041629Y0292483D02*
X0043497Y0292483D01*
X0043497Y0291285D02*
X0042415Y0291285D01*
X0042900Y0290086D02*
X0043497Y0290086D01*
X0043497Y0288888D02*
X0042900Y0288888D01*
X0042736Y0287689D02*
X0043497Y0287689D01*
X0044227Y0286491D02*
X0042239Y0286491D01*
X0039100Y0284100D02*
X0034100Y0289100D01*
X0037476Y0282895D02*
X0018800Y0282895D01*
X0018800Y0281697D02*
X0027515Y0281697D01*
X0026939Y0280498D02*
X0018800Y0280498D01*
X0018800Y0279300D02*
X0026939Y0279300D01*
X0034681Y0281697D02*
X0038675Y0281697D01*
X0039600Y0280498D02*
X0035257Y0280498D01*
X0035257Y0279300D02*
X0039600Y0279300D01*
X0042064Y0273307D02*
X0018800Y0273307D01*
X0018800Y0272109D02*
X0043263Y0272109D01*
X0044461Y0270910D02*
X0018800Y0270910D01*
X0018800Y0269712D02*
X0045660Y0269712D01*
X0048096Y0265104D02*
X0049602Y0265104D01*
X0056600Y0271600D02*
X0056600Y0191600D01*
X0061600Y0186600D01*
X0053561Y0200154D02*
X0053561Y0206038D01*
X0049602Y0209997D01*
X0049602Y0215104D01*
X0049602Y0221195D01*
X0053561Y0225154D01*
X0053561Y0231038D01*
X0049602Y0234997D01*
X0049602Y0240104D01*
X0049602Y0246195D01*
X0053561Y0250154D01*
X0048014Y0233756D02*
X0041086Y0233756D01*
X0042409Y0232558D02*
X0049213Y0232558D01*
X0049602Y0228096D02*
X0044356Y0228096D01*
X0045055Y0230161D02*
X0045643Y0230161D01*
X0045964Y0231359D02*
X0043732Y0231359D01*
X0047602Y0221771D02*
X0018800Y0221771D01*
X0018800Y0220573D02*
X0047602Y0220573D01*
X0047602Y0219374D02*
X0018800Y0219374D01*
X0035082Y0206191D02*
X0037960Y0206191D01*
X0039283Y0204992D02*
X0035257Y0204992D01*
X0035257Y0203794D02*
X0040606Y0203794D01*
X0031679Y0249337D02*
X0030517Y0249337D01*
X0030517Y0250536D02*
X0031679Y0250536D01*
X0031679Y0251734D02*
X0030517Y0251734D01*
X0030517Y0255330D02*
X0031679Y0255330D01*
X0031679Y0256528D02*
X0030517Y0256528D01*
X0027346Y0256528D02*
X0018800Y0256528D01*
X0018800Y0255330D02*
X0026939Y0255330D01*
X0026939Y0254131D02*
X0018800Y0254131D01*
X0018800Y0262521D02*
X0027139Y0262521D01*
X0027139Y0263719D02*
X0018800Y0263719D01*
X0018800Y0264918D02*
X0027139Y0264918D01*
X0027139Y0266116D02*
X0018800Y0266116D01*
X0018800Y0267315D02*
X0027139Y0267315D01*
X0027606Y0268513D02*
X0018800Y0268513D01*
X0043600Y0278101D02*
X0045643Y0278101D01*
X0045643Y0276903D02*
X0044126Y0276903D01*
X0045324Y0275704D02*
X0045643Y0275704D01*
X0045643Y0279300D02*
X0043600Y0279300D01*
X0043600Y0280498D02*
X0045643Y0280498D01*
X0046302Y0281697D02*
X0043600Y0281697D01*
X0049602Y0278096D02*
X0056600Y0271600D01*
X0062220Y0282895D02*
X0164600Y0282895D01*
X0164600Y0281697D02*
X0163431Y0281697D01*
X0164007Y0280498D02*
X0164600Y0280498D01*
X0164600Y0279300D02*
X0164007Y0279300D01*
X0160429Y0280498D02*
X0159267Y0280498D01*
X0159267Y0281697D02*
X0160429Y0281697D01*
X0160429Y0276903D02*
X0159267Y0276903D01*
X0159267Y0275704D02*
X0160429Y0275704D01*
X0160429Y0274506D02*
X0159267Y0274506D01*
X0156254Y0274506D02*
X0146805Y0274506D01*
X0145607Y0275704D02*
X0155689Y0275704D01*
X0150164Y0286491D02*
X0141065Y0286491D01*
X0142263Y0287689D02*
X0149493Y0287689D01*
X0149493Y0292483D02*
X0138907Y0292483D01*
X0138907Y0291285D02*
X0140202Y0291285D01*
X0139003Y0290086D02*
X0138907Y0290086D01*
X0138271Y0293682D02*
X0150129Y0293682D01*
X0149972Y0299674D02*
X0138710Y0299674D01*
X0139107Y0300873D02*
X0149493Y0300873D01*
X0149493Y0302072D02*
X0139107Y0302072D01*
X0139107Y0303677D02*
X0139107Y0305669D01*
X0138998Y0306076D01*
X0138787Y0306441D01*
X0138490Y0306739D01*
X0138125Y0306949D01*
X0137718Y0307058D01*
X0135529Y0307058D01*
X0135529Y0303677D01*
X0139107Y0303677D01*
X0139107Y0304469D02*
X0149493Y0304469D01*
X0149493Y0305667D02*
X0139107Y0305667D01*
X0138270Y0306866D02*
X0170590Y0306866D01*
X0171343Y0305667D02*
X0157411Y0305667D01*
X0158854Y0303096D02*
X0166600Y0295350D01*
X0168600Y0294880D02*
X0172407Y0294880D01*
X0173135Y0293682D02*
X0168600Y0293682D01*
X0168600Y0292483D02*
X0171571Y0292483D01*
X0170785Y0291285D02*
X0168600Y0291285D01*
X0168600Y0290086D02*
X0170300Y0290086D01*
X0170300Y0288888D02*
X0168600Y0288888D01*
X0168600Y0287689D02*
X0170464Y0287689D01*
X0170961Y0286491D02*
X0168600Y0286491D01*
X0168600Y0285292D02*
X0171995Y0285292D01*
X0174159Y0284094D02*
X0168600Y0284094D01*
X0168600Y0282895D02*
X0182100Y0282895D01*
X0182100Y0281697D02*
X0181652Y0281697D01*
X0184100Y0284100D02*
X0184100Y0275350D01*
X0178352Y0269602D01*
X0178352Y0265104D01*
X0187614Y0265104D01*
X0187850Y0265340D01*
X0192203Y0264918D02*
X0194400Y0264918D01*
X0194400Y0266116D02*
X0192203Y0266116D01*
X0192203Y0267315D02*
X0194400Y0267315D01*
X0194400Y0268513D02*
X0192169Y0268513D01*
X0194400Y0269712D02*
X0181290Y0269712D01*
X0181844Y0268513D02*
X0183531Y0268513D01*
X0183497Y0267315D02*
X0182311Y0267315D01*
X0182489Y0270910D02*
X0194400Y0270910D01*
X0194400Y0272109D02*
X0183687Y0272109D01*
X0184886Y0273307D02*
X0194400Y0273307D01*
X0194400Y0274506D02*
X0186084Y0274506D01*
X0186100Y0275704D02*
X0194400Y0275704D01*
X0194400Y0276903D02*
X0186100Y0276903D01*
X0186100Y0278101D02*
X0194400Y0278101D01*
X0194400Y0279300D02*
X0186100Y0279300D01*
X0186100Y0280498D02*
X0194400Y0280498D01*
X0194400Y0281697D02*
X0186100Y0281697D01*
X0186100Y0282895D02*
X0194400Y0282895D01*
X0194400Y0284094D02*
X0186100Y0284094D01*
X0186205Y0285292D02*
X0194400Y0285292D01*
X0194400Y0286491D02*
X0187239Y0286491D01*
X0187736Y0287689D02*
X0194400Y0287689D01*
X0194400Y0288888D02*
X0187900Y0288888D01*
X0187900Y0290086D02*
X0194400Y0290086D01*
X0194400Y0291285D02*
X0187415Y0291285D01*
X0186629Y0292483D02*
X0194400Y0292483D01*
X0194400Y0293682D02*
X0185065Y0293682D01*
X0185793Y0294880D02*
X0194400Y0294880D01*
X0194400Y0296079D02*
X0186991Y0296079D01*
X0187565Y0297277D02*
X0194400Y0297277D01*
X0194400Y0298476D02*
X0187900Y0298476D01*
X0187900Y0299674D02*
X0194400Y0299674D01*
X0194400Y0300873D02*
X0187586Y0300873D01*
X0187041Y0302072D02*
X0194400Y0302072D01*
X0194400Y0303270D02*
X0185842Y0303270D01*
X0185384Y0304469D02*
X0194400Y0304469D01*
X0194400Y0305667D02*
X0186857Y0305667D01*
X0187610Y0306866D02*
X0193223Y0306866D01*
X0192025Y0308064D02*
X0188002Y0308064D01*
X0179100Y0289100D02*
X0184100Y0284100D01*
X0175052Y0281697D02*
X0168600Y0281697D01*
X0168600Y0280498D02*
X0174393Y0280498D01*
X0174393Y0279300D02*
X0168600Y0279300D01*
X0164600Y0284094D02*
X0063418Y0284094D01*
X0064617Y0285292D02*
X0076585Y0285292D01*
X0082348Y0290104D02*
X0082348Y0293352D01*
X0075852Y0299848D01*
X0074602Y0303096D01*
X0076600Y0302348D01*
X0074237Y0298476D02*
X0052203Y0298476D01*
X0052203Y0299674D02*
X0052336Y0299674D01*
X0052203Y0297277D02*
X0075594Y0297277D01*
X0076793Y0296079D02*
X0052203Y0296079D01*
X0052203Y0294880D02*
X0077991Y0294880D01*
X0077925Y0293682D02*
X0079025Y0293682D01*
X0082449Y0296079D02*
X0101793Y0296079D01*
X0102991Y0294880D02*
X0083648Y0294880D01*
X0085671Y0293682D02*
X0097529Y0293682D01*
X0096893Y0292483D02*
X0086307Y0292483D01*
X0086307Y0291285D02*
X0087602Y0291285D01*
X0086403Y0290086D02*
X0086307Y0290086D01*
X0089663Y0287689D02*
X0096893Y0287689D01*
X0097564Y0286491D02*
X0088465Y0286491D01*
X0087266Y0285292D02*
X0103680Y0285292D01*
X0108598Y0290104D02*
X0107348Y0293352D01*
X0101600Y0299100D01*
X0101600Y0302348D01*
X0100852Y0303096D01*
X0099600Y0298476D02*
X0080052Y0298476D01*
X0081251Y0297277D02*
X0100594Y0297277D01*
X0104332Y0299674D02*
X0104836Y0299674D01*
X0105052Y0298476D02*
X0124600Y0298476D01*
X0123622Y0299674D02*
X0112360Y0299674D01*
X0112757Y0300873D02*
X0123143Y0300873D01*
X0123143Y0302072D02*
X0112757Y0302072D01*
X0112757Y0303677D02*
X0112757Y0305669D01*
X0112648Y0306076D01*
X0112437Y0306441D01*
X0112140Y0306739D01*
X0111775Y0306949D01*
X0111368Y0307058D01*
X0109179Y0307058D01*
X0109179Y0303677D01*
X0112757Y0303677D01*
X0112757Y0304469D02*
X0123143Y0304469D01*
X0123143Y0305667D02*
X0112757Y0305667D01*
X0111920Y0306866D02*
X0131627Y0306866D01*
X0134367Y0306866D02*
X0135529Y0306866D01*
X0135529Y0305667D02*
X0134367Y0305667D01*
X0134367Y0304469D02*
X0135529Y0304469D01*
X0135529Y0303270D02*
X0149493Y0303270D01*
X0153452Y0303096D02*
X0158854Y0303096D01*
X0160310Y0304469D02*
X0172815Y0304469D01*
X0172358Y0303270D02*
X0161508Y0303270D01*
X0162707Y0302072D02*
X0171159Y0302072D01*
X0170614Y0300873D02*
X0163905Y0300873D01*
X0165104Y0299674D02*
X0170300Y0299674D01*
X0170300Y0298476D02*
X0166302Y0298476D01*
X0167501Y0297277D02*
X0170635Y0297277D01*
X0171209Y0296079D02*
X0168600Y0296079D01*
X0164600Y0286491D02*
X0163916Y0286491D01*
X0164600Y0285292D02*
X0139866Y0285292D01*
X0134948Y0290104D02*
X0132448Y0293252D01*
X0126600Y0299100D01*
X0126600Y0302348D01*
X0127102Y0303096D01*
X0123143Y0303270D02*
X0109179Y0303270D01*
X0109179Y0302072D02*
X0108017Y0302072D01*
X0108017Y0300873D02*
X0109179Y0300873D01*
X0109179Y0299674D02*
X0108017Y0299674D01*
X0106251Y0297277D02*
X0125594Y0297277D01*
X0126793Y0296079D02*
X0107449Y0296079D01*
X0108834Y0294880D02*
X0127991Y0294880D01*
X0123779Y0293682D02*
X0111921Y0293682D01*
X0112557Y0292483D02*
X0123143Y0292483D01*
X0123143Y0287689D02*
X0115913Y0287689D01*
X0114715Y0286491D02*
X0123814Y0286491D01*
X0130030Y0285292D02*
X0113516Y0285292D01*
X0112653Y0290086D02*
X0112557Y0290086D01*
X0112557Y0291285D02*
X0113852Y0291285D01*
X0109179Y0304469D02*
X0108017Y0304469D01*
X0108017Y0305667D02*
X0109179Y0305667D01*
X0109179Y0306866D02*
X0108017Y0306866D01*
X0105277Y0306866D02*
X0085670Y0306866D01*
X0085525Y0306949D02*
X0085118Y0307058D01*
X0082929Y0307058D01*
X0082929Y0303677D01*
X0086507Y0303677D01*
X0086507Y0305669D01*
X0086398Y0306076D01*
X0086187Y0306441D01*
X0085890Y0306739D01*
X0085525Y0306949D01*
X0086507Y0305667D02*
X0096893Y0305667D01*
X0096893Y0304469D02*
X0086507Y0304469D01*
X0086507Y0302072D02*
X0096893Y0302072D01*
X0096893Y0303270D02*
X0082929Y0303270D01*
X0082929Y0302072D02*
X0081767Y0302072D01*
X0081767Y0300873D02*
X0082929Y0300873D01*
X0082929Y0299674D02*
X0081767Y0299674D01*
X0086110Y0299674D02*
X0097372Y0299674D01*
X0096893Y0300873D02*
X0086507Y0300873D01*
X0082929Y0304469D02*
X0081767Y0304469D01*
X0081767Y0305667D02*
X0082929Y0305667D01*
X0082929Y0306866D02*
X0081767Y0306866D01*
X0079027Y0306866D02*
X0059420Y0306866D01*
X0059275Y0306949D02*
X0058868Y0307058D01*
X0056679Y0307058D01*
X0056679Y0303677D01*
X0060257Y0303677D01*
X0060257Y0305669D01*
X0060148Y0306076D01*
X0059937Y0306441D01*
X0059640Y0306739D01*
X0059275Y0306949D01*
X0060257Y0305667D02*
X0070643Y0305667D01*
X0070643Y0304469D02*
X0060257Y0304469D01*
X0060257Y0302072D02*
X0070643Y0302072D01*
X0070643Y0303270D02*
X0056679Y0303270D01*
X0055517Y0303270D02*
X0040842Y0303270D01*
X0034600Y0310461D02*
X0033600Y0310461D01*
X0033600Y0311660D02*
X0034600Y0311660D01*
X0034600Y0312858D02*
X0033600Y0312858D01*
X0033600Y0314057D02*
X0034600Y0314057D01*
X0028504Y0314057D02*
X0027168Y0314057D01*
X0026663Y0312858D02*
X0025969Y0312858D01*
X0025756Y0311660D02*
X0024771Y0311660D01*
X0025270Y0310461D02*
X0023572Y0310461D01*
X0047850Y0290360D02*
X0055842Y0290360D01*
X0056098Y0290104D01*
X0060057Y0290086D02*
X0063754Y0290086D01*
X0064600Y0290932D02*
X0064600Y0290932D01*
X0064953Y0291285D02*
X0060057Y0291285D01*
X0060057Y0292483D02*
X0070643Y0292483D01*
X0071279Y0293682D02*
X0059421Y0293682D01*
X0059860Y0299674D02*
X0071122Y0299674D01*
X0070643Y0300873D02*
X0060257Y0300873D01*
X0056679Y0300873D02*
X0055517Y0300873D01*
X0055517Y0299674D02*
X0056679Y0299674D01*
X0056679Y0302072D02*
X0055517Y0302072D01*
X0055517Y0304469D02*
X0056679Y0304469D01*
X0056679Y0305667D02*
X0055517Y0305667D01*
X0055517Y0306866D02*
X0056679Y0306866D01*
X0052775Y0293682D02*
X0052020Y0293682D01*
X0051473Y0286491D02*
X0052810Y0286491D01*
X0059386Y0286491D02*
X0060159Y0286491D01*
X0060057Y0287689D02*
X0061357Y0287689D01*
X0062556Y0288888D02*
X0060057Y0288888D01*
X0065815Y0286491D02*
X0071314Y0286491D01*
X0070643Y0287689D02*
X0067014Y0287689D01*
X0104175Y0293682D02*
X0104190Y0293682D01*
X0134367Y0299674D02*
X0135529Y0299674D01*
X0135529Y0300873D02*
X0134367Y0300873D01*
X0134367Y0302072D02*
X0135529Y0302072D01*
X0157411Y0300873D02*
X0158249Y0300873D01*
X0178352Y0265104D02*
X0178352Y0259997D01*
X0192129Y0261322D02*
X0194400Y0261322D01*
X0194400Y0260124D02*
X0192403Y0260124D01*
X0192403Y0258925D02*
X0194400Y0258925D01*
X0194400Y0262521D02*
X0192203Y0262521D01*
X0192203Y0263719D02*
X0194400Y0263719D01*
X0188450Y0230161D02*
X0187250Y0230161D01*
X0187250Y0228962D02*
X0188450Y0228962D01*
X0178352Y0221195D02*
X0178352Y0215104D01*
X0153352Y0178096D02*
X0160300Y0170600D01*
X0130774Y0159449D02*
X0112672Y0159449D01*
X0113871Y0160647D02*
X0129575Y0160647D01*
X0123459Y0161846D02*
X0115069Y0161846D01*
X0116268Y0163044D02*
X0123143Y0163044D01*
X0123143Y0167838D02*
X0112557Y0167838D01*
X0112557Y0166640D02*
X0114207Y0166640D01*
X0113008Y0165441D02*
X0112557Y0165441D01*
X0112598Y0175029D02*
X0123268Y0175029D01*
X0123143Y0176228D02*
X0112757Y0176228D01*
X0112757Y0177426D02*
X0123143Y0177426D01*
X0123143Y0178625D02*
X0109179Y0178625D01*
X0109179Y0178677D02*
X0112757Y0178677D01*
X0112757Y0180669D01*
X0112648Y0181076D01*
X0112437Y0181441D01*
X0112140Y0181739D01*
X0111775Y0181949D01*
X0111368Y0182058D01*
X0109179Y0182058D01*
X0109179Y0178677D01*
X0109179Y0179823D02*
X0108017Y0179823D01*
X0108017Y0181022D02*
X0109179Y0181022D01*
X0109179Y0177426D02*
X0108017Y0177426D01*
X0108017Y0176228D02*
X0109179Y0176228D01*
X0109179Y0175029D02*
X0108017Y0175029D01*
X0112757Y0179823D02*
X0123143Y0179823D01*
X0123143Y0181022D02*
X0112663Y0181022D01*
X0103325Y0160647D02*
X0088634Y0160647D01*
X0087435Y0159449D02*
X0104524Y0159449D01*
X0097309Y0161846D02*
X0089832Y0161846D01*
X0091031Y0163044D02*
X0096893Y0163044D01*
X0096893Y0167838D02*
X0086307Y0167838D01*
X0086307Y0166640D02*
X0088970Y0166640D01*
X0087771Y0165441D02*
X0086307Y0165441D01*
X0086307Y0164243D02*
X0086573Y0164243D01*
X0086290Y0175029D02*
X0097118Y0175029D01*
X0096893Y0176228D02*
X0086507Y0176228D01*
X0086507Y0177426D02*
X0096893Y0177426D01*
X0096893Y0178625D02*
X0082929Y0178625D01*
X0082929Y0178777D02*
X0086507Y0178777D01*
X0086507Y0180769D01*
X0086398Y0181176D01*
X0086187Y0181541D01*
X0085890Y0181839D01*
X0085525Y0182049D01*
X0085118Y0182158D01*
X0082929Y0182158D01*
X0082929Y0178777D01*
X0082929Y0179823D02*
X0081767Y0179823D01*
X0081767Y0181022D02*
X0082929Y0181022D01*
X0086439Y0181022D02*
X0096893Y0181022D01*
X0096893Y0179823D02*
X0086507Y0179823D01*
X0082929Y0177426D02*
X0081767Y0177426D01*
X0081767Y0176228D02*
X0082929Y0176228D01*
X0082929Y0175029D02*
X0081767Y0175029D01*
X0166600Y0071856D02*
X0159848Y0065104D01*
X0138249Y0031208D02*
X0193097Y0031208D01*
X0134690Y0027612D02*
X0133490Y0027612D01*
X0133490Y0026414D02*
X0134690Y0026414D01*
X0134690Y0025215D02*
X0133490Y0025215D01*
X0130222Y0025215D02*
X0130217Y0025215D01*
X0082929Y0053980D02*
X0081767Y0053980D01*
X0081767Y0055178D02*
X0082929Y0055178D01*
X0082929Y0056377D02*
X0081767Y0056377D01*
X0078472Y0056377D02*
X0078222Y0056377D01*
M02*
