G75*
%MOIN*%
%OFA0B0*%
%FSLAX25Y25*%
%IPPOS*%
%LPD*%
%AMOC8*
5,1,8,0,0,1.08239X$1,22.5*
%
%ADD10C,0.00800*%
%ADD11C,0.00600*%
%ADD12C,0.00400*%
%ADD13C,0.00300*%
D10*
X0095009Y0171564D02*
X0093541Y0173032D01*
X0093541Y0180372D01*
X0097945Y0180372D01*
X0099413Y0178904D01*
X0099413Y0175968D01*
X0097945Y0174500D01*
X0093541Y0174500D01*
X0090573Y0174500D02*
X0090573Y0180372D01*
X0089105Y0180372D01*
X0087637Y0178904D01*
X0086169Y0180372D01*
X0084701Y0178904D01*
X0084701Y0174500D01*
X0081734Y0175968D02*
X0081734Y0178904D01*
X0080266Y0180372D01*
X0077330Y0180372D01*
X0075862Y0178904D01*
X0075862Y0177436D01*
X0081734Y0177436D01*
X0081734Y0175968D02*
X0080266Y0174500D01*
X0077330Y0174500D01*
X0072894Y0174500D02*
X0072894Y0180372D01*
X0068490Y0180372D01*
X0067022Y0178904D01*
X0067022Y0174500D01*
X0062587Y0175968D02*
X0062587Y0181840D01*
X0064054Y0180372D02*
X0061119Y0180372D01*
X0062587Y0175968D02*
X0061119Y0174500D01*
X0087637Y0174500D02*
X0087637Y0178904D01*
X0095009Y0171564D02*
X0096477Y0171564D01*
X0102381Y0177436D02*
X0108252Y0177436D01*
X0108252Y0178904D02*
X0106784Y0180372D01*
X0103848Y0180372D01*
X0102381Y0178904D01*
X0102381Y0177436D01*
X0103848Y0174500D02*
X0106784Y0174500D01*
X0108252Y0175968D01*
X0108252Y0178904D01*
X0111220Y0177436D02*
X0111220Y0175968D01*
X0112688Y0174500D01*
X0115624Y0174500D01*
X0117092Y0175968D01*
X0115624Y0178904D02*
X0112688Y0178904D01*
X0111220Y0177436D01*
X0111220Y0181840D02*
X0112688Y0183308D01*
X0115624Y0183308D01*
X0117092Y0181840D01*
X0117092Y0180372D01*
X0115624Y0178904D01*
X0120060Y0181840D02*
X0120060Y0183308D01*
X0125931Y0183308D01*
X0128899Y0178904D02*
X0130367Y0180372D01*
X0133303Y0180372D01*
X0134771Y0178904D01*
X0134771Y0175968D01*
X0133303Y0174500D01*
X0130367Y0174500D01*
X0128899Y0175968D01*
X0128899Y0178904D01*
X0125931Y0175968D02*
X0125931Y0174500D01*
X0125931Y0175968D02*
X0120060Y0181840D01*
X0137739Y0178904D02*
X0137739Y0177436D01*
X0143610Y0177436D01*
X0143610Y0178904D02*
X0142143Y0180372D01*
X0139207Y0180372D01*
X0137739Y0178904D01*
X0139207Y0174500D02*
X0142143Y0174500D01*
X0143610Y0175968D01*
X0143610Y0178904D01*
X0146578Y0174500D02*
X0146578Y0183308D01*
X0152450Y0183308D02*
X0146578Y0174500D01*
X0152450Y0174500D02*
X0152450Y0183308D01*
D11*
X0044780Y0032603D02*
X0044780Y0029400D01*
X0046916Y0029400D02*
X0046916Y0032603D01*
X0045848Y0033670D01*
X0044780Y0032603D01*
X0046916Y0032603D02*
X0047983Y0033670D01*
X0049051Y0033670D01*
X0049051Y0029400D01*
X0051226Y0030468D02*
X0051226Y0032603D01*
X0052294Y0033670D01*
X0054429Y0033670D01*
X0055496Y0032603D01*
X0055496Y0030468D01*
X0054429Y0029400D01*
X0052294Y0029400D01*
X0051226Y0030468D01*
X0057671Y0029400D02*
X0060874Y0029400D01*
X0061942Y0030468D01*
X0061942Y0032603D01*
X0060874Y0033670D01*
X0057671Y0033670D01*
X0064097Y0030468D02*
X0064097Y0029400D01*
X0065165Y0029400D01*
X0065165Y0030468D01*
X0064097Y0030468D01*
X0067333Y0033670D02*
X0068401Y0033670D01*
X0070536Y0031535D01*
X0070536Y0029400D02*
X0070536Y0033670D01*
X0072711Y0032603D02*
X0072711Y0031535D01*
X0076981Y0031535D01*
X0076981Y0030468D02*
X0076981Y0032603D01*
X0075914Y0033670D01*
X0073779Y0033670D01*
X0072711Y0032603D01*
X0073779Y0029400D02*
X0075914Y0029400D01*
X0076981Y0030468D01*
X0079150Y0029400D02*
X0082353Y0031535D01*
X0079150Y0033670D01*
X0082353Y0035805D02*
X0082353Y0029400D01*
X0084528Y0029400D02*
X0084528Y0032603D01*
X0085595Y0033670D01*
X0087730Y0033670D01*
X0087730Y0031535D02*
X0084528Y0031535D01*
X0084528Y0029400D02*
X0087730Y0029400D01*
X0088798Y0030468D01*
X0087730Y0031535D01*
X0090973Y0032603D02*
X0090973Y0029400D01*
X0093108Y0029400D02*
X0093108Y0032603D01*
X0092041Y0033670D01*
X0090973Y0032603D01*
X0093108Y0032603D02*
X0094176Y0033670D01*
X0095244Y0033670D01*
X0095244Y0029400D01*
X0097419Y0029400D02*
X0100621Y0029400D01*
X0101689Y0030468D01*
X0101689Y0032603D01*
X0100621Y0033670D01*
X0097419Y0033670D01*
X0097419Y0035805D02*
X0097419Y0029400D01*
X0103864Y0031535D02*
X0108135Y0031535D01*
X0108135Y0030468D02*
X0108135Y0032603D01*
X0107067Y0033670D01*
X0104932Y0033670D01*
X0103864Y0032603D01*
X0103864Y0031535D01*
X0104932Y0029400D02*
X0107067Y0029400D01*
X0108135Y0030468D01*
X0110296Y0029400D02*
X0111364Y0030468D01*
X0111364Y0034738D01*
X0112432Y0033670D02*
X0110296Y0033670D01*
X0114607Y0033670D02*
X0117809Y0033670D01*
X0118877Y0032603D01*
X0118877Y0030468D01*
X0117809Y0029400D01*
X0114607Y0029400D01*
X0121052Y0031535D02*
X0125323Y0031535D01*
X0125323Y0030468D02*
X0125323Y0032603D01*
X0124255Y0033670D01*
X0122120Y0033670D01*
X0121052Y0032603D01*
X0121052Y0031535D01*
X0122120Y0029400D02*
X0124255Y0029400D01*
X0125323Y0030468D01*
X0127498Y0030468D02*
X0128565Y0029400D01*
X0131768Y0029400D01*
X0131768Y0027265D02*
X0131768Y0033670D01*
X0128565Y0033670D01*
X0127498Y0032603D01*
X0127498Y0030468D01*
X0133943Y0029400D02*
X0138214Y0033670D01*
X0140389Y0032603D02*
X0140389Y0031535D01*
X0144659Y0031535D01*
X0144659Y0030468D02*
X0144659Y0032603D01*
X0143591Y0033670D01*
X0141456Y0033670D01*
X0140389Y0032603D01*
X0141456Y0029400D02*
X0143591Y0029400D01*
X0144659Y0030468D01*
X0146834Y0029400D02*
X0146834Y0032603D01*
X0147902Y0033670D01*
X0151105Y0033670D01*
X0151105Y0029400D01*
X0153280Y0029400D02*
X0153280Y0033670D01*
X0153280Y0029400D02*
X0156482Y0029400D01*
X0157550Y0030468D01*
X0157550Y0033670D01*
X0138214Y0029400D02*
X0133943Y0033670D01*
D12*
X0128900Y0161800D02*
X0128900Y0167004D01*
X0126298Y0167004D01*
X0125430Y0166137D01*
X0125430Y0164402D01*
X0126298Y0163535D01*
X0128900Y0163535D01*
X0127165Y0163535D02*
X0125430Y0161800D01*
X0123744Y0161800D02*
X0120274Y0161800D01*
X0118587Y0163535D02*
X0116852Y0161800D01*
X0115118Y0163535D01*
X0115118Y0167004D01*
X0118587Y0167004D02*
X0118587Y0163535D01*
X0122009Y0164402D02*
X0123744Y0164402D01*
X0123744Y0167004D02*
X0123744Y0161800D01*
X0123744Y0167004D02*
X0120274Y0167004D01*
X0108274Y0166137D02*
X0107407Y0167004D01*
X0105672Y0167004D01*
X0104805Y0166137D01*
X0104805Y0165270D01*
X0108274Y0161800D01*
X0104805Y0161800D01*
X0103118Y0162667D02*
X0099648Y0166137D01*
X0099648Y0162667D01*
X0100516Y0161800D01*
X0102251Y0161800D01*
X0103118Y0162667D01*
X0103118Y0166137D01*
X0102251Y0167004D01*
X0100516Y0167004D01*
X0099648Y0166137D01*
X0097962Y0165270D02*
X0096227Y0167004D01*
X0096227Y0161800D01*
X0097962Y0161800D02*
X0094492Y0161800D01*
X0092805Y0162667D02*
X0092805Y0163535D01*
X0091938Y0164402D01*
X0090203Y0164402D01*
X0089336Y0163535D01*
X0089336Y0162667D01*
X0090203Y0161800D01*
X0091938Y0161800D01*
X0092805Y0162667D01*
X0091938Y0164402D02*
X0092805Y0165270D01*
X0092805Y0166137D01*
X0091938Y0167004D01*
X0090203Y0167004D01*
X0089336Y0166137D01*
X0089336Y0165270D01*
X0090203Y0164402D01*
X0087649Y0164402D02*
X0084179Y0164402D01*
X0082492Y0166137D02*
X0081625Y0167004D01*
X0079890Y0167004D01*
X0079023Y0166137D01*
X0079023Y0165270D01*
X0082492Y0161800D01*
X0079023Y0161800D01*
X0052494Y0296800D02*
X0050759Y0296800D01*
X0051627Y0296800D02*
X0051627Y0302004D01*
X0052494Y0302004D02*
X0050759Y0302004D01*
X0049056Y0302004D02*
X0049056Y0296800D01*
X0045587Y0296800D02*
X0045587Y0302004D01*
X0049056Y0302004D02*
X0045587Y0296800D01*
X0155118Y0302004D02*
X0158587Y0302004D01*
X0160274Y0302004D02*
X0160274Y0297667D01*
X0161141Y0296800D01*
X0162876Y0296800D01*
X0163744Y0297667D01*
X0163744Y0302004D01*
X0165430Y0301137D02*
X0165430Y0297667D01*
X0166298Y0296800D01*
X0168033Y0296800D01*
X0168900Y0297667D01*
X0168900Y0301137D01*
X0168033Y0302004D01*
X0166298Y0302004D01*
X0165430Y0301137D01*
X0156852Y0302004D02*
X0156852Y0296800D01*
D13*
X0107800Y0056369D02*
X0105400Y0056369D01*
X0105078Y0053193D01*
X0104011Y0052852D01*
X0103014Y0052339D01*
X0100540Y0054356D01*
X0098844Y0052660D01*
X0100861Y0050186D01*
X0100348Y0049189D01*
X0100007Y0048122D01*
X0096831Y0047800D01*
X0096831Y0045400D01*
X0100007Y0045078D01*
X0100348Y0044011D01*
X0100861Y0043014D01*
X0098844Y0040540D01*
X0100540Y0038844D01*
X0103014Y0040861D01*
X0104010Y0040348D01*
X0105423Y0043758D01*
X0104867Y0044059D01*
X0104385Y0044466D01*
X0103996Y0044964D01*
X0103716Y0045530D01*
X0103558Y0046142D01*
X0103529Y0046773D01*
X0103629Y0047396D01*
X0103854Y0047986D01*
X0104195Y0048518D01*
X0104638Y0048969D01*
X0105163Y0049320D01*
X0105749Y0049556D01*
X0106370Y0049667D01*
X0107002Y0049650D01*
X0107616Y0049503D01*
X0108188Y0049235D01*
X0108692Y0048855D01*
X0109109Y0048380D01*
X0109419Y0047830D01*
X0109611Y0047228D01*
X0109676Y0046600D01*
X0109617Y0046000D01*
X0109442Y0045423D01*
X0109158Y0044891D01*
X0108775Y0044425D01*
X0108309Y0044042D01*
X0107777Y0043758D01*
X0109190Y0040348D01*
X0110186Y0040861D01*
X0112660Y0038844D01*
X0114356Y0040540D01*
X0112339Y0043014D01*
X0112852Y0044011D01*
X0113193Y0045078D01*
X0116369Y0045400D01*
X0116369Y0047800D01*
X0113193Y0048122D01*
X0112852Y0049189D01*
X0112339Y0050186D01*
X0114356Y0052660D01*
X0112660Y0054356D01*
X0110186Y0052339D01*
X0109189Y0052852D01*
X0108122Y0053193D01*
X0107800Y0056369D01*
X0107806Y0056304D02*
X0105394Y0056304D01*
X0105363Y0056005D02*
X0107837Y0056005D01*
X0107867Y0055707D02*
X0105333Y0055707D01*
X0105303Y0055408D02*
X0107897Y0055408D01*
X0107927Y0055110D02*
X0105273Y0055110D01*
X0105242Y0054811D02*
X0107958Y0054811D01*
X0107988Y0054513D02*
X0105212Y0054513D01*
X0105182Y0054214D02*
X0108018Y0054214D01*
X0108049Y0053916D02*
X0105151Y0053916D01*
X0105121Y0053617D02*
X0108079Y0053617D01*
X0108109Y0053319D02*
X0105091Y0053319D01*
X0104537Y0053020D02*
X0108663Y0053020D01*
X0109442Y0052722D02*
X0103758Y0052722D01*
X0103178Y0052423D02*
X0110022Y0052423D01*
X0110290Y0052423D02*
X0114163Y0052423D01*
X0114294Y0052722D02*
X0110656Y0052722D01*
X0111022Y0053020D02*
X0113996Y0053020D01*
X0113697Y0053319D02*
X0111388Y0053319D01*
X0111754Y0053617D02*
X0113399Y0053617D01*
X0113100Y0053916D02*
X0112120Y0053916D01*
X0112486Y0054214D02*
X0112802Y0054214D01*
X0113920Y0052125D02*
X0099280Y0052125D01*
X0099037Y0052423D02*
X0102910Y0052423D01*
X0102544Y0052722D02*
X0098906Y0052722D01*
X0099204Y0053020D02*
X0102178Y0053020D01*
X0101812Y0053319D02*
X0099503Y0053319D01*
X0099801Y0053617D02*
X0101446Y0053617D01*
X0101080Y0053916D02*
X0100100Y0053916D01*
X0100398Y0054214D02*
X0100714Y0054214D01*
X0099524Y0051826D02*
X0113676Y0051826D01*
X0113433Y0051528D02*
X0099767Y0051528D01*
X0100011Y0051229D02*
X0113189Y0051229D01*
X0112946Y0050931D02*
X0100254Y0050931D01*
X0100498Y0050632D02*
X0112702Y0050632D01*
X0112459Y0050334D02*
X0100741Y0050334D01*
X0100784Y0050035D02*
X0112416Y0050035D01*
X0112570Y0049737D02*
X0100630Y0049737D01*
X0100476Y0049438D02*
X0105457Y0049438D01*
X0104894Y0049140D02*
X0100332Y0049140D01*
X0100237Y0048841D02*
X0104512Y0048841D01*
X0104219Y0048543D02*
X0100141Y0048543D01*
X0100046Y0048244D02*
X0104020Y0048244D01*
X0103839Y0047945D02*
X0098268Y0047945D01*
X0096831Y0047647D02*
X0103725Y0047647D01*
X0103621Y0047348D02*
X0096831Y0047348D01*
X0096831Y0047050D02*
X0103573Y0047050D01*
X0103530Y0046751D02*
X0096831Y0046751D01*
X0096831Y0046453D02*
X0103544Y0046453D01*
X0103558Y0046154D02*
X0096831Y0046154D01*
X0096831Y0045856D02*
X0103632Y0045856D01*
X0103709Y0045557D02*
X0096831Y0045557D01*
X0098224Y0045259D02*
X0103850Y0045259D01*
X0103998Y0044960D02*
X0100044Y0044960D01*
X0100140Y0044662D02*
X0104232Y0044662D01*
X0104506Y0044363D02*
X0100235Y0044363D01*
X0100331Y0044065D02*
X0104860Y0044065D01*
X0105408Y0043766D02*
X0100474Y0043766D01*
X0100628Y0043468D02*
X0105303Y0043468D01*
X0105179Y0043169D02*
X0100782Y0043169D01*
X0100745Y0042871D02*
X0105055Y0042871D01*
X0104932Y0042572D02*
X0100501Y0042572D01*
X0100258Y0042274D02*
X0104808Y0042274D01*
X0104684Y0041975D02*
X0100014Y0041975D01*
X0099771Y0041677D02*
X0104561Y0041677D01*
X0104437Y0041378D02*
X0099527Y0041378D01*
X0099284Y0041080D02*
X0104313Y0041080D01*
X0104190Y0040781D02*
X0103170Y0040781D01*
X0102916Y0040781D02*
X0099041Y0040781D01*
X0098902Y0040483D02*
X0102550Y0040483D01*
X0102184Y0040184D02*
X0099200Y0040184D01*
X0099499Y0039886D02*
X0101818Y0039886D01*
X0101451Y0039587D02*
X0099797Y0039587D01*
X0100096Y0039289D02*
X0101085Y0039289D01*
X0100719Y0038990D02*
X0100394Y0038990D01*
X0103749Y0040483D02*
X0104066Y0040483D01*
X0108392Y0042274D02*
X0112942Y0042274D01*
X0112699Y0042572D02*
X0108268Y0042572D01*
X0108145Y0042871D02*
X0112455Y0042871D01*
X0112418Y0043169D02*
X0108021Y0043169D01*
X0107897Y0043468D02*
X0112572Y0043468D01*
X0112726Y0043766D02*
X0107792Y0043766D01*
X0108336Y0044065D02*
X0112869Y0044065D01*
X0112965Y0044363D02*
X0108700Y0044363D01*
X0108970Y0044662D02*
X0113060Y0044662D01*
X0113156Y0044960D02*
X0109195Y0044960D01*
X0109354Y0045259D02*
X0114976Y0045259D01*
X0116369Y0045557D02*
X0109483Y0045557D01*
X0109573Y0045856D02*
X0116369Y0045856D01*
X0116369Y0046154D02*
X0109632Y0046154D01*
X0109662Y0046453D02*
X0116369Y0046453D01*
X0116369Y0046751D02*
X0109660Y0046751D01*
X0109630Y0047050D02*
X0116369Y0047050D01*
X0116369Y0047348D02*
X0109573Y0047348D01*
X0109478Y0047647D02*
X0116369Y0047647D01*
X0114932Y0047945D02*
X0109354Y0047945D01*
X0109185Y0048244D02*
X0113154Y0048244D01*
X0113059Y0048543D02*
X0108966Y0048543D01*
X0108704Y0048841D02*
X0112963Y0048841D01*
X0112868Y0049140D02*
X0108314Y0049140D01*
X0107755Y0049438D02*
X0112724Y0049438D01*
X0113186Y0041975D02*
X0108516Y0041975D01*
X0108639Y0041677D02*
X0113429Y0041677D01*
X0113673Y0041378D02*
X0108763Y0041378D01*
X0108887Y0041080D02*
X0113916Y0041080D01*
X0114159Y0040781D02*
X0110284Y0040781D01*
X0110030Y0040781D02*
X0109010Y0040781D01*
X0109134Y0040483D02*
X0109451Y0040483D01*
X0110650Y0040483D02*
X0114298Y0040483D01*
X0114000Y0040184D02*
X0111016Y0040184D01*
X0111382Y0039886D02*
X0113701Y0039886D01*
X0113403Y0039587D02*
X0111749Y0039587D01*
X0112115Y0039289D02*
X0113104Y0039289D01*
X0112806Y0038990D02*
X0112481Y0038990D01*
M02*
