G75*
%MOIN*%
%OFA0B0*%
%FSLAX25Y25*%
%IPPOS*%
%LPD*%
%AMOC8*
5,1,8,0,0,1.08239X$1,22.5*
%
%ADD10R,0.05118X0.04724*%
%ADD11R,0.05906X0.05118*%
%ADD12R,0.05118X0.05906*%
%ADD13R,0.03346X0.03937*%
D10*
X0031098Y0065104D03*
X0031098Y0078096D03*
X0031098Y0090104D03*
X0031098Y0103096D03*
X0031098Y0115104D03*
X0031098Y0128096D03*
X0031098Y0140104D03*
X0031098Y0153096D03*
X0049602Y0153096D03*
X0049602Y0140104D03*
X0049602Y0128096D03*
X0049602Y0115104D03*
X0049602Y0103096D03*
X0049602Y0090104D03*
X0049602Y0078096D03*
X0049602Y0065104D03*
X0056098Y0053096D03*
X0056098Y0040104D03*
X0074602Y0040104D03*
X0082348Y0040104D03*
X0082348Y0053096D03*
X0074602Y0053096D03*
X0100852Y0053096D03*
X0108598Y0053096D03*
X0108598Y0040104D03*
X0100852Y0040104D03*
X0127102Y0040104D03*
X0127102Y0053096D03*
X0134848Y0053096D03*
X0134848Y0040104D03*
X0153352Y0040104D03*
X0153352Y0053096D03*
X0159848Y0065104D03*
X0159848Y0078096D03*
X0159848Y0090104D03*
X0159848Y0103096D03*
X0159848Y0115104D03*
X0159848Y0128096D03*
X0159848Y0140104D03*
X0159848Y0153096D03*
X0153352Y0165104D03*
X0153352Y0178096D03*
X0159848Y0190104D03*
X0159848Y0203096D03*
X0159848Y0215104D03*
X0159848Y0228096D03*
X0159848Y0240104D03*
X0159848Y0253096D03*
X0159848Y0265104D03*
X0159848Y0278096D03*
X0153452Y0290104D03*
X0153452Y0303096D03*
X0134948Y0303096D03*
X0134948Y0290104D03*
X0127102Y0290104D03*
X0127102Y0303096D03*
X0108598Y0303096D03*
X0100852Y0303096D03*
X0100852Y0290104D03*
X0108598Y0290104D03*
X0082348Y0290104D03*
X0074602Y0290104D03*
X0074602Y0303096D03*
X0082348Y0303096D03*
X0056098Y0303096D03*
X0056098Y0290104D03*
X0049602Y0278096D03*
X0049602Y0265104D03*
X0049602Y0253096D03*
X0049602Y0240104D03*
X0049602Y0228096D03*
X0049602Y0215104D03*
X0049602Y0203096D03*
X0049602Y0190104D03*
X0056098Y0177996D03*
X0056098Y0165004D03*
X0074602Y0165004D03*
X0082348Y0165204D03*
X0082348Y0178196D03*
X0074602Y0177996D03*
X0100852Y0178196D03*
X0108598Y0178096D03*
X0108598Y0165104D03*
X0100852Y0165204D03*
X0127102Y0165104D03*
X0134848Y0165104D03*
X0134848Y0178096D03*
X0127102Y0178096D03*
X0178352Y0190104D03*
X0178352Y0203096D03*
X0178352Y0215104D03*
X0178352Y0228096D03*
X0178352Y0240104D03*
X0178352Y0253096D03*
X0178352Y0265104D03*
X0178352Y0278096D03*
X0178352Y0153096D03*
X0178352Y0140104D03*
X0178352Y0128096D03*
X0178352Y0115104D03*
X0178352Y0103096D03*
X0178352Y0090104D03*
X0178352Y0078096D03*
X0178352Y0065104D03*
X0031098Y0190104D03*
X0031098Y0203096D03*
X0031098Y0215104D03*
X0031098Y0228096D03*
X0031098Y0240104D03*
X0031098Y0253096D03*
X0031098Y0265104D03*
X0031098Y0278096D03*
D11*
X0047850Y0290360D03*
X0047850Y0297840D03*
X0187850Y0265340D03*
X0187850Y0257860D03*
X0187850Y0240340D03*
X0187850Y0232860D03*
X0187850Y0215340D03*
X0187850Y0207860D03*
X0187850Y0140340D03*
X0187850Y0132860D03*
X0187850Y0115340D03*
X0187850Y0107860D03*
X0187850Y0090340D03*
X0187850Y0082860D03*
D12*
X0134090Y0029100D03*
X0126610Y0029100D03*
X0107840Y0029100D03*
X0100360Y0029100D03*
X0081590Y0029100D03*
X0074110Y0029100D03*
D13*
X0181905Y0039710D03*
X0188795Y0039710D03*
X0188795Y0053490D03*
X0181905Y0053490D03*
M02*
