%
M48
M72
T01C0.02165
T02C0.02362
T03C0.04400
T04C0.10000
%
T01
X49800Y34400
X49602Y59100
X61600Y66600
X31600Y181600
X56600Y186600
X61600Y276600
X151600Y186600
X160300Y170600
X171600Y181600
X161600Y289100
X151600Y66600
X171600Y49100
X171295Y40045
X186600Y31600
X189100Y62850
T02
X26600Y31600
X150350Y155350
T03
X179100Y289100
X179100Y299100
X179100Y309100
X34100Y309100
X34100Y299100
X34100Y289100
T04
X36600Y171600
X176600Y171600
M30
