G75*
%MOIN*%
%OFA0B0*%
%FSLAX25Y25*%
%IPPOS*%
%LPD*%
%AMOC8*
5,1,8,0,0,1.08239X$1,22.5*
%
%ADD10C,0.01200*%
%ADD11C,0.00000*%
D10*
X0026600Y0021600D02*
X0016600Y0031600D01*
X0016600Y0161600D01*
X0026600Y0171600D01*
X0016600Y0181600D01*
X0016600Y0306600D01*
X0026600Y0316600D01*
X0186600Y0316600D01*
X0196600Y0306600D01*
X0196600Y0181600D01*
X0186600Y0171600D01*
X0196600Y0161600D01*
X0196600Y0031600D01*
X0186600Y0021600D01*
X0026600Y0021600D01*
X0071600Y0066600D02*
X0061600Y0076600D01*
X0061600Y0146600D01*
X0071600Y0156600D01*
X0141600Y0156600D01*
X0151600Y0146600D01*
X0151600Y0076600D01*
X0141600Y0066600D01*
X0071600Y0066600D01*
X0071600Y0186600D02*
X0061600Y0196600D01*
X0061600Y0266600D01*
X0071600Y0276600D01*
X0141600Y0276600D01*
X0151600Y0266600D01*
X0151600Y0196600D01*
X0141600Y0186600D01*
X0071600Y0186600D01*
D11*
X0031600Y0171600D02*
X0031602Y0171741D01*
X0031608Y0171882D01*
X0031618Y0172022D01*
X0031632Y0172162D01*
X0031650Y0172302D01*
X0031671Y0172441D01*
X0031697Y0172580D01*
X0031726Y0172718D01*
X0031760Y0172854D01*
X0031797Y0172990D01*
X0031838Y0173125D01*
X0031883Y0173259D01*
X0031932Y0173391D01*
X0031984Y0173522D01*
X0032040Y0173651D01*
X0032100Y0173778D01*
X0032163Y0173904D01*
X0032229Y0174028D01*
X0032300Y0174151D01*
X0032373Y0174271D01*
X0032450Y0174389D01*
X0032530Y0174505D01*
X0032614Y0174618D01*
X0032700Y0174729D01*
X0032790Y0174838D01*
X0032883Y0174944D01*
X0032978Y0175047D01*
X0033077Y0175148D01*
X0033178Y0175246D01*
X0033282Y0175341D01*
X0033389Y0175433D01*
X0033498Y0175522D01*
X0033610Y0175607D01*
X0033724Y0175690D01*
X0033840Y0175770D01*
X0033959Y0175846D01*
X0034080Y0175918D01*
X0034202Y0175988D01*
X0034327Y0176053D01*
X0034453Y0176116D01*
X0034581Y0176174D01*
X0034711Y0176229D01*
X0034842Y0176281D01*
X0034975Y0176328D01*
X0035109Y0176372D01*
X0035244Y0176413D01*
X0035380Y0176449D01*
X0035517Y0176481D01*
X0035655Y0176510D01*
X0035793Y0176535D01*
X0035933Y0176555D01*
X0036073Y0176572D01*
X0036213Y0176585D01*
X0036354Y0176594D01*
X0036494Y0176599D01*
X0036635Y0176600D01*
X0036776Y0176597D01*
X0036917Y0176590D01*
X0037057Y0176579D01*
X0037197Y0176564D01*
X0037337Y0176545D01*
X0037476Y0176523D01*
X0037614Y0176496D01*
X0037752Y0176466D01*
X0037888Y0176431D01*
X0038024Y0176393D01*
X0038158Y0176351D01*
X0038292Y0176305D01*
X0038424Y0176256D01*
X0038554Y0176202D01*
X0038683Y0176145D01*
X0038810Y0176085D01*
X0038936Y0176021D01*
X0039059Y0175953D01*
X0039181Y0175882D01*
X0039301Y0175808D01*
X0039418Y0175730D01*
X0039533Y0175649D01*
X0039646Y0175565D01*
X0039757Y0175478D01*
X0039865Y0175387D01*
X0039970Y0175294D01*
X0040073Y0175197D01*
X0040173Y0175098D01*
X0040270Y0174996D01*
X0040364Y0174891D01*
X0040455Y0174784D01*
X0040543Y0174674D01*
X0040628Y0174562D01*
X0040710Y0174447D01*
X0040789Y0174330D01*
X0040864Y0174211D01*
X0040936Y0174090D01*
X0041004Y0173967D01*
X0041069Y0173842D01*
X0041131Y0173715D01*
X0041188Y0173586D01*
X0041243Y0173456D01*
X0041293Y0173325D01*
X0041340Y0173192D01*
X0041383Y0173058D01*
X0041422Y0172922D01*
X0041457Y0172786D01*
X0041489Y0172649D01*
X0041516Y0172511D01*
X0041540Y0172372D01*
X0041560Y0172232D01*
X0041576Y0172092D01*
X0041588Y0171952D01*
X0041596Y0171811D01*
X0041600Y0171670D01*
X0041600Y0171530D01*
X0041596Y0171389D01*
X0041588Y0171248D01*
X0041576Y0171108D01*
X0041560Y0170968D01*
X0041540Y0170828D01*
X0041516Y0170689D01*
X0041489Y0170551D01*
X0041457Y0170414D01*
X0041422Y0170278D01*
X0041383Y0170142D01*
X0041340Y0170008D01*
X0041293Y0169875D01*
X0041243Y0169744D01*
X0041188Y0169614D01*
X0041131Y0169485D01*
X0041069Y0169358D01*
X0041004Y0169233D01*
X0040936Y0169110D01*
X0040864Y0168989D01*
X0040789Y0168870D01*
X0040710Y0168753D01*
X0040628Y0168638D01*
X0040543Y0168526D01*
X0040455Y0168416D01*
X0040364Y0168309D01*
X0040270Y0168204D01*
X0040173Y0168102D01*
X0040073Y0168003D01*
X0039970Y0167906D01*
X0039865Y0167813D01*
X0039757Y0167722D01*
X0039646Y0167635D01*
X0039533Y0167551D01*
X0039418Y0167470D01*
X0039301Y0167392D01*
X0039181Y0167318D01*
X0039059Y0167247D01*
X0038936Y0167179D01*
X0038810Y0167115D01*
X0038683Y0167055D01*
X0038554Y0166998D01*
X0038424Y0166944D01*
X0038292Y0166895D01*
X0038158Y0166849D01*
X0038024Y0166807D01*
X0037888Y0166769D01*
X0037752Y0166734D01*
X0037614Y0166704D01*
X0037476Y0166677D01*
X0037337Y0166655D01*
X0037197Y0166636D01*
X0037057Y0166621D01*
X0036917Y0166610D01*
X0036776Y0166603D01*
X0036635Y0166600D01*
X0036494Y0166601D01*
X0036354Y0166606D01*
X0036213Y0166615D01*
X0036073Y0166628D01*
X0035933Y0166645D01*
X0035793Y0166665D01*
X0035655Y0166690D01*
X0035517Y0166719D01*
X0035380Y0166751D01*
X0035244Y0166787D01*
X0035109Y0166828D01*
X0034975Y0166872D01*
X0034842Y0166919D01*
X0034711Y0166971D01*
X0034581Y0167026D01*
X0034453Y0167084D01*
X0034327Y0167147D01*
X0034202Y0167212D01*
X0034080Y0167282D01*
X0033959Y0167354D01*
X0033840Y0167430D01*
X0033724Y0167510D01*
X0033610Y0167593D01*
X0033498Y0167678D01*
X0033389Y0167767D01*
X0033282Y0167859D01*
X0033178Y0167954D01*
X0033077Y0168052D01*
X0032978Y0168153D01*
X0032883Y0168256D01*
X0032790Y0168362D01*
X0032700Y0168471D01*
X0032614Y0168582D01*
X0032530Y0168695D01*
X0032450Y0168811D01*
X0032373Y0168929D01*
X0032300Y0169049D01*
X0032229Y0169172D01*
X0032163Y0169296D01*
X0032100Y0169422D01*
X0032040Y0169549D01*
X0031984Y0169678D01*
X0031932Y0169809D01*
X0031883Y0169941D01*
X0031838Y0170075D01*
X0031797Y0170210D01*
X0031760Y0170346D01*
X0031726Y0170482D01*
X0031697Y0170620D01*
X0031671Y0170759D01*
X0031650Y0170898D01*
X0031632Y0171038D01*
X0031618Y0171178D01*
X0031608Y0171318D01*
X0031602Y0171459D01*
X0031600Y0171600D01*
X0171600Y0171600D02*
X0171602Y0171741D01*
X0171608Y0171882D01*
X0171618Y0172022D01*
X0171632Y0172162D01*
X0171650Y0172302D01*
X0171671Y0172441D01*
X0171697Y0172580D01*
X0171726Y0172718D01*
X0171760Y0172854D01*
X0171797Y0172990D01*
X0171838Y0173125D01*
X0171883Y0173259D01*
X0171932Y0173391D01*
X0171984Y0173522D01*
X0172040Y0173651D01*
X0172100Y0173778D01*
X0172163Y0173904D01*
X0172229Y0174028D01*
X0172300Y0174151D01*
X0172373Y0174271D01*
X0172450Y0174389D01*
X0172530Y0174505D01*
X0172614Y0174618D01*
X0172700Y0174729D01*
X0172790Y0174838D01*
X0172883Y0174944D01*
X0172978Y0175047D01*
X0173077Y0175148D01*
X0173178Y0175246D01*
X0173282Y0175341D01*
X0173389Y0175433D01*
X0173498Y0175522D01*
X0173610Y0175607D01*
X0173724Y0175690D01*
X0173840Y0175770D01*
X0173959Y0175846D01*
X0174080Y0175918D01*
X0174202Y0175988D01*
X0174327Y0176053D01*
X0174453Y0176116D01*
X0174581Y0176174D01*
X0174711Y0176229D01*
X0174842Y0176281D01*
X0174975Y0176328D01*
X0175109Y0176372D01*
X0175244Y0176413D01*
X0175380Y0176449D01*
X0175517Y0176481D01*
X0175655Y0176510D01*
X0175793Y0176535D01*
X0175933Y0176555D01*
X0176073Y0176572D01*
X0176213Y0176585D01*
X0176354Y0176594D01*
X0176494Y0176599D01*
X0176635Y0176600D01*
X0176776Y0176597D01*
X0176917Y0176590D01*
X0177057Y0176579D01*
X0177197Y0176564D01*
X0177337Y0176545D01*
X0177476Y0176523D01*
X0177614Y0176496D01*
X0177752Y0176466D01*
X0177888Y0176431D01*
X0178024Y0176393D01*
X0178158Y0176351D01*
X0178292Y0176305D01*
X0178424Y0176256D01*
X0178554Y0176202D01*
X0178683Y0176145D01*
X0178810Y0176085D01*
X0178936Y0176021D01*
X0179059Y0175953D01*
X0179181Y0175882D01*
X0179301Y0175808D01*
X0179418Y0175730D01*
X0179533Y0175649D01*
X0179646Y0175565D01*
X0179757Y0175478D01*
X0179865Y0175387D01*
X0179970Y0175294D01*
X0180073Y0175197D01*
X0180173Y0175098D01*
X0180270Y0174996D01*
X0180364Y0174891D01*
X0180455Y0174784D01*
X0180543Y0174674D01*
X0180628Y0174562D01*
X0180710Y0174447D01*
X0180789Y0174330D01*
X0180864Y0174211D01*
X0180936Y0174090D01*
X0181004Y0173967D01*
X0181069Y0173842D01*
X0181131Y0173715D01*
X0181188Y0173586D01*
X0181243Y0173456D01*
X0181293Y0173325D01*
X0181340Y0173192D01*
X0181383Y0173058D01*
X0181422Y0172922D01*
X0181457Y0172786D01*
X0181489Y0172649D01*
X0181516Y0172511D01*
X0181540Y0172372D01*
X0181560Y0172232D01*
X0181576Y0172092D01*
X0181588Y0171952D01*
X0181596Y0171811D01*
X0181600Y0171670D01*
X0181600Y0171530D01*
X0181596Y0171389D01*
X0181588Y0171248D01*
X0181576Y0171108D01*
X0181560Y0170968D01*
X0181540Y0170828D01*
X0181516Y0170689D01*
X0181489Y0170551D01*
X0181457Y0170414D01*
X0181422Y0170278D01*
X0181383Y0170142D01*
X0181340Y0170008D01*
X0181293Y0169875D01*
X0181243Y0169744D01*
X0181188Y0169614D01*
X0181131Y0169485D01*
X0181069Y0169358D01*
X0181004Y0169233D01*
X0180936Y0169110D01*
X0180864Y0168989D01*
X0180789Y0168870D01*
X0180710Y0168753D01*
X0180628Y0168638D01*
X0180543Y0168526D01*
X0180455Y0168416D01*
X0180364Y0168309D01*
X0180270Y0168204D01*
X0180173Y0168102D01*
X0180073Y0168003D01*
X0179970Y0167906D01*
X0179865Y0167813D01*
X0179757Y0167722D01*
X0179646Y0167635D01*
X0179533Y0167551D01*
X0179418Y0167470D01*
X0179301Y0167392D01*
X0179181Y0167318D01*
X0179059Y0167247D01*
X0178936Y0167179D01*
X0178810Y0167115D01*
X0178683Y0167055D01*
X0178554Y0166998D01*
X0178424Y0166944D01*
X0178292Y0166895D01*
X0178158Y0166849D01*
X0178024Y0166807D01*
X0177888Y0166769D01*
X0177752Y0166734D01*
X0177614Y0166704D01*
X0177476Y0166677D01*
X0177337Y0166655D01*
X0177197Y0166636D01*
X0177057Y0166621D01*
X0176917Y0166610D01*
X0176776Y0166603D01*
X0176635Y0166600D01*
X0176494Y0166601D01*
X0176354Y0166606D01*
X0176213Y0166615D01*
X0176073Y0166628D01*
X0175933Y0166645D01*
X0175793Y0166665D01*
X0175655Y0166690D01*
X0175517Y0166719D01*
X0175380Y0166751D01*
X0175244Y0166787D01*
X0175109Y0166828D01*
X0174975Y0166872D01*
X0174842Y0166919D01*
X0174711Y0166971D01*
X0174581Y0167026D01*
X0174453Y0167084D01*
X0174327Y0167147D01*
X0174202Y0167212D01*
X0174080Y0167282D01*
X0173959Y0167354D01*
X0173840Y0167430D01*
X0173724Y0167510D01*
X0173610Y0167593D01*
X0173498Y0167678D01*
X0173389Y0167767D01*
X0173282Y0167859D01*
X0173178Y0167954D01*
X0173077Y0168052D01*
X0172978Y0168153D01*
X0172883Y0168256D01*
X0172790Y0168362D01*
X0172700Y0168471D01*
X0172614Y0168582D01*
X0172530Y0168695D01*
X0172450Y0168811D01*
X0172373Y0168929D01*
X0172300Y0169049D01*
X0172229Y0169172D01*
X0172163Y0169296D01*
X0172100Y0169422D01*
X0172040Y0169549D01*
X0171984Y0169678D01*
X0171932Y0169809D01*
X0171883Y0169941D01*
X0171838Y0170075D01*
X0171797Y0170210D01*
X0171760Y0170346D01*
X0171726Y0170482D01*
X0171697Y0170620D01*
X0171671Y0170759D01*
X0171650Y0170898D01*
X0171632Y0171038D01*
X0171618Y0171178D01*
X0171608Y0171318D01*
X0171602Y0171459D01*
X0171600Y0171600D01*
M02*
